<?xml version="1.0" encoding="utf-8" standalone="no"?>
<!DOCTYPE svg PUBLIC "-//W3C//DTD SVG 1.1//EN"
  "http://www.w3.org/Graphics/SVG/1.1/DTD/svg11.dtd">
<svg xmlns:xlink="http://www.w3.org/1999/xlink" width="475.800859pt" height="353.549406pt" viewBox="0 0 475.800859 353.549406" xmlns="http://www.w3.org/2000/svg" version="1.1">
 <metadata>
  <rdf:RDF xmlns:dc="http://purl.org/dc/elements/1.1/" xmlns:cc="http://creativecommons.org/ns#" xmlns:rdf="http://www.w3.org/1999/02/22-rdf-syntax-ns#">
   <cc:Work>
    <dc:type rdf:resource="http://purl.org/dc/dcmitype/StillImage"/>
    <dc:date>2026-07-03T10:37:48.039558</dc:date>
    <dc:format>image/svg+xml</dc:format>
    <dc:creator>
     <cc:Agent>
      <dc:title>Matplotlib v3.11.0, https://matplotlib.org/</dc:title>
     </cc:Agent>
    </dc:creator>
   </cc:Work>
  </rdf:RDF>
 </metadata>
 <defs>
  <style type="text/css">*{stroke-linejoin: round; stroke-linecap: butt}</style>
 </defs>
 <g id="figure_1">
  <g id="patch_1">
   <path d="M 0 353.549406 
L 475.800859 353.549406 
L 475.800859 0 
L 0 0 
z
" style="fill: #fcfcfb"/>
  </g>
  <g id="axes_1">
   <g id="patch_2">
    <path d="M 22.200859 311.365969 
L 468.600859 311.365969 
L 468.600859 23.077969 
L 22.200859 23.077969 
z
" style="fill: #fcfcfb"/>
   </g>
   <g id="line2d_1">
    <path d="M 130.534908 298.261969 
L 42.491768 298.261969 
" clip-path="url(#p764dbdf425)" style="fill: none; stroke: #e1e0d9; stroke-width: 1.6; stroke-linecap: square"/>
   </g>
   <g id="line2d_2">
    <path d="M 142.615287 284.468285 
L 223.83049 284.468285 
" clip-path="url(#p764dbdf425)" style="fill: none; stroke: #e1e0d9; stroke-width: 1.6; stroke-linecap: square"/>
   </g>
   <g id="line2d_3">
    <path d="M 162.478303 270.6746 
L 125.745712 270.6746 
" clip-path="url(#p764dbdf425)" style="fill: none; stroke: #e1e0d9; stroke-width: 1.6; stroke-linecap: square"/>
   </g>
   <g id="line2d_4">
    <path d="M 168.265088 256.880916 
L 181.13284 256.880916 
" clip-path="url(#p764dbdf425)" style="fill: none; stroke: #e1e0d9; stroke-width: 1.6; stroke-linecap: square"/>
   </g>
   <g id="line2d_5">
    <path d="M 170.885273 243.087232 
L 170.915555 243.087232 
" clip-path="url(#p764dbdf425)" style="fill: none; stroke: #e1e0d9; stroke-width: 1.6; stroke-linecap: square"/>
   </g>
   <g id="line2d_6">
    <path d="M 171.828812 229.293548 
L 171.022478 229.293548 
" clip-path="url(#p764dbdf425)" style="fill: none; stroke: #e1e0d9; stroke-width: 1.6; stroke-linecap: square"/>
   </g>
   <g id="line2d_7">
    <path d="M 173.482439 215.499863 
L 175.872323 215.499863 
" clip-path="url(#p764dbdf425)" style="fill: none; stroke: #e1e0d9; stroke-width: 1.6; stroke-linecap: square"/>
   </g>
   <g id="line2d_8">
    <path d="M 177.064412 201.706179 
L 197.09221 201.706179 
" clip-path="url(#p764dbdf425)" style="fill: none; stroke: #e1e0d9; stroke-width: 1.6; stroke-linecap: square"/>
   </g>
   <g id="line2d_9">
    <path d="M 199.056906 187.912495 
L 234.612235 187.912495 
" clip-path="url(#p764dbdf425)" style="fill: none; stroke: #e1e0d9; stroke-width: 1.6; stroke-linecap: square"/>
   </g>
   <g id="line2d_10">
    <path d="M 203.712783 174.118811 
L 298.706115 174.118811 
" clip-path="url(#p764dbdf425)" style="fill: none; stroke: #e1e0d9; stroke-width: 1.6; stroke-linecap: square"/>
   </g>
   <g id="line2d_11">
    <path d="M 235.829393 160.325127 
L 281.787968 160.325127 
" clip-path="url(#p764dbdf425)" style="fill: none; stroke: #e1e0d9; stroke-width: 1.6; stroke-linecap: square"/>
   </g>
   <g id="line2d_12">
    <path d="M 240.633721 146.531442 
L 242.23427 146.531442 
" clip-path="url(#p764dbdf425)" style="fill: none; stroke: #e1e0d9; stroke-width: 1.6; stroke-linecap: square"/>
   </g>
   <g id="line2d_13">
    <path d="M 240.952843 132.737758 
L 170.629534 132.737758 
" clip-path="url(#p764dbdf425)" style="fill: none; stroke: #e1e0d9; stroke-width: 1.6; stroke-linecap: square"/>
   </g>
   <g id="line2d_14">
    <path d="M 241.180459 118.944074 
L 330.618521 118.944074 
" clip-path="url(#p764dbdf425)" style="fill: none; stroke: #e1e0d9; stroke-width: 1.6; stroke-linecap: square"/>
   </g>
   <g id="line2d_15">
    <path d="M 241.506885 105.15039 
L 318.651588 105.15039 
" clip-path="url(#p764dbdf425)" style="fill: none; stroke: #e1e0d9; stroke-width: 1.6; stroke-linecap: square"/>
   </g>
   <g id="line2d_16">
    <path d="M 247.209821 91.356706 
L 256.114017 91.356706 
" clip-path="url(#p764dbdf425)" style="fill: none; stroke: #e1e0d9; stroke-width: 1.6; stroke-linecap: square"/>
   </g>
   <g id="line2d_17">
    <path d="M 285.127593 77.563021 
L 261.386072 77.563021 
" clip-path="url(#p764dbdf425)" style="fill: none; stroke: #e1e0d9; stroke-width: 1.6; stroke-linecap: square"/>
   </g>
   <g id="line2d_18">
    <path d="M 333.700187 63.769337 
L 421.647837 63.769337 
" clip-path="url(#p764dbdf425)" style="fill: none; stroke: #e1e0d9; stroke-width: 1.6; stroke-linecap: square"/>
   </g>
   <g id="line2d_19">
    <path d="M 352.715826 49.975653 
L 445.359091 49.975653 
" clip-path="url(#p764dbdf425)" style="fill: none; stroke: #e1e0d9; stroke-width: 1.6; stroke-linecap: square"/>
   </g>
   <g id="line2d_20">
    <path d="M 444.239525 36.181969 
L 448.30995 36.181969 
" clip-path="url(#p764dbdf425)" style="fill: none; stroke: #e1e0d9; stroke-width: 1.6; stroke-linecap: square"/>
   </g>
   <g id="matplotlib.axis_1">
    <g id="xtick_1">
     <g id="line2d_21">
      <path d="M 240.877194 311.365969 
L 240.877194 23.077969 
" clip-path="url(#p764dbdf425)" style="fill: none; stroke: #e1e0d9; stroke-width: 0.8; stroke-linecap: square"/>
     </g>
     <g id="line2d_22">
      <defs>
       <path id="m8636b0cc06" d="M 0 0 
L 0 3.5 
" style="stroke: #898781; stroke-width: 0.8"/>
      </defs>
      <g>
       <use xlink:href="#m8636b0cc06" x="240.877194" y="311.365969" style="fill: #898781; stroke: #898781; stroke-width: 0.8"/>
      </g>
     </g>
     <g id="text_1">
      <!-- $\mathdefault{10^{3}}$ -->
      <g style="fill: #52514e" transform="translate(231.197194 328.705969) scale(0.11 -0.11)">
       <defs>
        <path id="DejaVuSans-14" d="M 794 531 
L 1825 531 
L 1825 4091 
L 703 3866 
L 703 4441 
L 1819 4666 
L 2450 4666 
L 2450 531 
L 3481 531 
L 3481 0 
L 794 0 
L 794 531 
z
" transform="scale(0.015625)"/>
        <path id="DejaVuSans-13" d="M 2034 4250 
Q 1547 4250 1301 3770 
Q 1056 3291 1056 2328 
Q 1056 1369 1301 889 
Q 1547 409 2034 409 
Q 2525 409 2770 889 
Q 3016 1369 3016 2328 
Q 3016 3291 2770 3770 
Q 2525 4250 2034 4250 
z
M 2034 4750 
Q 2819 4750 3233 4129 
Q 3647 3509 3647 2328 
Q 3647 1150 3233 529 
Q 2819 -91 2034 -91 
Q 1250 -91 836 529 
Q 422 1150 422 2328 
Q 422 3509 836 4129 
Q 1250 4750 2034 4750 
z
" transform="scale(0.015625)"/>
        <path id="DejaVuSans-16" d="M 2597 2516 
Q 3050 2419 3304 2112 
Q 3559 1806 3559 1356 
Q 3559 666 3084 287 
Q 2609 -91 1734 -91 
Q 1441 -91 1130 -33 
Q 819 25 488 141 
L 488 750 
Q 750 597 1062 519 
Q 1375 441 1716 441 
Q 2309 441 2620 675 
Q 2931 909 2931 1356 
Q 2931 1769 2642 2001 
Q 2353 2234 1838 2234 
L 1294 2234 
L 1294 2753 
L 1863 2753 
Q 2328 2753 2575 2939 
Q 2822 3125 2822 3475 
Q 2822 3834 2567 4026 
Q 2313 4219 1838 4219 
Q 1578 4219 1281 4162 
Q 984 4106 628 3988 
L 628 4550 
Q 988 4650 1302 4700 
Q 1616 4750 1894 4750 
Q 2613 4750 3031 4423 
Q 3450 4097 3450 3541 
Q 3450 3153 3228 2886 
Q 3006 2619 2597 2516 
z
" transform="scale(0.015625)"/>
       </defs>
       <use xlink:href="#DejaVuSans-14" transform="translate(0 0.746875)"/>
       <use xlink:href="#DejaVuSans-13" transform="translate(63.623047 0.746875)"/>
       <use xlink:href="#DejaVuSans-16" transform="translate(128.203125 42.046875) scale(0.7)"/>
      </g>
     </g>
    </g>
    <g id="xtick_2">
     <g id="line2d_23">
      <defs>
       <path id="m2e700aa3fb" d="M 0 0 
L 0 2 
" style="stroke: #898781; stroke-width: 0.6"/>
      </defs>
      <g>
       <use xlink:href="#m2e700aa3fb" x="78.478162" y="311.365969" style="fill: #898781; stroke: #898781; stroke-width: 0.6"/>
      </g>
     </g>
     <g id="text_2">
      <!-- $\mathdefault{2\times10^{2}}$ -->
      <g style="fill: #52514e" transform="translate(58.568162 327.105969) scale(0.11 -0.11)">
       <defs>
        <path id="DejaVuSans-15" d="M 1228 531 
L 3431 531 
L 3431 0 
L 469 0 
L 469 531 
Q 828 903 1448 1529 
Q 2069 2156 2228 2338 
Q 2531 2678 2651 2914 
Q 2772 3150 2772 3378 
Q 2772 3750 2511 3984 
Q 2250 4219 1831 4219 
Q 1534 4219 1204 4116 
Q 875 4013 500 3803 
L 500 4441 
Q 881 4594 1212 4672 
Q 1544 4750 1819 4750 
Q 2544 4750 2975 4387 
Q 3406 4025 3406 3419 
Q 3406 3131 3298 2873 
Q 3191 2616 2906 2266 
Q 2828 2175 2409 1742 
Q 1991 1309 1228 531 
z
" transform="scale(0.015625)"/>
        <path id="DejaVuSans-99" d="M 4488 3438 
L 3059 2003 
L 4488 575 
L 4116 197 
L 2681 1631 
L 1247 197 
L 878 575 
L 2303 2003 
L 878 3438 
L 1247 3816 
L 2681 2381 
L 4116 3816 
L 4488 3438 
z
" transform="scale(0.015625)"/>
       </defs>
       <use xlink:href="#DejaVuSans-15" transform="translate(0 0.746875)"/>
       <use xlink:href="#DejaVuSans-99" transform="translate(83.105469 0.746875)"/>
       <use xlink:href="#DejaVuSans-14" transform="translate(186.376953 0.746875)"/>
       <use xlink:href="#DejaVuSans-13" transform="translate(250 0.746875)"/>
       <use xlink:href="#DejaVuSans-15" transform="translate(314.580078 42.046875) scale(0.7)"/>
      </g>
     </g>
    </g>
    <g id="xtick_3">
     <g id="line2d_24">
      <g>
       <use xlink:href="#m2e700aa3fb" x="119.391291" y="311.365969" style="fill: #898781; stroke: #898781; stroke-width: 0.6"/>
      </g>
     </g>
     <g id="text_3">
      <!-- $\mathdefault{3\times10^{2}}$ -->
      <g style="fill: #52514e" transform="translate(99.481291 327.105969) scale(0.11 -0.11)">
       <use xlink:href="#DejaVuSans-16" transform="translate(0 0.746875)"/>
       <use xlink:href="#DejaVuSans-99" transform="translate(83.105469 0.746875)"/>
       <use xlink:href="#DejaVuSans-14" transform="translate(186.376953 0.746875)"/>
       <use xlink:href="#DejaVuSans-13" transform="translate(250 0.746875)"/>
       <use xlink:href="#DejaVuSans-15" transform="translate(314.580078 42.046875) scale(0.7)"/>
      </g>
     </g>
    </g>
    <g id="xtick_4">
     <g id="line2d_25">
      <g>
       <use xlink:href="#m2e700aa3fb" x="148.419618" y="311.365969" style="fill: #898781; stroke: #898781; stroke-width: 0.6"/>
      </g>
     </g>
     <g id="text_4">
      <!-- $\mathdefault{4\times10^{2}}$ -->
      <g style="fill: #52514e" transform="translate(128.509618 327.105969) scale(0.11 -0.11)">
       <defs>
        <path id="DejaVuSans-17" d="M 2419 4116 
L 825 1625 
L 2419 1625 
L 2419 4116 
z
M 2253 4666 
L 3047 4666 
L 3047 1625 
L 3713 1625 
L 3713 1100 
L 3047 1100 
L 3047 0 
L 2419 0 
L 2419 1100 
L 313 1100 
L 313 1709 
L 2253 4666 
z
" transform="scale(0.015625)"/>
       </defs>
       <use xlink:href="#DejaVuSans-17" transform="translate(0 0.746875)"/>
       <use xlink:href="#DejaVuSans-99" transform="translate(83.105469 0.746875)"/>
       <use xlink:href="#DejaVuSans-14" transform="translate(186.376953 0.746875)"/>
       <use xlink:href="#DejaVuSans-13" transform="translate(250 0.746875)"/>
       <use xlink:href="#DejaVuSans-15" transform="translate(314.580078 42.046875) scale(0.7)"/>
      </g>
     </g>
    </g>
    <g id="xtick_5">
     <g id="line2d_26">
      <g>
       <use xlink:href="#m2e700aa3fb" x="170.935738" y="311.365969" style="fill: #898781; stroke: #898781; stroke-width: 0.6"/>
      </g>
     </g>
    </g>
    <g id="xtick_6">
     <g id="line2d_27">
      <g>
       <use xlink:href="#m2e700aa3fb" x="189.332747" y="311.365969" style="fill: #898781; stroke: #898781; stroke-width: 0.6"/>
      </g>
     </g>
     <g id="text_5">
      <!-- $\mathdefault{6\times10^{2}}$ -->
      <g style="fill: #52514e" transform="translate(169.422747 327.105969) scale(0.11 -0.11)">
       <defs>
        <path id="DejaVuSans-19" d="M 2113 2584 
Q 1688 2584 1439 2293 
Q 1191 2003 1191 1497 
Q 1191 994 1439 701 
Q 1688 409 2113 409 
Q 2538 409 2786 701 
Q 3034 994 3034 1497 
Q 3034 2003 2786 2293 
Q 2538 2584 2113 2584 
z
M 3366 4563 
L 3366 3988 
Q 3128 4100 2886 4159 
Q 2644 4219 2406 4219 
Q 1781 4219 1451 3797 
Q 1122 3375 1075 2522 
Q 1259 2794 1537 2939 
Q 1816 3084 2150 3084 
Q 2853 3084 3261 2657 
Q 3669 2231 3669 1497 
Q 3669 778 3244 343 
Q 2819 -91 2113 -91 
Q 1303 -91 875 529 
Q 447 1150 447 2328 
Q 447 3434 972 4092 
Q 1497 4750 2381 4750 
Q 2619 4750 2861 4703 
Q 3103 4656 3366 4563 
z
" transform="scale(0.015625)"/>
       </defs>
       <use xlink:href="#DejaVuSans-19" transform="translate(0 0.746875)"/>
       <use xlink:href="#DejaVuSans-99" transform="translate(83.105469 0.746875)"/>
       <use xlink:href="#DejaVuSans-14" transform="translate(186.376953 0.746875)"/>
       <use xlink:href="#DejaVuSans-13" transform="translate(250 0.746875)"/>
       <use xlink:href="#DejaVuSans-15" transform="translate(314.580078 42.046875) scale(0.7)"/>
      </g>
     </g>
    </g>
    <g id="xtick_7">
     <g id="line2d_28">
      <g>
       <use xlink:href="#m2e700aa3fb" x="204.887197" y="311.365969" style="fill: #898781; stroke: #898781; stroke-width: 0.6"/>
      </g>
     </g>
    </g>
    <g id="xtick_8">
     <g id="line2d_29">
      <g>
       <use xlink:href="#m2e700aa3fb" x="218.361074" y="311.365969" style="fill: #898781; stroke: #898781; stroke-width: 0.6"/>
      </g>
     </g>
    </g>
    <g id="xtick_9">
     <g id="line2d_30">
      <g>
       <use xlink:href="#m2e700aa3fb" x="230.245876" y="311.365969" style="fill: #898781; stroke: #898781; stroke-width: 0.6"/>
      </g>
     </g>
    </g>
    <g id="xtick_10">
     <g id="line2d_31">
      <g>
       <use xlink:href="#m2e700aa3fb" x="310.81865" y="311.365969" style="fill: #898781; stroke: #898781; stroke-width: 0.6"/>
      </g>
     </g>
     <g id="text_6">
      <!-- $\mathdefault{2\times10^{3}}$ -->
      <g style="fill: #52514e" transform="translate(290.90865 327.105969) scale(0.11 -0.11)">
       <use xlink:href="#DejaVuSans-15" transform="translate(0 0.746875)"/>
       <use xlink:href="#DejaVuSans-99" transform="translate(83.105469 0.746875)"/>
       <use xlink:href="#DejaVuSans-14" transform="translate(186.376953 0.746875)"/>
       <use xlink:href="#DejaVuSans-13" transform="translate(250 0.746875)"/>
       <use xlink:href="#DejaVuSans-16" transform="translate(314.580078 42.046875) scale(0.7)"/>
      </g>
     </g>
    </g>
    <g id="xtick_11">
     <g id="line2d_32">
      <g>
       <use xlink:href="#m2e700aa3fb" x="351.731779" y="311.365969" style="fill: #898781; stroke: #898781; stroke-width: 0.6"/>
      </g>
     </g>
     <g id="text_7">
      <!-- $\mathdefault{3\times10^{3}}$ -->
      <g style="fill: #52514e" transform="translate(331.821779 327.105969) scale(0.11 -0.11)">
       <use xlink:href="#DejaVuSans-16" transform="translate(0 0.746875)"/>
       <use xlink:href="#DejaVuSans-99" transform="translate(83.105469 0.746875)"/>
       <use xlink:href="#DejaVuSans-14" transform="translate(186.376953 0.746875)"/>
       <use xlink:href="#DejaVuSans-13" transform="translate(250 0.746875)"/>
       <use xlink:href="#DejaVuSans-16" transform="translate(314.580078 42.046875) scale(0.7)"/>
      </g>
     </g>
    </g>
    <g id="xtick_12">
     <g id="line2d_33">
      <g>
       <use xlink:href="#m2e700aa3fb" x="380.760106" y="311.365969" style="fill: #898781; stroke: #898781; stroke-width: 0.6"/>
      </g>
     </g>
     <g id="text_8">
      <!-- $\mathdefault{4\times10^{3}}$ -->
      <g style="fill: #52514e" transform="translate(360.850106 327.105969) scale(0.11 -0.11)">
       <use xlink:href="#DejaVuSans-17" transform="translate(0 0.746875)"/>
       <use xlink:href="#DejaVuSans-99" transform="translate(83.105469 0.746875)"/>
       <use xlink:href="#DejaVuSans-14" transform="translate(186.376953 0.746875)"/>
       <use xlink:href="#DejaVuSans-13" transform="translate(250 0.746875)"/>
       <use xlink:href="#DejaVuSans-16" transform="translate(314.580078 42.046875) scale(0.7)"/>
      </g>
     </g>
    </g>
    <g id="xtick_13">
     <g id="line2d_34">
      <g>
       <use xlink:href="#m2e700aa3fb" x="403.276226" y="311.365969" style="fill: #898781; stroke: #898781; stroke-width: 0.6"/>
      </g>
     </g>
    </g>
    <g id="xtick_14">
     <g id="line2d_35">
      <g>
       <use xlink:href="#m2e700aa3fb" x="421.673235" y="311.365969" style="fill: #898781; stroke: #898781; stroke-width: 0.6"/>
      </g>
     </g>
     <g id="text_9">
      <!-- $\mathdefault{6\times10^{3}}$ -->
      <g style="fill: #52514e" transform="translate(401.763235 327.105969) scale(0.11 -0.11)">
       <use xlink:href="#DejaVuSans-19" transform="translate(0 0.746875)"/>
       <use xlink:href="#DejaVuSans-99" transform="translate(83.105469 0.746875)"/>
       <use xlink:href="#DejaVuSans-14" transform="translate(186.376953 0.746875)"/>
       <use xlink:href="#DejaVuSans-13" transform="translate(250 0.746875)"/>
       <use xlink:href="#DejaVuSans-16" transform="translate(314.580078 42.046875) scale(0.7)"/>
      </g>
     </g>
    </g>
    <g id="xtick_15">
     <g id="line2d_36">
      <g>
       <use xlink:href="#m2e700aa3fb" x="437.227685" y="311.365969" style="fill: #898781; stroke: #898781; stroke-width: 0.6"/>
      </g>
     </g>
    </g>
    <g id="xtick_16">
     <g id="line2d_37">
      <g>
       <use xlink:href="#m2e700aa3fb" x="450.701562" y="311.365969" style="fill: #898781; stroke: #898781; stroke-width: 0.6"/>
      </g>
     </g>
    </g>
    <g id="xtick_17">
     <g id="line2d_38">
      <g>
       <use xlink:href="#m2e700aa3fb" x="462.586364" y="311.365969" style="fill: #898781; stroke: #898781; stroke-width: 0.6"/>
      </g>
     </g>
    </g>
    <g id="text_10">
     <!-- Median perp trade size (USD, log scale) -->
     <g style="fill: #52514e" transform="translate(136.603125 343.706828) scale(0.11 -0.11)">
      <defs>
       <path id="DejaVuSans-30" d="M 628 4666 
L 1569 4666 
L 2759 1491 
L 3956 4666 
L 4897 4666 
L 4897 0 
L 4281 0 
L 4281 4097 
L 3078 897 
L 2444 897 
L 1241 4097 
L 1241 0 
L 628 0 
L 628 4666 
z
" transform="scale(0.015625)"/>
       <path id="DejaVuSans-48" d="M 3597 1894 
L 3597 1613 
L 953 1613 
Q 991 1019 1311 708 
Q 1631 397 2203 397 
Q 2534 397 2845 478 
Q 3156 559 3463 722 
L 3463 178 
Q 3153 47 2828 -22 
Q 2503 -91 2169 -91 
Q 1331 -91 842 396 
Q 353 884 353 1716 
Q 353 2575 817 3079 
Q 1281 3584 2069 3584 
Q 2775 3584 3186 3129 
Q 3597 2675 3597 1894 
z
M 3022 2063 
Q 3016 2534 2758 2815 
Q 2500 3097 2075 3097 
Q 1594 3097 1305 2825 
Q 1016 2553 972 2059 
L 3022 2063 
z
" transform="scale(0.015625)"/>
       <path id="DejaVuSans-47" d="M 2906 2969 
L 2906 4863 
L 3481 4863 
L 3481 0 
L 2906 0 
L 2906 525 
Q 2725 213 2448 61 
Q 2172 -91 1784 -91 
Q 1150 -91 751 415 
Q 353 922 353 1747 
Q 353 2572 751 3078 
Q 1150 3584 1784 3584 
Q 2172 3584 2448 3432 
Q 2725 3281 2906 2969 
z
M 947 1747 
Q 947 1113 1208 752 
Q 1469 391 1925 391 
Q 2381 391 2643 752 
Q 2906 1113 2906 1747 
Q 2906 2381 2643 2742 
Q 2381 3103 1925 3103 
Q 1469 3103 1208 2742 
Q 947 2381 947 1747 
z
" transform="scale(0.015625)"/>
       <path id="DejaVuSans-4c" d="M 603 3500 
L 1178 3500 
L 1178 0 
L 603 0 
L 603 3500 
z
M 603 4863 
L 1178 4863 
L 1178 4134 
L 603 4134 
L 603 4863 
z
" transform="scale(0.015625)"/>
       <path id="DejaVuSans-44" d="M 2194 1759 
Q 1497 1759 1228 1600 
Q 959 1441 959 1056 
Q 959 750 1161 570 
Q 1363 391 1709 391 
Q 2188 391 2477 730 
Q 2766 1069 2766 1631 
L 2766 1759 
L 2194 1759 
z
M 3341 1997 
L 3341 0 
L 2766 0 
L 2766 531 
Q 2569 213 2275 61 
Q 1981 -91 1556 -91 
Q 1019 -91 701 211 
Q 384 513 384 1019 
Q 384 1609 779 1909 
Q 1175 2209 1959 2209 
L 2766 2209 
L 2766 2266 
Q 2766 2663 2505 2880 
Q 2244 3097 1772 3097 
Q 1472 3097 1187 3025 
Q 903 2953 641 2809 
L 641 3341 
Q 956 3463 1253 3523 
Q 1550 3584 1831 3584 
Q 2591 3584 2966 3190 
Q 3341 2797 3341 1997 
z
" transform="scale(0.015625)"/>
       <path id="DejaVuSans-51" d="M 3513 2113 
L 3513 0 
L 2938 0 
L 2938 2094 
Q 2938 2591 2744 2837 
Q 2550 3084 2163 3084 
Q 1697 3084 1428 2787 
Q 1159 2491 1159 1978 
L 1159 0 
L 581 0 
L 581 3500 
L 1159 3500 
L 1159 2956 
Q 1366 3272 1645 3428 
Q 1925 3584 2291 3584 
Q 2894 3584 3203 3211 
Q 3513 2838 3513 2113 
z
" transform="scale(0.015625)"/>
       <path id="DejaVuSans-3" transform="scale(0.015625)"/>
       <path id="DejaVuSans-53" d="M 1159 525 
L 1159 -1331 
L 581 -1331 
L 581 3500 
L 1159 3500 
L 1159 2969 
Q 1341 3281 1617 3432 
Q 1894 3584 2278 3584 
Q 2916 3584 3314 3078 
Q 3713 2572 3713 1747 
Q 3713 922 3314 415 
Q 2916 -91 2278 -91 
Q 1894 -91 1617 61 
Q 1341 213 1159 525 
z
M 3116 1747 
Q 3116 2381 2855 2742 
Q 2594 3103 2138 3103 
Q 1681 3103 1420 2742 
Q 1159 2381 1159 1747 
Q 1159 1113 1420 752 
Q 1681 391 2138 391 
Q 2594 391 2855 752 
Q 3116 1113 3116 1747 
z
" transform="scale(0.015625)"/>
       <path id="DejaVuSans-55" d="M 2631 2963 
Q 2534 3019 2420 3045 
Q 2306 3072 2169 3072 
Q 1681 3072 1420 2755 
Q 1159 2438 1159 1844 
L 1159 0 
L 581 0 
L 581 3500 
L 1159 3500 
L 1159 2956 
Q 1341 3275 1631 3429 
Q 1922 3584 2338 3584 
Q 2397 3584 2469 3576 
Q 2541 3569 2628 3553 
L 2631 2963 
z
" transform="scale(0.015625)"/>
       <path id="DejaVuSans-57" d="M 1172 4494 
L 1172 3500 
L 2356 3500 
L 2356 3053 
L 1172 3053 
L 1172 1153 
Q 1172 725 1289 603 
Q 1406 481 1766 481 
L 2356 481 
L 2356 0 
L 1766 0 
Q 1100 0 847 248 
Q 594 497 594 1153 
L 594 3053 
L 172 3053 
L 172 3500 
L 594 3500 
L 594 4494 
L 1172 4494 
z
" transform="scale(0.015625)"/>
       <path id="DejaVuSans-56" d="M 2834 3397 
L 2834 2853 
Q 2591 2978 2328 3040 
Q 2066 3103 1784 3103 
Q 1356 3103 1142 2972 
Q 928 2841 928 2578 
Q 928 2378 1081 2264 
Q 1234 2150 1697 2047 
L 1894 2003 
Q 2506 1872 2764 1633 
Q 3022 1394 3022 966 
Q 3022 478 2636 193 
Q 2250 -91 1575 -91 
Q 1294 -91 989 -36 
Q 684 19 347 128 
L 347 722 
Q 666 556 975 473 
Q 1284 391 1588 391 
Q 1994 391 2212 530 
Q 2431 669 2431 922 
Q 2431 1156 2273 1281 
Q 2116 1406 1581 1522 
L 1381 1569 
Q 847 1681 609 1914 
Q 372 2147 372 2553 
Q 372 3047 722 3315 
Q 1072 3584 1716 3584 
Q 2034 3584 2315 3537 
Q 2597 3491 2834 3397 
z
" transform="scale(0.015625)"/>
       <path id="DejaVuSans-5d" d="M 353 3500 
L 3084 3500 
L 3084 2975 
L 922 459 
L 3084 459 
L 3084 0 
L 275 0 
L 275 525 
L 2438 3041 
L 353 3041 
L 353 3500 
z
" transform="scale(0.015625)"/>
       <path id="DejaVuSans-b" d="M 1984 4856 
Q 1566 4138 1362 3434 
Q 1159 2731 1159 2009 
Q 1159 1288 1364 580 
Q 1569 -128 1984 -844 
L 1484 -844 
Q 1016 -109 783 600 
Q 550 1309 550 2009 
Q 550 2706 781 3412 
Q 1013 4119 1484 4856 
L 1984 4856 
z
" transform="scale(0.015625)"/>
       <path id="DejaVuSans-38" d="M 556 4666 
L 1191 4666 
L 1191 1831 
Q 1191 1081 1462 751 
Q 1734 422 2344 422 
Q 2950 422 3222 751 
Q 3494 1081 3494 1831 
L 3494 4666 
L 4128 4666 
L 4128 1753 
Q 4128 841 3676 375 
Q 3225 -91 2344 -91 
Q 1459 -91 1007 375 
Q 556 841 556 1753 
L 556 4666 
z
" transform="scale(0.015625)"/>
       <path id="DejaVuSans-36" d="M 3425 4513 
L 3425 3897 
Q 3066 4069 2747 4153 
Q 2428 4238 2131 4238 
Q 1616 4238 1336 4038 
Q 1056 3838 1056 3469 
Q 1056 3159 1242 3001 
Q 1428 2844 1947 2747 
L 2328 2669 
Q 3034 2534 3370 2195 
Q 3706 1856 3706 1288 
Q 3706 609 3251 259 
Q 2797 -91 1919 -91 
Q 1588 -91 1214 -16 
Q 841 59 441 206 
L 441 856 
Q 825 641 1194 531 
Q 1563 422 1919 422 
Q 2459 422 2753 634 
Q 3047 847 3047 1241 
Q 3047 1584 2836 1778 
Q 2625 1972 2144 2069 
L 1759 2144 
Q 1053 2284 737 2584 
Q 422 2884 422 3419 
Q 422 4038 858 4394 
Q 1294 4750 2059 4750 
Q 2388 4750 2728 4690 
Q 3069 4631 3425 4513 
z
" transform="scale(0.015625)"/>
       <path id="DejaVuSans-27" d="M 1259 4147 
L 1259 519 
L 2022 519 
Q 2988 519 3436 956 
Q 3884 1394 3884 2338 
Q 3884 3275 3436 3711 
Q 2988 4147 2022 4147 
L 1259 4147 
z
M 628 4666 
L 1925 4666 
Q 3281 4666 3915 4102 
Q 4550 3538 4550 2338 
Q 4550 1131 3912 565 
Q 3275 0 1925 0 
L 628 0 
L 628 4666 
z
" transform="scale(0.015625)"/>
       <path id="DejaVuSans-f" d="M 750 794 
L 1409 794 
L 1409 256 
L 897 -744 
L 494 -744 
L 750 256 
L 750 794 
z
" transform="scale(0.015625)"/>
       <path id="DejaVuSans-4f" d="M 603 4863 
L 1178 4863 
L 1178 0 
L 603 0 
L 603 4863 
z
" transform="scale(0.015625)"/>
       <path id="DejaVuSans-52" d="M 1959 3097 
Q 1497 3097 1228 2736 
Q 959 2375 959 1747 
Q 959 1119 1226 758 
Q 1494 397 1959 397 
Q 2419 397 2687 759 
Q 2956 1122 2956 1747 
Q 2956 2369 2687 2733 
Q 2419 3097 1959 3097 
z
M 1959 3584 
Q 2709 3584 3137 3096 
Q 3566 2609 3566 1747 
Q 3566 888 3137 398 
Q 2709 -91 1959 -91 
Q 1206 -91 779 398 
Q 353 888 353 1747 
Q 353 2609 779 3096 
Q 1206 3584 1959 3584 
z
" transform="scale(0.015625)"/>
       <path id="DejaVuSans-4a" d="M 2906 1791 
Q 2906 2416 2648 2759 
Q 2391 3103 1925 3103 
Q 1463 3103 1205 2759 
Q 947 2416 947 1791 
Q 947 1169 1205 825 
Q 1463 481 1925 481 
Q 2391 481 2648 825 
Q 2906 1169 2906 1791 
z
M 3481 434 
Q 3481 -459 3084 -895 
Q 2688 -1331 1869 -1331 
Q 1566 -1331 1297 -1286 
Q 1028 -1241 775 -1147 
L 775 -588 
Q 1028 -725 1275 -790 
Q 1522 -856 1778 -856 
Q 2344 -856 2625 -561 
Q 2906 -266 2906 331 
L 2906 616 
Q 2728 306 2450 153 
Q 2172 0 1784 0 
Q 1141 0 747 490 
Q 353 981 353 1791 
Q 353 2603 747 3093 
Q 1141 3584 1784 3584 
Q 2172 3584 2450 3431 
Q 2728 3278 2906 2969 
L 2906 3500 
L 3481 3500 
L 3481 434 
z
" transform="scale(0.015625)"/>
       <path id="DejaVuSans-46" d="M 3122 3366 
L 3122 2828 
Q 2878 2963 2633 3030 
Q 2388 3097 2138 3097 
Q 1578 3097 1268 2742 
Q 959 2388 959 1747 
Q 959 1106 1268 751 
Q 1578 397 2138 397 
Q 2388 397 2633 464 
Q 2878 531 3122 666 
L 3122 134 
Q 2881 22 2623 -34 
Q 2366 -91 2075 -91 
Q 1284 -91 818 406 
Q 353 903 353 1747 
Q 353 2603 823 3093 
Q 1294 3584 2113 3584 
Q 2378 3584 2631 3529 
Q 2884 3475 3122 3366 
z
" transform="scale(0.015625)"/>
       <path id="DejaVuSans-c" d="M 513 4856 
L 1013 4856 
Q 1481 4119 1714 3412 
Q 1947 2706 1947 2009 
Q 1947 1309 1714 600 
Q 1481 -109 1013 -844 
L 513 -844 
Q 928 -128 1133 580 
Q 1338 1288 1338 2009 
Q 1338 2731 1133 3434 
Q 928 4138 513 4856 
z
" transform="scale(0.015625)"/>
      </defs>
      <use xlink:href="#DejaVuSans-30"/>
      <use xlink:href="#DejaVuSans-48" transform="translate(86.28125 0)"/>
      <use xlink:href="#DejaVuSans-47" transform="translate(147.8125 0)"/>
      <use xlink:href="#DejaVuSans-4c" transform="translate(211.296875 0)"/>
      <use xlink:href="#DejaVuSans-44" transform="translate(239.078125 0)"/>
      <use xlink:href="#DejaVuSans-51" transform="translate(300.359375 0)"/>
      <use xlink:href="#DejaVuSans-3" transform="translate(363.734375 0)"/>
      <use xlink:href="#DejaVuSans-53" transform="translate(395.515625 0)"/>
      <use xlink:href="#DejaVuSans-48" transform="translate(459 0)"/>
      <use xlink:href="#DejaVuSans-55" transform="translate(520.53125 0)"/>
      <use xlink:href="#DejaVuSans-53" transform="translate(561.640625 0)"/>
      <use xlink:href="#DejaVuSans-3" transform="translate(625.125 0)"/>
      <use xlink:href="#DejaVuSans-57" transform="translate(656.90625 0)"/>
      <use xlink:href="#DejaVuSans-55" transform="translate(696.109375 0)"/>
      <use xlink:href="#DejaVuSans-44" transform="translate(737.21875 0)"/>
      <use xlink:href="#DejaVuSans-47" transform="translate(798.5 0)"/>
      <use xlink:href="#DejaVuSans-48" transform="translate(861.984375 0)"/>
      <use xlink:href="#DejaVuSans-3" transform="translate(923.515625 0)"/>
      <use xlink:href="#DejaVuSans-56" transform="translate(955.296875 0)"/>
      <use xlink:href="#DejaVuSans-4c" transform="translate(1007.390625 0)"/>
      <use xlink:href="#DejaVuSans-5d" transform="translate(1035.171875 0)"/>
      <use xlink:href="#DejaVuSans-48" transform="translate(1087.65625 0)"/>
      <use xlink:href="#DejaVuSans-3" transform="translate(1149.1875 0)"/>
      <use xlink:href="#DejaVuSans-b" transform="translate(1180.96875 0)"/>
      <use xlink:href="#DejaVuSans-38" transform="translate(1219.984375 0)"/>
      <use xlink:href="#DejaVuSans-36" transform="translate(1293.171875 0)"/>
      <use xlink:href="#DejaVuSans-27" transform="translate(1356.65625 0)"/>
      <use xlink:href="#DejaVuSans-f" transform="translate(1433.65625 0)"/>
      <use xlink:href="#DejaVuSans-3" transform="translate(1465.4375 0)"/>
      <use xlink:href="#DejaVuSans-4f" transform="translate(1497.21875 0)"/>
      <use xlink:href="#DejaVuSans-52" transform="translate(1525 0)"/>
      <use xlink:href="#DejaVuSans-4a" transform="translate(1586.1875 0)"/>
      <use xlink:href="#DejaVuSans-3" transform="translate(1649.671875 0)"/>
      <use xlink:href="#DejaVuSans-56" transform="translate(1681.453125 0)"/>
      <use xlink:href="#DejaVuSans-46" transform="translate(1733.546875 0)"/>
      <use xlink:href="#DejaVuSans-44" transform="translate(1788.53125 0)"/>
      <use xlink:href="#DejaVuSans-4f" transform="translate(1849.8125 0)"/>
      <use xlink:href="#DejaVuSans-48" transform="translate(1877.59375 0)"/>
      <use xlink:href="#DejaVuSans-c" transform="translate(1939.125 0)"/>
     </g>
    </g>
   </g>
   <g id="matplotlib.axis_2">
    <g id="text_11">
     <!-- Traders (sorted by Fear-day size) -->
     <g style="fill: #52514e" transform="translate(15.558281 257.252672) rotate(-90) scale(0.11 -0.11)">
      <defs>
       <path id="DejaVuSans-37" d="M -19 4666 
L 3928 4666 
L 3928 4134 
L 2272 4134 
L 2272 0 
L 1638 0 
L 1638 4134 
L -19 4134 
L -19 4666 
z
" transform="scale(0.015625)"/>
       <path id="DejaVuSans-45" d="M 3116 1747 
Q 3116 2381 2855 2742 
Q 2594 3103 2138 3103 
Q 1681 3103 1420 2742 
Q 1159 2381 1159 1747 
Q 1159 1113 1420 752 
Q 1681 391 2138 391 
Q 2594 391 2855 752 
Q 3116 1113 3116 1747 
z
M 1159 2969 
Q 1341 3281 1617 3432 
Q 1894 3584 2278 3584 
Q 2916 3584 3314 3078 
Q 3713 2572 3713 1747 
Q 3713 922 3314 415 
Q 2916 -91 2278 -91 
Q 1894 -91 1617 61 
Q 1341 213 1159 525 
L 1159 0 
L 581 0 
L 581 4863 
L 1159 4863 
L 1159 2969 
z
" transform="scale(0.015625)"/>
       <path id="DejaVuSans-5c" d="M 2059 -325 
Q 1816 -950 1584 -1140 
Q 1353 -1331 966 -1331 
L 506 -1331 
L 506 -850 
L 844 -850 
Q 1081 -850 1212 -737 
Q 1344 -625 1503 -206 
L 1606 56 
L 191 3500 
L 800 3500 
L 1894 763 
L 2988 3500 
L 3597 3500 
L 2059 -325 
z
" transform="scale(0.015625)"/>
       <path id="DejaVuSans-29" d="M 628 4666 
L 3309 4666 
L 3309 4134 
L 1259 4134 
L 1259 2759 
L 3109 2759 
L 3109 2228 
L 1259 2228 
L 1259 0 
L 628 0 
L 628 4666 
z
" transform="scale(0.015625)"/>
       <path id="DejaVuSans-10" d="M 313 2009 
L 1997 2009 
L 1997 1497 
L 313 1497 
L 313 2009 
z
" transform="scale(0.015625)"/>
      </defs>
      <use xlink:href="#DejaVuSans-37"/>
      <use xlink:href="#DejaVuSans-55" transform="translate(46.375 0)"/>
      <use xlink:href="#DejaVuSans-44" transform="translate(87.484375 0)"/>
      <use xlink:href="#DejaVuSans-47" transform="translate(148.765625 0)"/>
      <use xlink:href="#DejaVuSans-48" transform="translate(212.25 0)"/>
      <use xlink:href="#DejaVuSans-55" transform="translate(273.78125 0)"/>
      <use xlink:href="#DejaVuSans-56" transform="translate(314.890625 0)"/>
      <use xlink:href="#DejaVuSans-3" transform="translate(366.984375 0)"/>
      <use xlink:href="#DejaVuSans-b" transform="translate(398.765625 0)"/>
      <use xlink:href="#DejaVuSans-56" transform="translate(437.78125 0)"/>
      <use xlink:href="#DejaVuSans-52" transform="translate(489.875 0)"/>
      <use xlink:href="#DejaVuSans-55" transform="translate(551.0625 0)"/>
      <use xlink:href="#DejaVuSans-57" transform="translate(592.171875 0)"/>
      <use xlink:href="#DejaVuSans-48" transform="translate(631.375 0)"/>
      <use xlink:href="#DejaVuSans-47" transform="translate(692.90625 0)"/>
      <use xlink:href="#DejaVuSans-3" transform="translate(756.390625 0)"/>
      <use xlink:href="#DejaVuSans-45" transform="translate(788.171875 0)"/>
      <use xlink:href="#DejaVuSans-5c" transform="translate(851.65625 0)"/>
      <use xlink:href="#DejaVuSans-3" transform="translate(910.84375 0)"/>
      <use xlink:href="#DejaVuSans-29" transform="translate(942.625 0)"/>
      <use xlink:href="#DejaVuSans-48" transform="translate(994.671875 0)"/>
      <use xlink:href="#DejaVuSans-44" transform="translate(1056.203125 0)"/>
      <use xlink:href="#DejaVuSans-55" transform="translate(1117.484375 0)"/>
      <use xlink:href="#DejaVuSans-10" transform="translate(1152.203125 0)"/>
      <use xlink:href="#DejaVuSans-47" transform="translate(1188.28125 0)"/>
      <use xlink:href="#DejaVuSans-44" transform="translate(1251.765625 0)"/>
      <use xlink:href="#DejaVuSans-5c" transform="translate(1313.046875 0)"/>
      <use xlink:href="#DejaVuSans-3" transform="translate(1372.234375 0)"/>
      <use xlink:href="#DejaVuSans-56" transform="translate(1404.015625 0)"/>
      <use xlink:href="#DejaVuSans-4c" transform="translate(1456.109375 0)"/>
      <use xlink:href="#DejaVuSans-5d" transform="translate(1483.890625 0)"/>
      <use xlink:href="#DejaVuSans-48" transform="translate(1536.375 0)"/>
      <use xlink:href="#DejaVuSans-c" transform="translate(1597.90625 0)"/>
     </g>
    </g>
   </g>
   <g id="PathCollection_1">
    <defs>
     <path id="mdf053965ce" d="M 0 3.24037 
C 0.859356 3.24037 1.683631 2.898944 2.291288 2.291288 
C 2.898944 1.683631 3.24037 0.859356 3.24037 0 
C 3.24037 -0.859356 2.898944 -1.683631 2.291288 -2.291288 
C 1.683631 -2.898944 0.859356 -3.24037 0 -3.24037 
C -0.859356 -3.24037 -1.683631 -2.898944 -2.291288 -2.291288 
C -2.898944 -1.683631 -3.24037 -0.859356 -3.24037 0 
C -3.24037 0.859356 -2.898944 1.683631 -2.291288 2.291288 
C -1.683631 2.898944 -0.859356 3.24037 0 3.24037 
z
" style="stroke: #e34948"/>
    </defs>
    <g clip-path="url(#p764dbdf425)">
     <use xlink:href="#mdf053965ce" x="130.534908" y="298.261969" style="fill: #e34948; stroke: #e34948"/>
     <use xlink:href="#mdf053965ce" x="142.615287" y="284.468285" style="fill: #e34948; stroke: #e34948"/>
     <use xlink:href="#mdf053965ce" x="162.478303" y="270.6746" style="fill: #e34948; stroke: #e34948"/>
     <use xlink:href="#mdf053965ce" x="168.265088" y="256.880916" style="fill: #e34948; stroke: #e34948"/>
     <use xlink:href="#mdf053965ce" x="170.885273" y="243.087232" style="fill: #e34948; stroke: #e34948"/>
     <use xlink:href="#mdf053965ce" x="171.828812" y="229.293548" style="fill: #e34948; stroke: #e34948"/>
     <use xlink:href="#mdf053965ce" x="173.482439" y="215.499863" style="fill: #e34948; stroke: #e34948"/>
     <use xlink:href="#mdf053965ce" x="177.064412" y="201.706179" style="fill: #e34948; stroke: #e34948"/>
     <use xlink:href="#mdf053965ce" x="199.056906" y="187.912495" style="fill: #e34948; stroke: #e34948"/>
     <use xlink:href="#mdf053965ce" x="203.712783" y="174.118811" style="fill: #e34948; stroke: #e34948"/>
     <use xlink:href="#mdf053965ce" x="235.829393" y="160.325127" style="fill: #e34948; stroke: #e34948"/>
     <use xlink:href="#mdf053965ce" x="240.633721" y="146.531442" style="fill: #e34948; stroke: #e34948"/>
     <use xlink:href="#mdf053965ce" x="240.952843" y="132.737758" style="fill: #e34948; stroke: #e34948"/>
     <use xlink:href="#mdf053965ce" x="241.180459" y="118.944074" style="fill: #e34948; stroke: #e34948"/>
     <use xlink:href="#mdf053965ce" x="241.506885" y="105.15039" style="fill: #e34948; stroke: #e34948"/>
     <use xlink:href="#mdf053965ce" x="247.209821" y="91.356706" style="fill: #e34948; stroke: #e34948"/>
     <use xlink:href="#mdf053965ce" x="285.127593" y="77.563021" style="fill: #e34948; stroke: #e34948"/>
     <use xlink:href="#mdf053965ce" x="333.700187" y="63.769337" style="fill: #e34948; stroke: #e34948"/>
     <use xlink:href="#mdf053965ce" x="352.715826" y="49.975653" style="fill: #e34948; stroke: #e34948"/>
     <use xlink:href="#mdf053965ce" x="444.239525" y="36.181969" style="fill: #e34948; stroke: #e34948"/>
    </g>
   </g>
   <g id="PathCollection_2">
    <defs>
     <path id="m4b81499a77" d="M 0 3.24037 
C 0.859356 3.24037 1.683631 2.898944 2.291288 2.291288 
C 2.898944 1.683631 3.24037 0.859356 3.24037 0 
C 3.24037 -0.859356 2.898944 -1.683631 2.291288 -2.291288 
C 1.683631 -2.898944 0.859356 -3.24037 0 -3.24037 
C -0.859356 -3.24037 -1.683631 -2.898944 -2.291288 -2.291288 
C -2.898944 -1.683631 -3.24037 -0.859356 -3.24037 0 
C -3.24037 0.859356 -2.898944 1.683631 -2.291288 2.291288 
C -1.683631 2.898944 -0.859356 3.24037 0 3.24037 
z
" style="stroke: #008300"/>
    </defs>
    <g clip-path="url(#p764dbdf425)">
     <use xlink:href="#m4b81499a77" x="42.491768" y="298.261969" style="fill: #008300; stroke: #008300"/>
     <use xlink:href="#m4b81499a77" x="223.83049" y="284.468285" style="fill: #008300; stroke: #008300"/>
     <use xlink:href="#m4b81499a77" x="125.745712" y="270.6746" style="fill: #008300; stroke: #008300"/>
     <use xlink:href="#m4b81499a77" x="181.13284" y="256.880916" style="fill: #008300; stroke: #008300"/>
     <use xlink:href="#m4b81499a77" x="170.915555" y="243.087232" style="fill: #008300; stroke: #008300"/>
     <use xlink:href="#m4b81499a77" x="171.022478" y="229.293548" style="fill: #008300; stroke: #008300"/>
     <use xlink:href="#m4b81499a77" x="175.872323" y="215.499863" style="fill: #008300; stroke: #008300"/>
     <use xlink:href="#m4b81499a77" x="197.09221" y="201.706179" style="fill: #008300; stroke: #008300"/>
     <use xlink:href="#m4b81499a77" x="234.612235" y="187.912495" style="fill: #008300; stroke: #008300"/>
     <use xlink:href="#m4b81499a77" x="298.706115" y="174.118811" style="fill: #008300; stroke: #008300"/>
     <use xlink:href="#m4b81499a77" x="281.787968" y="160.325127" style="fill: #008300; stroke: #008300"/>
     <use xlink:href="#m4b81499a77" x="242.23427" y="146.531442" style="fill: #008300; stroke: #008300"/>
     <use xlink:href="#m4b81499a77" x="170.629534" y="132.737758" style="fill: #008300; stroke: #008300"/>
     <use xlink:href="#m4b81499a77" x="330.618521" y="118.944074" style="fill: #008300; stroke: #008300"/>
     <use xlink:href="#m4b81499a77" x="318.651588" y="105.15039" style="fill: #008300; stroke: #008300"/>
     <use xlink:href="#m4b81499a77" x="256.114017" y="91.356706" style="fill: #008300; stroke: #008300"/>
     <use xlink:href="#m4b81499a77" x="261.386072" y="77.563021" style="fill: #008300; stroke: #008300"/>
     <use xlink:href="#m4b81499a77" x="421.647837" y="63.769337" style="fill: #008300; stroke: #008300"/>
     <use xlink:href="#m4b81499a77" x="445.359091" y="49.975653" style="fill: #008300; stroke: #008300"/>
     <use xlink:href="#m4b81499a77" x="448.30995" y="36.181969" style="fill: #008300; stroke: #008300"/>
    </g>
   </g>
   <g id="patch_3">
    <path d="M 22.200859 311.365969 
L 22.200859 23.077969 
" style="fill: none; stroke: #c3c2b7; stroke-linejoin: miter; stroke-linecap: square"/>
   </g>
   <g id="patch_4">
    <path d="M 22.200859 311.365969 
L 468.600859 311.365969 
" style="fill: none; stroke: #c3c2b7; stroke-linejoin: miter; stroke-linecap: square"/>
   </g>
   <g id="text_12">
    <!-- SF2 · RQ4 — per-trader position size, Fear vs Greed (paired) -->
    <g style="fill: #0b0b0b" transform="translate(25.006172 17.077969) scale(0.13 -0.13)">
     <defs>
      <path id="DejaVuSans-Bold-36" d="M 3834 4519 
L 3834 3531 
Q 3450 3703 3084 3790 
Q 2719 3878 2394 3878 
Q 1963 3878 1756 3759 
Q 1550 3641 1550 3391 
Q 1550 3203 1689 3098 
Q 1828 2994 2194 2919 
L 2706 2816 
Q 3484 2659 3812 2340 
Q 4141 2022 4141 1434 
Q 4141 663 3683 286 
Q 3225 -91 2284 -91 
Q 1841 -91 1394 -6 
Q 947 78 500 244 
L 500 1259 
Q 947 1022 1364 901 
Q 1781 781 2169 781 
Q 2563 781 2772 912 
Q 2981 1044 2981 1288 
Q 2981 1506 2839 1625 
Q 2697 1744 2272 1838 
L 1806 1941 
Q 1106 2091 782 2419 
Q 459 2747 459 3303 
Q 459 4000 909 4375 
Q 1359 4750 2203 4750 
Q 2588 4750 2994 4692 
Q 3400 4634 3834 4519 
z
" transform="scale(0.015625)"/>
      <path id="DejaVuSans-Bold-29" d="M 588 4666 
L 3834 4666 
L 3834 3756 
L 1791 3756 
L 1791 2888 
L 3713 2888 
L 3713 1978 
L 1791 1978 
L 1791 0 
L 588 0 
L 588 4666 
z
" transform="scale(0.015625)"/>
      <path id="DejaVuSans-Bold-15" d="M 1844 884 
L 3897 884 
L 3897 0 
L 506 0 
L 506 884 
L 2209 2388 
Q 2438 2594 2547 2791 
Q 2656 2988 2656 3200 
Q 2656 3528 2436 3728 
Q 2216 3928 1850 3928 
Q 1569 3928 1234 3808 
Q 900 3688 519 3450 
L 519 4475 
Q 925 4609 1322 4679 
Q 1719 4750 2100 4750 
Q 2938 4750 3402 4381 
Q 3866 4013 3866 3353 
Q 3866 2972 3669 2642 
Q 3472 2313 2841 1759 
L 1844 884 
z
" transform="scale(0.015625)"/>
      <path id="DejaVuSans-Bold-3" transform="scale(0.015625)"/>
      <path id="DejaVuSans-Bold-79" d="M 653 2828 
L 1778 2828 
L 1778 1619 
L 653 1619 
L 653 2828 
z
" transform="scale(0.015625)"/>
      <path id="DejaVuSans-Bold-35" d="M 2297 2597 
Q 2675 2597 2839 2737 
Q 3003 2878 3003 3200 
Q 3003 3519 2839 3656 
Q 2675 3794 2297 3794 
L 1791 3794 
L 1791 2597 
L 2297 2597 
z
M 1791 1766 
L 1791 0 
L 588 0 
L 588 4666 
L 2425 4666 
Q 3347 4666 3776 4356 
Q 4206 4047 4206 3378 
Q 4206 2916 3982 2619 
Q 3759 2322 3309 2181 
Q 3556 2125 3751 1926 
Q 3947 1728 4147 1325 
L 4800 0 
L 3519 0 
L 2950 1159 
Q 2778 1509 2601 1637 
Q 2425 1766 2131 1766 
L 1791 1766 
z
" transform="scale(0.015625)"/>
      <path id="DejaVuSans-Bold-34" d="M 2847 -84 
L 2753 -84 
Q 1600 -84 959 553 
Q 319 1191 319 2328 
Q 319 3463 958 4106 
Q 1597 4750 2719 4750 
Q 3853 4750 4486 4112 
Q 5119 3475 5119 2328 
Q 5119 1541 4783 972 
Q 4447 403 3816 116 
L 4756 -934 
L 3609 -934 
L 2847 -84 
z
M 2719 3878 
Q 2169 3878 1866 3472 
Q 1563 3066 1563 2328 
Q 1563 1578 1859 1179 
Q 2156 781 2719 781 
Q 3272 781 3575 1187 
Q 3878 1594 3878 2328 
Q 3878 3066 3575 3472 
Q 3272 3878 2719 3878 
z
" transform="scale(0.015625)"/>
      <path id="DejaVuSans-Bold-17" d="M 2356 3675 
L 1038 1722 
L 2356 1722 
L 2356 3675 
z
M 2156 4666 
L 3494 4666 
L 3494 1722 
L 4159 1722 
L 4159 850 
L 3494 850 
L 3494 0 
L 2356 0 
L 2356 850 
L 288 850 
L 288 1881 
L 2156 4666 
z
" transform="scale(0.015625)"/>
      <path id="DejaVuSans-Bold-af6" d="M 344 2156 
L 6056 2156 
L 6056 1350 
L 344 1350 
L 344 2156 
z
" transform="scale(0.015625)"/>
      <path id="DejaVuSans-Bold-53" d="M 1656 506 
L 1656 -1331 
L 538 -1331 
L 538 3500 
L 1656 3500 
L 1656 2988 
Q 1888 3294 2169 3439 
Q 2450 3584 2816 3584 
Q 3463 3584 3878 3070 
Q 4294 2556 4294 1747 
Q 4294 938 3878 423 
Q 3463 -91 2816 -91 
Q 2450 -91 2169 54 
Q 1888 200 1656 506 
z
M 2400 2772 
Q 2041 2772 1848 2508 
Q 1656 2244 1656 1747 
Q 1656 1250 1848 986 
Q 2041 722 2400 722 
Q 2759 722 2948 984 
Q 3138 1247 3138 1747 
Q 3138 2247 2948 2509 
Q 2759 2772 2400 2772 
z
" transform="scale(0.015625)"/>
      <path id="DejaVuSans-Bold-48" d="M 4031 1759 
L 4031 1441 
L 1416 1441 
Q 1456 1047 1700 850 
Q 1944 653 2381 653 
Q 2734 653 3104 758 
Q 3475 863 3866 1075 
L 3866 213 
Q 3469 63 3072 -14 
Q 2675 -91 2278 -91 
Q 1328 -91 801 392 
Q 275 875 275 1747 
Q 275 2603 792 3093 
Q 1309 3584 2216 3584 
Q 3041 3584 3536 3087 
Q 4031 2591 4031 1759 
z
M 2881 2131 
Q 2881 2450 2695 2645 
Q 2509 2841 2209 2841 
Q 1884 2841 1681 2658 
Q 1478 2475 1428 2131 
L 2881 2131 
z
" transform="scale(0.015625)"/>
      <path id="DejaVuSans-Bold-55" d="M 3138 2547 
Q 2991 2616 2845 2648 
Q 2700 2681 2553 2681 
Q 2122 2681 1889 2404 
Q 1656 2128 1656 1613 
L 1656 0 
L 538 0 
L 538 3500 
L 1656 3500 
L 1656 2925 
Q 1872 3269 2151 3426 
Q 2431 3584 2822 3584 
Q 2878 3584 2943 3579 
Q 3009 3575 3134 3559 
L 3138 2547 
z
" transform="scale(0.015625)"/>
      <path id="DejaVuSans-Bold-10" d="M 347 2297 
L 2309 2297 
L 2309 1388 
L 347 1388 
L 347 2297 
z
" transform="scale(0.015625)"/>
      <path id="DejaVuSans-Bold-57" d="M 1759 4494 
L 1759 3500 
L 2913 3500 
L 2913 2700 
L 1759 2700 
L 1759 1216 
Q 1759 972 1856 886 
Q 1953 800 2241 800 
L 2816 800 
L 2816 0 
L 1856 0 
Q 1194 0 917 276 
Q 641 553 641 1216 
L 641 2700 
L 84 2700 
L 84 3500 
L 641 3500 
L 641 4494 
L 1759 4494 
z
" transform="scale(0.015625)"/>
      <path id="DejaVuSans-Bold-44" d="M 2106 1575 
Q 1756 1575 1579 1456 
Q 1403 1338 1403 1106 
Q 1403 894 1545 773 
Q 1688 653 1941 653 
Q 2256 653 2472 879 
Q 2688 1106 2688 1447 
L 2688 1575 
L 2106 1575 
z
M 3816 1997 
L 3816 0 
L 2688 0 
L 2688 519 
Q 2463 200 2181 54 
Q 1900 -91 1497 -91 
Q 953 -91 614 226 
Q 275 544 275 1050 
Q 275 1666 698 1953 
Q 1122 2241 2028 2241 
L 2688 2241 
L 2688 2328 
Q 2688 2594 2478 2717 
Q 2269 2841 1825 2841 
Q 1466 2841 1156 2769 
Q 847 2697 581 2553 
L 581 3406 
Q 941 3494 1303 3539 
Q 1666 3584 2028 3584 
Q 2975 3584 3395 3211 
Q 3816 2838 3816 1997 
z
" transform="scale(0.015625)"/>
      <path id="DejaVuSans-Bold-47" d="M 2919 2988 
L 2919 4863 
L 4044 4863 
L 4044 0 
L 2919 0 
L 2919 506 
Q 2688 197 2409 53 
Q 2131 -91 1766 -91 
Q 1119 -91 703 423 
Q 288 938 288 1747 
Q 288 2556 703 3070 
Q 1119 3584 1766 3584 
Q 2128 3584 2408 3439 
Q 2688 3294 2919 2988 
z
M 2181 722 
Q 2541 722 2730 984 
Q 2919 1247 2919 1747 
Q 2919 2247 2730 2509 
Q 2541 2772 2181 2772 
Q 1825 2772 1636 2509 
Q 1447 2247 1447 1747 
Q 1447 1247 1636 984 
Q 1825 722 2181 722 
z
" transform="scale(0.015625)"/>
      <path id="DejaVuSans-Bold-52" d="M 2203 2784 
Q 1831 2784 1636 2517 
Q 1441 2250 1441 1747 
Q 1441 1244 1636 976 
Q 1831 709 2203 709 
Q 2569 709 2762 976 
Q 2956 1244 2956 1747 
Q 2956 2250 2762 2517 
Q 2569 2784 2203 2784 
z
M 2203 3584 
Q 3106 3584 3614 3096 
Q 4122 2609 4122 1747 
Q 4122 884 3614 396 
Q 3106 -91 2203 -91 
Q 1297 -91 786 396 
Q 275 884 275 1747 
Q 275 2609 786 3096 
Q 1297 3584 2203 3584 
z
" transform="scale(0.015625)"/>
      <path id="DejaVuSans-Bold-56" d="M 3272 3391 
L 3272 2541 
Q 2913 2691 2578 2766 
Q 2244 2841 1947 2841 
Q 1628 2841 1473 2761 
Q 1319 2681 1319 2516 
Q 1319 2381 1436 2309 
Q 1553 2238 1856 2203 
L 2053 2175 
Q 2913 2066 3209 1816 
Q 3506 1566 3506 1031 
Q 3506 472 3093 190 
Q 2681 -91 1863 -91 
Q 1516 -91 1145 -36 
Q 775 19 384 128 
L 384 978 
Q 719 816 1070 734 
Q 1422 653 1784 653 
Q 2113 653 2278 743 
Q 2444 834 2444 1013 
Q 2444 1163 2330 1236 
Q 2216 1309 1875 1350 
L 1678 1375 
Q 931 1469 631 1722 
Q 331 1975 331 2491 
Q 331 3047 712 3315 
Q 1094 3584 1881 3584 
Q 2191 3584 2531 3537 
Q 2872 3491 3272 3391 
z
" transform="scale(0.015625)"/>
      <path id="DejaVuSans-Bold-4c" d="M 538 3500 
L 1656 3500 
L 1656 0 
L 538 0 
L 538 3500 
z
M 538 4863 
L 1656 4863 
L 1656 3950 
L 538 3950 
L 538 4863 
z
" transform="scale(0.015625)"/>
      <path id="DejaVuSans-Bold-51" d="M 4056 2131 
L 4056 0 
L 2931 0 
L 2931 347 
L 2931 1631 
Q 2931 2084 2911 2256 
Q 2891 2428 2841 2509 
Q 2775 2619 2662 2680 
Q 2550 2741 2406 2741 
Q 2056 2741 1856 2470 
Q 1656 2200 1656 1722 
L 1656 0 
L 538 0 
L 538 3500 
L 1656 3500 
L 1656 2988 
Q 1909 3294 2193 3439 
Q 2478 3584 2822 3584 
Q 3428 3584 3742 3212 
Q 4056 2841 4056 2131 
z
" transform="scale(0.015625)"/>
      <path id="DejaVuSans-Bold-5d" d="M 366 3500 
L 3419 3500 
L 3419 2719 
L 1575 800 
L 3419 800 
L 3419 0 
L 288 0 
L 288 781 
L 2131 2700 
L 366 2700 
L 366 3500 
z
" transform="scale(0.015625)"/>
      <path id="DejaVuSans-Bold-f" d="M 653 1209 
L 1778 1209 
L 1778 256 
L 1006 -909 
L 341 -909 
L 653 256 
L 653 1209 
z
" transform="scale(0.015625)"/>
      <path id="DejaVuSans-Bold-59" d="M 97 3500 
L 1216 3500 
L 2088 1081 
L 2956 3500 
L 4078 3500 
L 2700 0 
L 1472 0 
L 97 3500 
z
" transform="scale(0.015625)"/>
      <path id="DejaVuSans-Bold-2a" d="M 4781 347 
Q 4331 128 3847 18 
Q 3363 -91 2847 -91 
Q 1681 -91 1000 561 
Q 319 1213 319 2328 
Q 319 3456 1012 4103 
Q 1706 4750 2913 4750 
Q 3378 4750 3804 4662 
Q 4231 4575 4609 4403 
L 4609 3438 
Q 4219 3659 3833 3768 
Q 3447 3878 3059 3878 
Q 2341 3878 1952 3476 
Q 1563 3075 1563 2328 
Q 1563 1588 1938 1184 
Q 2313 781 3003 781 
Q 3191 781 3352 804 
Q 3513 828 3641 878 
L 3641 1784 
L 2906 1784 
L 2906 2591 
L 4781 2591 
L 4781 347 
z
" transform="scale(0.015625)"/>
      <path id="DejaVuSans-Bold-b" d="M 2413 -844 
L 1484 -844 
Q 1006 -72 778 623 
Q 550 1319 550 2003 
Q 550 2688 779 3389 
Q 1009 4091 1484 4856 
L 2413 4856 
Q 2013 4116 1813 3408 
Q 1613 2700 1613 2009 
Q 1613 1319 1811 609 
Q 2009 -100 2413 -844 
z
" transform="scale(0.015625)"/>
      <path id="DejaVuSans-Bold-c" d="M 513 -844 
Q 913 -100 1113 609 
Q 1313 1319 1313 2009 
Q 1313 2700 1113 3408 
Q 913 4116 513 4856 
L 1441 4856 
Q 1916 4091 2145 3389 
Q 2375 2688 2375 2003 
Q 2375 1319 2147 623 
Q 1919 -72 1441 -844 
L 513 -844 
z
" transform="scale(0.015625)"/>
     </defs>
     <use xlink:href="#DejaVuSans-Bold-36"/>
     <use xlink:href="#DejaVuSans-Bold-29" transform="translate(72.015625 0)"/>
     <use xlink:href="#DejaVuSans-Bold-15" transform="translate(140.328125 0)"/>
     <use xlink:href="#DejaVuSans-Bold-3" transform="translate(209.90625 0)"/>
     <use xlink:href="#DejaVuSans-Bold-79" transform="translate(244.71875 0)"/>
     <use xlink:href="#DejaVuSans-Bold-3" transform="translate(282.703125 0)"/>
     <use xlink:href="#DejaVuSans-Bold-35" transform="translate(317.515625 0)"/>
     <use xlink:href="#DejaVuSans-Bold-34" transform="translate(394.515625 0)"/>
     <use xlink:href="#DejaVuSans-Bold-17" transform="translate(479.53125 0)"/>
     <use xlink:href="#DejaVuSans-Bold-3" transform="translate(549.109375 0)"/>
     <use xlink:href="#DejaVuSans-Bold-af6" transform="translate(583.921875 0)"/>
     <use xlink:href="#DejaVuSans-Bold-3" transform="translate(683.921875 0)"/>
     <use xlink:href="#DejaVuSans-Bold-53" transform="translate(718.734375 0)"/>
     <use xlink:href="#DejaVuSans-Bold-48" transform="translate(790.3125 0)"/>
     <use xlink:href="#DejaVuSans-Bold-55" transform="translate(858.140625 0)"/>
     <use xlink:href="#DejaVuSans-Bold-10" transform="translate(907.453125 0)"/>
     <use xlink:href="#DejaVuSans-Bold-57" transform="translate(948.953125 0)"/>
     <use xlink:href="#DejaVuSans-Bold-55" transform="translate(996.75 0)"/>
     <use xlink:href="#DejaVuSans-Bold-44" transform="translate(1046.0625 0)"/>
     <use xlink:href="#DejaVuSans-Bold-47" transform="translate(1113.546875 0)"/>
     <use xlink:href="#DejaVuSans-Bold-48" transform="translate(1185.125 0)"/>
     <use xlink:href="#DejaVuSans-Bold-55" transform="translate(1252.953125 0)"/>
     <use xlink:href="#DejaVuSans-Bold-3" transform="translate(1302.265625 0)"/>
     <use xlink:href="#DejaVuSans-Bold-53" transform="translate(1337.078125 0)"/>
     <use xlink:href="#DejaVuSans-Bold-52" transform="translate(1408.65625 0)"/>
     <use xlink:href="#DejaVuSans-Bold-56" transform="translate(1477.359375 0)"/>
     <use xlink:href="#DejaVuSans-Bold-4c" transform="translate(1536.875 0)"/>
     <use xlink:href="#DejaVuSans-Bold-57" transform="translate(1571.15625 0)"/>
     <use xlink:href="#DejaVuSans-Bold-4c" transform="translate(1618.953125 0)"/>
     <use xlink:href="#DejaVuSans-Bold-52" transform="translate(1653.234375 0)"/>
     <use xlink:href="#DejaVuSans-Bold-51" transform="translate(1721.9375 0)"/>
     <use xlink:href="#DejaVuSans-Bold-3" transform="translate(1793.125 0)"/>
     <use xlink:href="#DejaVuSans-Bold-56" transform="translate(1827.9375 0)"/>
     <use xlink:href="#DejaVuSans-Bold-4c" transform="translate(1887.453125 0)"/>
     <use xlink:href="#DejaVuSans-Bold-5d" transform="translate(1921.734375 0)"/>
     <use xlink:href="#DejaVuSans-Bold-48" transform="translate(1979.9375 0)"/>
     <use xlink:href="#DejaVuSans-Bold-f" transform="translate(2047.765625 0)"/>
     <use xlink:href="#DejaVuSans-Bold-3" transform="translate(2085.75 0)"/>
     <use xlink:href="#DejaVuSans-Bold-29" transform="translate(2120.5625 0)"/>
     <use xlink:href="#DejaVuSans-Bold-48" transform="translate(2184.828125 0)"/>
     <use xlink:href="#DejaVuSans-Bold-44" transform="translate(2252.65625 0)"/>
     <use xlink:href="#DejaVuSans-Bold-55" transform="translate(2320.140625 0)"/>
     <use xlink:href="#DejaVuSans-Bold-3" transform="translate(2369.453125 0)"/>
     <use xlink:href="#DejaVuSans-Bold-59" transform="translate(2404.265625 0)"/>
     <use xlink:href="#DejaVuSans-Bold-56" transform="translate(2469.453125 0)"/>
     <use xlink:href="#DejaVuSans-Bold-3" transform="translate(2528.96875 0)"/>
     <use xlink:href="#DejaVuSans-Bold-2a" transform="translate(2563.78125 0)"/>
     <use xlink:href="#DejaVuSans-Bold-55" transform="translate(2645.859375 0)"/>
     <use xlink:href="#DejaVuSans-Bold-48" transform="translate(2695.171875 0)"/>
     <use xlink:href="#DejaVuSans-Bold-48" transform="translate(2763 0)"/>
     <use xlink:href="#DejaVuSans-Bold-47" transform="translate(2830.828125 0)"/>
     <use xlink:href="#DejaVuSans-Bold-3" transform="translate(2902.40625 0)"/>
     <use xlink:href="#DejaVuSans-Bold-b" transform="translate(2937.21875 0)"/>
     <use xlink:href="#DejaVuSans-Bold-53" transform="translate(2982.921875 0)"/>
     <use xlink:href="#DejaVuSans-Bold-44" transform="translate(3054.5 0)"/>
     <use xlink:href="#DejaVuSans-Bold-4c" transform="translate(3121.984375 0)"/>
     <use xlink:href="#DejaVuSans-Bold-55" transform="translate(3156.265625 0)"/>
     <use xlink:href="#DejaVuSans-Bold-48" transform="translate(3205.578125 0)"/>
     <use xlink:href="#DejaVuSans-Bold-47" transform="translate(3273.40625 0)"/>
     <use xlink:href="#DejaVuSans-Bold-c" transform="translate(3344.984375 0)"/>
    </g>
   </g>
   <g id="legend_1">
    <g id="PathCollection_3">
     <g>
      <use xlink:href="#mdf053965ce" x="384.524297" y="282.337844" style="fill: #e34948; stroke: #e34948"/>
     </g>
    </g>
    <g id="text_13">
     <!-- Fear days -->
     <g transform="translate(402.524297 284.962844) scale(0.1 -0.1)">
      <use xlink:href="#DejaVuSans-29"/>
      <use xlink:href="#DejaVuSans-48" transform="translate(52.046875 0)"/>
      <use xlink:href="#DejaVuSans-44" transform="translate(113.578125 0)"/>
      <use xlink:href="#DejaVuSans-55" transform="translate(174.859375 0)"/>
      <use xlink:href="#DejaVuSans-3" transform="translate(215.96875 0)"/>
      <use xlink:href="#DejaVuSans-47" transform="translate(247.75 0)"/>
      <use xlink:href="#DejaVuSans-44" transform="translate(311.234375 0)"/>
      <use xlink:href="#DejaVuSans-5c" transform="translate(372.515625 0)"/>
      <use xlink:href="#DejaVuSans-56" transform="translate(431.703125 0)"/>
     </g>
    </g>
    <g id="PathCollection_4">
     <g>
      <use xlink:href="#m4b81499a77" x="384.524297" y="297.338625" style="fill: #008300; stroke: #008300"/>
     </g>
    </g>
    <g id="text_14">
     <!-- Greed days -->
     <g transform="translate(402.524297 299.963625) scale(0.1 -0.1)">
      <defs>
       <path id="DejaVuSans-2a" d="M 3809 666 
L 3809 1919 
L 2778 1919 
L 2778 2438 
L 4434 2438 
L 4434 434 
Q 4069 175 3628 42 
Q 3188 -91 2688 -91 
Q 1594 -91 976 548 
Q 359 1188 359 2328 
Q 359 3472 976 4111 
Q 1594 4750 2688 4750 
Q 3144 4750 3555 4637 
Q 3966 4525 4313 4306 
L 4313 3634 
Q 3963 3931 3569 4081 
Q 3175 4231 2741 4231 
Q 1884 4231 1454 3753 
Q 1025 3275 1025 2328 
Q 1025 1384 1454 906 
Q 1884 428 2741 428 
Q 3075 428 3337 486 
Q 3600 544 3809 666 
z
" transform="scale(0.015625)"/>
      </defs>
      <use xlink:href="#DejaVuSans-2a"/>
      <use xlink:href="#DejaVuSans-55" transform="translate(77.484375 0)"/>
      <use xlink:href="#DejaVuSans-48" transform="translate(116.390625 0)"/>
      <use xlink:href="#DejaVuSans-48" transform="translate(177.921875 0)"/>
      <use xlink:href="#DejaVuSans-47" transform="translate(239.453125 0)"/>
      <use xlink:href="#DejaVuSans-3" transform="translate(302.9375 0)"/>
      <use xlink:href="#DejaVuSans-47" transform="translate(334.71875 0)"/>
      <use xlink:href="#DejaVuSans-44" transform="translate(398.203125 0)"/>
      <use xlink:href="#DejaVuSans-5c" transform="translate(459.484375 0)"/>
      <use xlink:href="#DejaVuSans-56" transform="translate(518.671875 0)"/>
     </g>
    </g>
   </g>
  </g>
 </g>
 <defs>
  <clipPath id="p764dbdf425">
   <rect x="22.200859" y="23.077969" width="446.4" height="288.288"/>
  </clipPath>
 </defs>
</svg>
