<?xml version="1.0" encoding="utf-8" standalone="no"?>
<!DOCTYPE svg PUBLIC "-//W3C//DTD SVG 1.1//EN"
  "http://www.w3.org/Graphics/SVG/1.1/DTD/svg11.dtd">
<svg xmlns:xlink="http://www.w3.org/1999/xlink" width="615.397109pt" height="281.125969pt" viewBox="0 0 615.397109 281.125969" xmlns="http://www.w3.org/2000/svg" version="1.1">
 <metadata>
  <rdf:RDF xmlns:dc="http://purl.org/dc/elements/1.1/" xmlns:cc="http://creativecommons.org/ns#" xmlns:rdf="http://www.w3.org/1999/02/22-rdf-syntax-ns#">
   <cc:Work>
    <dc:type rdf:resource="http://purl.org/dc/dcmitype/StillImage"/>
    <dc:date>2026-07-03T10:37:30.931473</dc:date>
    <dc:format>image/svg+xml</dc:format>
    <dc:creator>
     <cc:Agent>
      <dc:title>Matplotlib v3.11.0, https://matplotlib.org/</dc:title>
     </cc:Agent>
    </dc:creator>
   </cc:Work>
  </rdf:RDF>
 </metadata>
 <defs>
  <style type="text/css">*{stroke-linejoin: round; stroke-linecap: butt}</style>
 </defs>
 <g id="figure_1">
  <g id="patch_1">
   <path d="M 0 281.125969 
L 615.397109 281.125969 
L 615.397109 0 
L 0 0 
z
" style="fill: #fcfcfb"/>
  </g>
  <g id="axes_1">
   <g id="patch_2">
    <path d="M 50.197109 255.925969 
L 608.197109 255.925969 
L 608.197109 23.077969 
L 50.197109 23.077969 
z
" style="fill: #fcfcfb"/>
   </g>
   <g id="line2d_1">
    <path d="M 50.197109 197.713969 
L 608.197109 197.713969 
" clip-path="url(#p4fd1b283f5)" style="fill: none; stroke-dasharray: 2.96,1.28; stroke-dashoffset: 0; stroke: #e1e0d9; stroke-width: 0.8"/>
   </g>
   <g id="line2d_2">
    <path d="M 50.197109 151.144369 
L 608.197109 151.144369 
" clip-path="url(#p4fd1b283f5)" style="fill: none; stroke-dasharray: 2.96,1.28; stroke-dashoffset: 0; stroke: #e1e0d9; stroke-width: 0.8"/>
   </g>
   <g id="line2d_3">
    <path d="M 50.197109 127.859569 
L 608.197109 127.859569 
" clip-path="url(#p4fd1b283f5)" style="fill: none; stroke-dasharray: 2.96,1.28; stroke-dashoffset: 0; stroke: #e1e0d9; stroke-width: 0.8"/>
   </g>
   <g id="line2d_4">
    <path d="M 50.197109 81.289969 
L 608.197109 81.289969 
" clip-path="url(#p4fd1b283f5)" style="fill: none; stroke-dasharray: 2.96,1.28; stroke-dashoffset: 0; stroke: #e1e0d9; stroke-width: 0.8"/>
   </g>
   <g id="patch_3">
    <path d="M 442.360897 255.925969 
L 582.641832 255.925969 
L 582.641832 23.077969 
L 442.360897 23.077969 
z
" clip-path="url(#p4fd1b283f5)" style="fill: #eb6834; opacity: 0.1"/>
   </g>
   <g id="matplotlib.axis_1">
    <g id="xtick_1">
     <g id="line2d_5">
      <path d="M 69.619886 255.925969 
L 69.619886 23.077969 
" clip-path="url(#p4fd1b283f5)" style="fill: none; stroke: #e1e0d9; stroke-width: 0.8; stroke-linecap: square"/>
     </g>
     <g id="line2d_6">
      <defs>
       <path id="m3413b012dd" d="M 0 0 
L 0 3.5 
" style="stroke: #898781; stroke-width: 0.8"/>
      </defs>
      <g>
       <use xlink:href="#m3413b012dd" x="69.619886" y="255.925969" style="fill: #898781; stroke: #898781; stroke-width: 0.8"/>
      </g>
     </g>
     <g id="text_1">
      <!-- 2018 -->
      <g style="fill: #52514e" transform="translate(55.622386 271.283391) scale(0.11 -0.11)">
       <defs>
        <path id="DejaVuSans-15" d="M 1228 531 
L 3431 531 
L 3431 0 
L 469 0 
L 469 531 
Q 828 903 1448 1529 
Q 2069 2156 2228 2338 
Q 2531 2678 2651 2914 
Q 2772 3150 2772 3378 
Q 2772 3750 2511 3984 
Q 2250 4219 1831 4219 
Q 1534 4219 1204 4116 
Q 875 4013 500 3803 
L 500 4441 
Q 881 4594 1212 4672 
Q 1544 4750 1819 4750 
Q 2544 4750 2975 4387 
Q 3406 4025 3406 3419 
Q 3406 3131 3298 2873 
Q 3191 2616 2906 2266 
Q 2828 2175 2409 1742 
Q 1991 1309 1228 531 
z
" transform="scale(0.015625)"/>
        <path id="DejaVuSans-13" d="M 2034 4250 
Q 1547 4250 1301 3770 
Q 1056 3291 1056 2328 
Q 1056 1369 1301 889 
Q 1547 409 2034 409 
Q 2525 409 2770 889 
Q 3016 1369 3016 2328 
Q 3016 3291 2770 3770 
Q 2525 4250 2034 4250 
z
M 2034 4750 
Q 2819 4750 3233 4129 
Q 3647 3509 3647 2328 
Q 3647 1150 3233 529 
Q 2819 -91 2034 -91 
Q 1250 -91 836 529 
Q 422 1150 422 2328 
Q 422 3509 836 4129 
Q 1250 4750 2034 4750 
z
" transform="scale(0.015625)"/>
        <path id="DejaVuSans-14" d="M 794 531 
L 1825 531 
L 1825 4091 
L 703 3866 
L 703 4441 
L 1819 4666 
L 2450 4666 
L 2450 531 
L 3481 531 
L 3481 0 
L 794 0 
L 794 531 
z
" transform="scale(0.015625)"/>
        <path id="DejaVuSans-1b" d="M 2034 2216 
Q 1584 2216 1326 1975 
Q 1069 1734 1069 1313 
Q 1069 891 1326 650 
Q 1584 409 2034 409 
Q 2484 409 2743 651 
Q 3003 894 3003 1313 
Q 3003 1734 2745 1975 
Q 2488 2216 2034 2216 
z
M 1403 2484 
Q 997 2584 770 2862 
Q 544 3141 544 3541 
Q 544 4100 942 4425 
Q 1341 4750 2034 4750 
Q 2731 4750 3128 4425 
Q 3525 4100 3525 3541 
Q 3525 3141 3298 2862 
Q 3072 2584 2669 2484 
Q 3125 2378 3379 2068 
Q 3634 1759 3634 1313 
Q 3634 634 3220 271 
Q 2806 -91 2034 -91 
Q 1263 -91 848 271 
Q 434 634 434 1313 
Q 434 1759 690 2068 
Q 947 2378 1403 2484 
z
M 1172 3481 
Q 1172 3119 1398 2916 
Q 1625 2713 2034 2713 
Q 2441 2713 2670 2916 
Q 2900 3119 2900 3481 
Q 2900 3844 2670 4047 
Q 2441 4250 2034 4250 
Q 1625 4250 1398 4047 
Q 1172 3844 1172 3481 
z
" transform="scale(0.015625)"/>
       </defs>
       <use xlink:href="#DejaVuSans-15"/>
       <use xlink:href="#DejaVuSans-13" transform="translate(63.625 0)"/>
       <use xlink:href="#DejaVuSans-14" transform="translate(127.25 0)"/>
       <use xlink:href="#DejaVuSans-1b" transform="translate(190.875 0)"/>
      </g>
     </g>
    </g>
    <g id="xtick_2">
     <g id="line2d_7">
      <path d="M 139.568714 255.925969 
L 139.568714 23.077969 
" clip-path="url(#p4fd1b283f5)" style="fill: none; stroke: #e1e0d9; stroke-width: 0.8; stroke-linecap: square"/>
     </g>
     <g id="line2d_8">
      <g>
       <use xlink:href="#m3413b012dd" x="139.568714" y="255.925969" style="fill: #898781; stroke: #898781; stroke-width: 0.8"/>
      </g>
     </g>
     <g id="text_2">
      <!-- 2019 -->
      <g style="fill: #52514e" transform="translate(125.571214 271.283391) scale(0.11 -0.11)">
       <defs>
        <path id="DejaVuSans-1c" d="M 703 97 
L 703 672 
Q 941 559 1184 500 
Q 1428 441 1663 441 
Q 2288 441 2617 861 
Q 2947 1281 2994 2138 
Q 2813 1869 2534 1725 
Q 2256 1581 1919 1581 
Q 1219 1581 811 2004 
Q 403 2428 403 3163 
Q 403 3881 828 4315 
Q 1253 4750 1959 4750 
Q 2769 4750 3195 4129 
Q 3622 3509 3622 2328 
Q 3622 1225 3098 567 
Q 2575 -91 1691 -91 
Q 1453 -91 1209 -44 
Q 966 3 703 97 
z
M 1959 2075 
Q 2384 2075 2632 2365 
Q 2881 2656 2881 3163 
Q 2881 3666 2632 3958 
Q 2384 4250 1959 4250 
Q 1534 4250 1286 3958 
Q 1038 3666 1038 3163 
Q 1038 2656 1286 2365 
Q 1534 2075 1959 2075 
z
" transform="scale(0.015625)"/>
       </defs>
       <use xlink:href="#DejaVuSans-15"/>
       <use xlink:href="#DejaVuSans-13" transform="translate(63.625 0)"/>
       <use xlink:href="#DejaVuSans-14" transform="translate(127.25 0)"/>
       <use xlink:href="#DejaVuSans-1c" transform="translate(190.875 0)"/>
      </g>
     </g>
    </g>
    <g id="xtick_3">
     <g id="line2d_9">
      <path d="M 209.517541 255.925969 
L 209.517541 23.077969 
" clip-path="url(#p4fd1b283f5)" style="fill: none; stroke: #e1e0d9; stroke-width: 0.8; stroke-linecap: square"/>
     </g>
     <g id="line2d_10">
      <g>
       <use xlink:href="#m3413b012dd" x="209.517541" y="255.925969" style="fill: #898781; stroke: #898781; stroke-width: 0.8"/>
      </g>
     </g>
     <g id="text_3">
      <!-- 2020 -->
      <g style="fill: #52514e" transform="translate(195.520041 271.283391) scale(0.11 -0.11)">
       <use xlink:href="#DejaVuSans-15"/>
       <use xlink:href="#DejaVuSans-13" transform="translate(63.625 0)"/>
       <use xlink:href="#DejaVuSans-15" transform="translate(127.25 0)"/>
       <use xlink:href="#DejaVuSans-13" transform="translate(190.875 0)"/>
      </g>
     </g>
    </g>
    <g id="xtick_4">
     <g id="line2d_11">
      <path d="M 279.658009 255.925969 
L 279.658009 23.077969 
" clip-path="url(#p4fd1b283f5)" style="fill: none; stroke: #e1e0d9; stroke-width: 0.8; stroke-linecap: square"/>
     </g>
     <g id="line2d_12">
      <g>
       <use xlink:href="#m3413b012dd" x="279.658009" y="255.925969" style="fill: #898781; stroke: #898781; stroke-width: 0.8"/>
      </g>
     </g>
     <g id="text_4">
      <!-- 2021 -->
      <g style="fill: #52514e" transform="translate(265.660509 271.283391) scale(0.11 -0.11)">
       <use xlink:href="#DejaVuSans-15"/>
       <use xlink:href="#DejaVuSans-13" transform="translate(63.625 0)"/>
       <use xlink:href="#DejaVuSans-15" transform="translate(127.25 0)"/>
       <use xlink:href="#DejaVuSans-14" transform="translate(190.875 0)"/>
      </g>
     </g>
    </g>
    <g id="xtick_5">
     <g id="line2d_13">
      <path d="M 349.606836 255.925969 
L 349.606836 23.077969 
" clip-path="url(#p4fd1b283f5)" style="fill: none; stroke: #e1e0d9; stroke-width: 0.8; stroke-linecap: square"/>
     </g>
     <g id="line2d_14">
      <g>
       <use xlink:href="#m3413b012dd" x="349.606836" y="255.925969" style="fill: #898781; stroke: #898781; stroke-width: 0.8"/>
      </g>
     </g>
     <g id="text_5">
      <!-- 2022 -->
      <g style="fill: #52514e" transform="translate(335.609336 271.283391) scale(0.11 -0.11)">
       <use xlink:href="#DejaVuSans-15"/>
       <use xlink:href="#DejaVuSans-13" transform="translate(63.625 0)"/>
       <use xlink:href="#DejaVuSans-15" transform="translate(127.25 0)"/>
       <use xlink:href="#DejaVuSans-15" transform="translate(190.875 0)"/>
      </g>
     </g>
    </g>
    <g id="xtick_6">
     <g id="line2d_15">
      <path d="M 419.555663 255.925969 
L 419.555663 23.077969 
" clip-path="url(#p4fd1b283f5)" style="fill: none; stroke: #e1e0d9; stroke-width: 0.8; stroke-linecap: square"/>
     </g>
     <g id="line2d_16">
      <g>
       <use xlink:href="#m3413b012dd" x="419.555663" y="255.925969" style="fill: #898781; stroke: #898781; stroke-width: 0.8"/>
      </g>
     </g>
     <g id="text_6">
      <!-- 2023 -->
      <g style="fill: #52514e" transform="translate(405.558163 271.283391) scale(0.11 -0.11)">
       <defs>
        <path id="DejaVuSans-16" d="M 2597 2516 
Q 3050 2419 3304 2112 
Q 3559 1806 3559 1356 
Q 3559 666 3084 287 
Q 2609 -91 1734 -91 
Q 1441 -91 1130 -33 
Q 819 25 488 141 
L 488 750 
Q 750 597 1062 519 
Q 1375 441 1716 441 
Q 2309 441 2620 675 
Q 2931 909 2931 1356 
Q 2931 1769 2642 2001 
Q 2353 2234 1838 2234 
L 1294 2234 
L 1294 2753 
L 1863 2753 
Q 2328 2753 2575 2939 
Q 2822 3125 2822 3475 
Q 2822 3834 2567 4026 
Q 2313 4219 1838 4219 
Q 1578 4219 1281 4162 
Q 984 4106 628 3988 
L 628 4550 
Q 988 4650 1302 4700 
Q 1616 4750 1894 4750 
Q 2613 4750 3031 4423 
Q 3450 4097 3450 3541 
Q 3450 3153 3228 2886 
Q 3006 2619 2597 2516 
z
" transform="scale(0.015625)"/>
       </defs>
       <use xlink:href="#DejaVuSans-15"/>
       <use xlink:href="#DejaVuSans-13" transform="translate(63.625 0)"/>
       <use xlink:href="#DejaVuSans-15" transform="translate(127.25 0)"/>
       <use xlink:href="#DejaVuSans-16" transform="translate(190.875 0)"/>
      </g>
     </g>
    </g>
    <g id="xtick_7">
     <g id="line2d_17">
      <path d="M 489.50449 255.925969 
L 489.50449 23.077969 
" clip-path="url(#p4fd1b283f5)" style="fill: none; stroke: #e1e0d9; stroke-width: 0.8; stroke-linecap: square"/>
     </g>
     <g id="line2d_18">
      <g>
       <use xlink:href="#m3413b012dd" x="489.50449" y="255.925969" style="fill: #898781; stroke: #898781; stroke-width: 0.8"/>
      </g>
     </g>
     <g id="text_7">
      <!-- 2024 -->
      <g style="fill: #52514e" transform="translate(475.50699 271.283391) scale(0.11 -0.11)">
       <defs>
        <path id="DejaVuSans-17" d="M 2419 4116 
L 825 1625 
L 2419 1625 
L 2419 4116 
z
M 2253 4666 
L 3047 4666 
L 3047 1625 
L 3713 1625 
L 3713 1100 
L 3047 1100 
L 3047 0 
L 2419 0 
L 2419 1100 
L 313 1100 
L 313 1709 
L 2253 4666 
z
" transform="scale(0.015625)"/>
       </defs>
       <use xlink:href="#DejaVuSans-15"/>
       <use xlink:href="#DejaVuSans-13" transform="translate(63.625 0)"/>
       <use xlink:href="#DejaVuSans-15" transform="translate(127.25 0)"/>
       <use xlink:href="#DejaVuSans-17" transform="translate(190.875 0)"/>
      </g>
     </g>
    </g>
    <g id="xtick_8">
     <g id="line2d_19">
      <path d="M 559.644958 255.925969 
L 559.644958 23.077969 
" clip-path="url(#p4fd1b283f5)" style="fill: none; stroke: #e1e0d9; stroke-width: 0.8; stroke-linecap: square"/>
     </g>
     <g id="line2d_20">
      <g>
       <use xlink:href="#m3413b012dd" x="559.644958" y="255.925969" style="fill: #898781; stroke: #898781; stroke-width: 0.8"/>
      </g>
     </g>
     <g id="text_8">
      <!-- 2025 -->
      <g style="fill: #52514e" transform="translate(545.647458 271.283391) scale(0.11 -0.11)">
       <defs>
        <path id="DejaVuSans-18" d="M 691 4666 
L 3169 4666 
L 3169 4134 
L 1269 4134 
L 1269 2991 
Q 1406 3038 1543 3061 
Q 1681 3084 1819 3084 
Q 2600 3084 3056 2656 
Q 3513 2228 3513 1497 
Q 3513 744 3044 326 
Q 2575 -91 1722 -91 
Q 1428 -91 1123 -41 
Q 819 9 494 109 
L 494 744 
Q 775 591 1075 516 
Q 1375 441 1709 441 
Q 2250 441 2565 725 
Q 2881 1009 2881 1497 
Q 2881 1984 2565 2268 
Q 2250 2553 1709 2553 
Q 1456 2553 1204 2497 
Q 953 2441 691 2322 
L 691 4666 
z
" transform="scale(0.015625)"/>
       </defs>
       <use xlink:href="#DejaVuSans-15"/>
       <use xlink:href="#DejaVuSans-13" transform="translate(63.625 0)"/>
       <use xlink:href="#DejaVuSans-15" transform="translate(127.25 0)"/>
       <use xlink:href="#DejaVuSans-18" transform="translate(190.875 0)"/>
      </g>
     </g>
    </g>
   </g>
   <g id="matplotlib.axis_2">
    <g id="ytick_1">
     <g id="line2d_21">
      <path d="M 50.197109 255.925969 
L 608.197109 255.925969 
" clip-path="url(#p4fd1b283f5)" style="fill: none; stroke: #e1e0d9; stroke-width: 0.8; stroke-linecap: square"/>
     </g>
     <g id="line2d_22">
      <defs>
       <path id="m8ff1f13f69" d="M 0 0 
L -3.5 0 
" style="stroke: #898781; stroke-width: 0.8"/>
      </defs>
      <g>
       <use xlink:href="#m8ff1f13f69" x="50.197109" y="255.925969" style="fill: #898781; stroke: #898781; stroke-width: 0.8"/>
      </g>
     </g>
     <g id="text_9">
      <!-- 0 -->
      <g style="fill: #52514e" transform="translate(36.198359 260.10468) scale(0.11 -0.11)">
       <use xlink:href="#DejaVuSans-13"/>
      </g>
     </g>
    </g>
    <g id="ytick_2">
     <g id="line2d_23">
      <path d="M 50.197109 209.356369 
L 608.197109 209.356369 
" clip-path="url(#p4fd1b283f5)" style="fill: none; stroke: #e1e0d9; stroke-width: 0.8; stroke-linecap: square"/>
     </g>
     <g id="line2d_24">
      <g>
       <use xlink:href="#m8ff1f13f69" x="50.197109" y="209.356369" style="fill: #898781; stroke: #898781; stroke-width: 0.8"/>
      </g>
     </g>
     <g id="text_10">
      <!-- 20 -->
      <g style="fill: #52514e" transform="translate(29.199609 213.53508) scale(0.11 -0.11)">
       <use xlink:href="#DejaVuSans-15"/>
       <use xlink:href="#DejaVuSans-13" transform="translate(63.625 0)"/>
      </g>
     </g>
    </g>
    <g id="ytick_3">
     <g id="line2d_25">
      <path d="M 50.197109 162.786769 
L 608.197109 162.786769 
" clip-path="url(#p4fd1b283f5)" style="fill: none; stroke: #e1e0d9; stroke-width: 0.8; stroke-linecap: square"/>
     </g>
     <g id="line2d_26">
      <g>
       <use xlink:href="#m8ff1f13f69" x="50.197109" y="162.786769" style="fill: #898781; stroke: #898781; stroke-width: 0.8"/>
      </g>
     </g>
     <g id="text_11">
      <!-- 40 -->
      <g style="fill: #52514e" transform="translate(29.199609 166.96548) scale(0.11 -0.11)">
       <use xlink:href="#DejaVuSans-17"/>
       <use xlink:href="#DejaVuSans-13" transform="translate(63.625 0)"/>
      </g>
     </g>
    </g>
    <g id="ytick_4">
     <g id="line2d_27">
      <path d="M 50.197109 116.217169 
L 608.197109 116.217169 
" clip-path="url(#p4fd1b283f5)" style="fill: none; stroke: #e1e0d9; stroke-width: 0.8; stroke-linecap: square"/>
     </g>
     <g id="line2d_28">
      <g>
       <use xlink:href="#m8ff1f13f69" x="50.197109" y="116.217169" style="fill: #898781; stroke: #898781; stroke-width: 0.8"/>
      </g>
     </g>
     <g id="text_12">
      <!-- 60 -->
      <g style="fill: #52514e" transform="translate(29.199609 120.39588) scale(0.11 -0.11)">
       <defs>
        <path id="DejaVuSans-19" d="M 2113 2584 
Q 1688 2584 1439 2293 
Q 1191 2003 1191 1497 
Q 1191 994 1439 701 
Q 1688 409 2113 409 
Q 2538 409 2786 701 
Q 3034 994 3034 1497 
Q 3034 2003 2786 2293 
Q 2538 2584 2113 2584 
z
M 3366 4563 
L 3366 3988 
Q 3128 4100 2886 4159 
Q 2644 4219 2406 4219 
Q 1781 4219 1451 3797 
Q 1122 3375 1075 2522 
Q 1259 2794 1537 2939 
Q 1816 3084 2150 3084 
Q 2853 3084 3261 2657 
Q 3669 2231 3669 1497 
Q 3669 778 3244 343 
Q 2819 -91 2113 -91 
Q 1303 -91 875 529 
Q 447 1150 447 2328 
Q 447 3434 972 4092 
Q 1497 4750 2381 4750 
Q 2619 4750 2861 4703 
Q 3103 4656 3366 4563 
z
" transform="scale(0.015625)"/>
       </defs>
       <use xlink:href="#DejaVuSans-19"/>
       <use xlink:href="#DejaVuSans-13" transform="translate(63.625 0)"/>
      </g>
     </g>
    </g>
    <g id="ytick_5">
     <g id="line2d_29">
      <path d="M 50.197109 69.647569 
L 608.197109 69.647569 
" clip-path="url(#p4fd1b283f5)" style="fill: none; stroke: #e1e0d9; stroke-width: 0.8; stroke-linecap: square"/>
     </g>
     <g id="line2d_30">
      <g>
       <use xlink:href="#m8ff1f13f69" x="50.197109" y="69.647569" style="fill: #898781; stroke: #898781; stroke-width: 0.8"/>
      </g>
     </g>
     <g id="text_13">
      <!-- 80 -->
      <g style="fill: #52514e" transform="translate(29.199609 73.82628) scale(0.11 -0.11)">
       <use xlink:href="#DejaVuSans-1b"/>
       <use xlink:href="#DejaVuSans-13" transform="translate(63.625 0)"/>
      </g>
     </g>
    </g>
    <g id="ytick_6">
     <g id="line2d_31">
      <path d="M 50.197109 23.077969 
L 608.197109 23.077969 
" clip-path="url(#p4fd1b283f5)" style="fill: none; stroke: #e1e0d9; stroke-width: 0.8; stroke-linecap: square"/>
     </g>
     <g id="line2d_32">
      <g>
       <use xlink:href="#m8ff1f13f69" x="50.197109" y="23.077969" style="fill: #898781; stroke: #898781; stroke-width: 0.8"/>
      </g>
     </g>
     <g id="text_14">
      <!-- 100 -->
      <g style="fill: #52514e" transform="translate(22.200859 27.25668) scale(0.11 -0.11)">
       <use xlink:href="#DejaVuSans-14"/>
       <use xlink:href="#DejaVuSans-13" transform="translate(63.625 0)"/>
       <use xlink:href="#DejaVuSans-13" transform="translate(127.25 0)"/>
      </g>
     </g>
    </g>
    <g id="text_15">
     <!-- Index value (0–100) -->
     <g style="fill: #52514e" transform="translate(15.558281 194.203766) rotate(-90) scale(0.11 -0.11)">
      <defs>
       <path id="DejaVuSans-2c" d="M 628 4666 
L 1259 4666 
L 1259 0 
L 628 0 
L 628 4666 
z
" transform="scale(0.015625)"/>
       <path id="DejaVuSans-51" d="M 3513 2113 
L 3513 0 
L 2938 0 
L 2938 2094 
Q 2938 2591 2744 2837 
Q 2550 3084 2163 3084 
Q 1697 3084 1428 2787 
Q 1159 2491 1159 1978 
L 1159 0 
L 581 0 
L 581 3500 
L 1159 3500 
L 1159 2956 
Q 1366 3272 1645 3428 
Q 1925 3584 2291 3584 
Q 2894 3584 3203 3211 
Q 3513 2838 3513 2113 
z
" transform="scale(0.015625)"/>
       <path id="DejaVuSans-47" d="M 2906 2969 
L 2906 4863 
L 3481 4863 
L 3481 0 
L 2906 0 
L 2906 525 
Q 2725 213 2448 61 
Q 2172 -91 1784 -91 
Q 1150 -91 751 415 
Q 353 922 353 1747 
Q 353 2572 751 3078 
Q 1150 3584 1784 3584 
Q 2172 3584 2448 3432 
Q 2725 3281 2906 2969 
z
M 947 1747 
Q 947 1113 1208 752 
Q 1469 391 1925 391 
Q 2381 391 2643 752 
Q 2906 1113 2906 1747 
Q 2906 2381 2643 2742 
Q 2381 3103 1925 3103 
Q 1469 3103 1208 2742 
Q 947 2381 947 1747 
z
" transform="scale(0.015625)"/>
       <path id="DejaVuSans-48" d="M 3597 1894 
L 3597 1613 
L 953 1613 
Q 991 1019 1311 708 
Q 1631 397 2203 397 
Q 2534 397 2845 478 
Q 3156 559 3463 722 
L 3463 178 
Q 3153 47 2828 -22 
Q 2503 -91 2169 -91 
Q 1331 -91 842 396 
Q 353 884 353 1716 
Q 353 2575 817 3079 
Q 1281 3584 2069 3584 
Q 2775 3584 3186 3129 
Q 3597 2675 3597 1894 
z
M 3022 2063 
Q 3016 2534 2758 2815 
Q 2500 3097 2075 3097 
Q 1594 3097 1305 2825 
Q 1016 2553 972 2059 
L 3022 2063 
z
" transform="scale(0.015625)"/>
       <path id="DejaVuSans-5b" d="M 3513 3500 
L 2247 1797 
L 3578 0 
L 2900 0 
L 1881 1375 
L 863 0 
L 184 0 
L 1544 1831 
L 300 3500 
L 978 3500 
L 1906 2253 
L 2834 3500 
L 3513 3500 
z
" transform="scale(0.015625)"/>
       <path id="DejaVuSans-3" transform="scale(0.015625)"/>
       <path id="DejaVuSans-59" d="M 191 3500 
L 800 3500 
L 1894 563 
L 2988 3500 
L 3597 3500 
L 2284 0 
L 1503 0 
L 191 3500 
z
" transform="scale(0.015625)"/>
       <path id="DejaVuSans-44" d="M 2194 1759 
Q 1497 1759 1228 1600 
Q 959 1441 959 1056 
Q 959 750 1161 570 
Q 1363 391 1709 391 
Q 2188 391 2477 730 
Q 2766 1069 2766 1631 
L 2766 1759 
L 2194 1759 
z
M 3341 1997 
L 3341 0 
L 2766 0 
L 2766 531 
Q 2569 213 2275 61 
Q 1981 -91 1556 -91 
Q 1019 -91 701 211 
Q 384 513 384 1019 
Q 384 1609 779 1909 
Q 1175 2209 1959 2209 
L 2766 2209 
L 2766 2266 
Q 2766 2663 2505 2880 
Q 2244 3097 1772 3097 
Q 1472 3097 1187 3025 
Q 903 2953 641 2809 
L 641 3341 
Q 956 3463 1253 3523 
Q 1550 3584 1831 3584 
Q 2591 3584 2966 3190 
Q 3341 2797 3341 1997 
z
" transform="scale(0.015625)"/>
       <path id="DejaVuSans-4f" d="M 603 4863 
L 1178 4863 
L 1178 0 
L 603 0 
L 603 4863 
z
" transform="scale(0.015625)"/>
       <path id="DejaVuSans-58" d="M 544 1381 
L 544 3500 
L 1119 3500 
L 1119 1403 
Q 1119 906 1312 657 
Q 1506 409 1894 409 
Q 2359 409 2629 706 
Q 2900 1003 2900 1516 
L 2900 3500 
L 3475 3500 
L 3475 0 
L 2900 0 
L 2900 538 
Q 2691 219 2414 64 
Q 2138 -91 1772 -91 
Q 1169 -91 856 284 
Q 544 659 544 1381 
z
M 1991 3584 
L 1991 3584 
z
" transform="scale(0.015625)"/>
       <path id="DejaVuSans-b" d="M 1984 4856 
Q 1566 4138 1362 3434 
Q 1159 2731 1159 2009 
Q 1159 1288 1364 580 
Q 1569 -128 1984 -844 
L 1484 -844 
Q 1016 -109 783 600 
Q 550 1309 550 2009 
Q 550 2706 781 3412 
Q 1013 4119 1484 4856 
L 1984 4856 
z
" transform="scale(0.015625)"/>
       <path id="DejaVuSans-af5" d="M 313 1978 
L 2888 1978 
L 2888 1528 
L 313 1528 
L 313 1978 
z
" transform="scale(0.015625)"/>
       <path id="DejaVuSans-c" d="M 513 4856 
L 1013 4856 
Q 1481 4119 1714 3412 
Q 1947 2706 1947 2009 
Q 1947 1309 1714 600 
Q 1481 -109 1013 -844 
L 513 -844 
Q 928 -128 1133 580 
Q 1338 1288 1338 2009 
Q 1338 2731 1133 3434 
Q 928 4138 513 4856 
z
" transform="scale(0.015625)"/>
      </defs>
      <use xlink:href="#DejaVuSans-2c"/>
      <use xlink:href="#DejaVuSans-51" transform="translate(29.5 0)"/>
      <use xlink:href="#DejaVuSans-47" transform="translate(92.875 0)"/>
      <use xlink:href="#DejaVuSans-48" transform="translate(156.359375 0)"/>
      <use xlink:href="#DejaVuSans-5b" transform="translate(216.140625 0)"/>
      <use xlink:href="#DejaVuSans-3" transform="translate(275.328125 0)"/>
      <use xlink:href="#DejaVuSans-59" transform="translate(307.109375 0)"/>
      <use xlink:href="#DejaVuSans-44" transform="translate(366.296875 0)"/>
      <use xlink:href="#DejaVuSans-4f" transform="translate(427.578125 0)"/>
      <use xlink:href="#DejaVuSans-58" transform="translate(455.359375 0)"/>
      <use xlink:href="#DejaVuSans-48" transform="translate(518.734375 0)"/>
      <use xlink:href="#DejaVuSans-3" transform="translate(580.265625 0)"/>
      <use xlink:href="#DejaVuSans-b" transform="translate(612.046875 0)"/>
      <use xlink:href="#DejaVuSans-13" transform="translate(651.0625 0)"/>
      <use xlink:href="#DejaVuSans-af5" transform="translate(714.6875 0)"/>
      <use xlink:href="#DejaVuSans-14" transform="translate(764.6875 0)"/>
      <use xlink:href="#DejaVuSans-13" transform="translate(828.3125 0)"/>
      <use xlink:href="#DejaVuSans-13" transform="translate(891.9375 0)"/>
      <use xlink:href="#DejaVuSans-c" transform="translate(955.5625 0)"/>
     </g>
    </g>
   </g>
   <g id="line2d_33">
    <path d="M 75.560746 186.071569 
L 75.752386 220.998769 
L 75.944027 162.786769 
L 76.327308 230.312689 
L 76.518949 237.298129 
L 76.710589 172.100689 
L 76.90223 186.071569 
L 77.285511 130.188049 
L 77.477152 183.743089 
L 77.668793 158.129809 
L 77.860433 174.429169 
L 78.243714 90.603889 
L 78.435355 99.917809 
L 78.626996 83.618449 
L 78.818636 109.231729 
L 79.010277 99.917809 
L 79.201918 83.618449 
L 79.585199 153.472849 
L 79.776839 165.115249 
L 79.96848 183.743089 
L 80.160121 179.086129 
L 80.351761 169.772209 
L 80.543402 153.472849 
L 80.926683 167.443729 
L 81.309964 125.531089 
L 81.501605 153.472849 
L 81.693246 127.859569 
L 81.884886 118.545649 
L 82.076527 169.772209 
L 82.268168 165.115249 
L 82.459808 169.772209 
L 82.843089 162.786769 
L 83.03473 160.458289 
L 83.226371 160.458289 
L 83.418011 162.786769 
L 83.609652 181.414609 
L 83.801292 179.086129 
L 84.184574 188.400049 
L 84.376214 188.400049 
L 84.567855 169.772209 
L 84.759496 172.100689 
L 84.951136 172.100689 
L 85.142777 190.728529 
L 85.334417 181.414609 
L 85.526058 186.071569 
L 85.717699 183.743089 
L 85.909339 200.042449 
L 86.10098 200.042449 
L 86.484261 227.984209 
L 86.675902 218.670289 
L 86.867542 218.670289 
L 87.059183 230.312689 
L 87.250824 204.699409 
L 87.442464 204.699409 
L 87.634105 216.341809 
L 88.017386 209.356369 
L 88.209027 216.341809 
L 88.400667 207.027889 
L 88.592308 214.013329 
L 88.783949 209.356369 
L 88.975589 214.013329 
L 89.16723 202.370929 
L 89.933792 195.385489 
L 90.125433 200.042449 
L 90.508714 195.385489 
L 90.700355 181.414609 
L 90.891996 183.743089 
L 91.083636 190.728529 
L 91.275277 188.400049 
L 91.466917 106.903249 
L 91.658558 146.487409 
L 91.850199 127.859569 
L 92.041839 130.188049 
L 92.23348 113.888689 
L 92.616761 125.531089 
L 92.808402 134.845009 
L 93.000042 127.859569 
L 93.191683 125.531089 
L 93.574964 99.917809 
L 93.766605 125.531089 
L 93.958245 111.560209 
L 94.149886 132.516529 
L 94.341527 109.231729 
L 94.533167 160.458289 
L 94.724808 153.472849 
L 94.916449 162.786769 
L 95.29973 162.786769 
L 95.49137 181.414609 
L 95.683011 183.743089 
L 95.874652 169.772209 
L 96.066292 183.743089 
L 96.257933 181.414609 
L 96.449574 160.458289 
L 96.641214 186.071569 
L 96.832855 195.385489 
L 97.024495 193.057009 
L 97.407777 202.370929 
L 97.599417 211.684849 
L 97.791058 204.699409 
L 97.982699 218.670289 
L 98.174339 167.443729 
L 98.36598 197.713969 
L 98.55762 200.042449 
L 98.749261 193.057009 
L 98.940902 162.786769 
L 99.132542 160.458289 
L 99.324183 195.385489 
L 99.515824 158.129809 
L 99.707464 167.443729 
L 99.899105 162.786769 
L 100.090745 165.115249 
L 100.474027 220.998769 
L 100.665667 211.684849 
L 100.857308 211.684849 
L 101.048949 216.341809 
L 101.240589 195.385489 
L 101.43223 204.699409 
L 101.62387 202.370929 
L 102.390433 169.772209 
L 102.965355 220.998769 
L 103.156995 218.670289 
L 103.348636 207.027889 
L 103.540277 214.013329 
L 103.731917 209.356369 
L 103.923558 218.670289 
L 104.306839 193.057009 
L 104.49848 193.057009 
L 105.073402 169.772209 
L 105.265042 176.757649 
L 105.456683 176.757649 
L 105.648323 167.443729 
L 105.839964 165.115249 
L 106.031605 169.772209 
L 106.223245 188.400049 
L 106.414886 179.086129 
L 106.606527 188.400049 
L 106.798167 188.400049 
L 107.948011 146.487409 
L 108.139652 155.801329 
L 108.331292 148.815889 
L 108.522933 153.472849 
L 108.906214 130.188049 
L 109.097855 132.516529 
L 109.289495 146.487409 
L 109.481136 130.188049 
L 109.672777 130.188049 
L 109.864417 132.516529 
L 110.056058 144.158929 
L 110.247698 165.115249 
L 110.439339 165.115249 
L 110.63098 172.100689 
L 110.82262 183.743089 
L 111.014261 202.370929 
L 111.205901 197.713969 
L 111.397542 197.713969 
L 111.589183 202.370929 
L 111.780823 211.684849 
L 111.972464 207.027889 
L 112.164105 214.013329 
L 112.355745 214.013329 
L 112.547386 207.027889 
L 112.739026 218.670289 
L 113.122308 207.027889 
L 113.313948 211.684849 
L 113.69723 193.057009 
L 113.88887 195.385489 
L 114.080511 211.684849 
L 114.272151 207.027889 
L 114.463792 214.013329 
L 114.655433 211.684849 
L 114.847073 204.699409 
L 115.038714 211.684849 
L 115.230355 214.013329 
L 115.421995 211.684849 
L 115.613636 211.684849 
L 115.805276 204.699409 
L 115.996917 216.341809 
L 116.188558 207.027889 
L 116.380198 214.013329 
L 116.571839 211.684849 
L 116.76348 195.385489 
L 116.95512 216.341809 
L 117.146761 223.327249 
L 117.338401 216.341809 
L 117.530042 214.013329 
L 117.721683 225.655729 
L 118.104964 214.013329 
L 118.296605 223.327249 
L 118.679886 202.370929 
L 118.871526 200.042449 
L 119.063167 190.728529 
L 119.446448 207.027889 
L 119.638089 200.042449 
L 119.829729 200.042449 
L 120.213011 174.429169 
L 120.404651 167.443729 
L 120.596292 155.801329 
L 120.787933 169.772209 
L 120.979573 169.772209 
L 121.171214 158.129809 
L 121.362854 158.129809 
L 121.746136 176.757649 
L 121.937776 174.429169 
L 122.129417 179.086129 
L 122.321058 172.100689 
L 122.512698 188.400049 
L 122.704339 169.772209 
L 122.895979 176.757649 
L 123.279261 195.385489 
L 123.470901 183.743089 
L 123.662542 190.728529 
L 124.045823 225.655729 
L 124.620745 209.356369 
L 124.812386 200.042449 
L 125.004026 202.370929 
L 125.195667 195.385489 
L 125.770589 207.027889 
L 125.962229 193.057009 
L 126.15387 200.042449 
L 126.345511 202.370929 
L 126.537151 197.713969 
L 127.112073 174.429169 
L 127.303714 176.757649 
L 127.495354 183.743089 
L 127.686995 181.414609 
L 127.878636 188.400049 
L 128.070276 172.100689 
L 128.261917 172.100689 
L 128.453557 160.458289 
L 128.645198 158.129809 
L 128.836839 158.129809 
L 129.22012 137.173489 
L 129.411761 146.487409 
L 129.603401 134.845009 
L 129.795042 130.188049 
L 129.986682 134.845009 
L 130.178323 125.531089 
L 130.369964 141.830449 
L 130.561604 190.728529 
L 130.753245 202.370929 
L 130.944886 200.042449 
L 131.328167 190.728529 
L 131.711448 220.998769 
L 131.903089 223.327249 
L 132.094729 227.984209 
L 132.28637 220.998769 
L 132.478011 234.969649 
L 132.669651 216.341809 
L 132.861292 230.312689 
L 133.436214 211.684849 
L 133.627854 225.655729 
L 134.011136 216.341809 
L 134.202776 227.984209 
L 134.394417 211.684849 
L 134.586057 225.655729 
L 134.777698 230.312689 
L 134.969339 230.312689 
L 135.160979 223.327249 
L 135.35262 211.684849 
L 135.544261 220.998769 
L 135.735901 223.327249 
L 135.927542 223.327249 
L 136.119182 232.641169 
L 136.310823 230.312689 
L 136.502464 225.655729 
L 136.885745 202.370929 
L 137.077386 207.027889 
L 137.460667 174.429169 
L 137.652307 190.728529 
L 137.843948 183.743089 
L 138.035589 197.713969 
L 138.227229 179.086129 
L 138.41887 195.385489 
L 138.61051 188.400049 
L 138.802151 207.027889 
L 138.993792 200.042449 
L 139.185432 202.370929 
L 139.377073 195.385489 
L 139.568714 200.042449 
L 139.951995 179.086129 
L 140.143635 144.158929 
L 140.335276 172.100689 
L 140.526917 183.743089 
L 140.718557 165.115249 
L 140.910198 165.115249 
L 141.101839 158.129809 
L 141.293479 169.772209 
L 141.48512 211.684849 
L 141.67676 204.699409 
L 141.868401 207.027889 
L 142.060042 218.670289 
L 142.251682 193.057009 
L 142.443323 200.042449 
L 142.634964 190.728529 
L 142.826604 188.400049 
L 143.018245 183.743089 
L 143.209885 174.429169 
L 143.593167 193.057009 
L 143.976448 169.772209 
L 144.168089 174.429169 
L 144.359729 160.458289 
L 144.55137 165.115249 
L 144.74301 174.429169 
L 144.934651 207.027889 
L 145.126292 204.699409 
L 145.317932 216.341809 
L 145.509573 202.370929 
L 145.701214 204.699409 
L 145.892854 211.684849 
L 146.084495 193.057009 
L 146.467776 223.327249 
L 146.659417 214.013329 
L 146.851057 169.772209 
L 147.042698 158.129809 
L 147.234338 162.786769 
L 147.425979 148.815889 
L 147.61762 167.443729 
L 147.80926 144.158929 
L 148.000901 144.158929 
L 148.192542 155.801329 
L 148.384182 155.801329 
L 148.575823 167.443729 
L 148.767463 109.231729 
L 148.959104 104.574769 
L 149.150745 118.545649 
L 149.342385 118.545649 
L 149.725667 109.231729 
L 149.917307 95.260849 
L 150.108948 146.487409 
L 150.300588 162.786769 
L 150.492229 165.115249 
L 150.68387 165.115249 
L 150.87551 158.129809 
L 151.067151 160.458289 
L 151.258792 153.472849 
L 151.450432 172.100689 
L 151.642073 174.429169 
L 151.833713 158.129809 
L 152.025354 125.531089 
L 152.216995 130.188049 
L 152.408635 127.859569 
L 152.600276 127.859569 
L 152.791917 125.531089 
L 152.983557 125.531089 
L 153.175198 130.188049 
L 153.366838 127.859569 
L 153.558479 127.859569 
L 153.75012 130.188049 
L 153.94176 120.874129 
L 154.133401 125.531089 
L 154.325042 125.531089 
L 154.516682 127.859569 
L 154.708323 111.560209 
L 155.283245 153.472849 
L 155.474885 148.815889 
L 155.666526 155.801329 
L 155.858166 153.472849 
L 156.049807 141.830449 
L 156.241448 139.501969 
L 156.433088 123.202609 
L 156.624729 125.531089 
L 156.81637 111.560209 
L 157.00801 116.217169 
L 157.199651 90.603889 
L 157.391291 113.888689 
L 157.582932 118.545649 
L 157.966213 95.260849 
L 158.157854 104.574769 
L 158.349495 106.903249 
L 158.541135 111.560209 
L 158.732776 104.574769 
L 158.924416 158.129809 
L 159.116057 111.560209 
L 159.307698 137.173489 
L 159.499338 116.217169 
L 159.690979 139.501969 
L 159.88262 113.888689 
L 160.07426 106.903249 
L 160.265901 113.888689 
L 160.457541 111.560209 
L 160.649182 111.560209 
L 160.840823 113.888689 
L 161.032463 97.589329 
L 161.224104 104.574769 
L 161.415745 120.874129 
L 161.607385 160.458289 
L 161.799026 158.129809 
L 161.990666 162.786769 
L 162.182307 158.129809 
L 162.373948 158.129809 
L 162.565588 137.173489 
L 162.757229 139.501969 
L 162.94887 109.231729 
L 163.14051 102.246289 
L 163.332151 99.917809 
L 163.523791 123.202609 
L 163.715432 95.260849 
L 163.907073 109.231729 
L 164.098713 95.260849 
L 164.290354 90.603889 
L 164.481994 78.961489 
L 164.673635 81.289969 
L 164.865276 74.304529 
L 165.056916 74.304529 
L 165.248557 76.633009 
L 165.440198 81.289969 
L 165.631838 104.574769 
L 166.015119 92.932369 
L 166.20676 85.946929 
L 166.398401 97.589329 
L 166.590041 95.260849 
L 166.781682 104.574769 
L 166.973323 106.903249 
L 167.164963 95.260849 
L 167.356604 99.917809 
L 167.548244 92.932369 
L 167.739885 90.603889 
L 167.931526 90.603889 
L 168.123166 85.946929 
L 168.314807 113.888689 
L 168.698088 109.231729 
L 168.889729 102.246289 
L 169.27301 193.057009 
L 169.464651 176.757649 
L 169.656291 193.057009 
L 169.847932 111.560209 
L 170.039573 111.560209 
L 170.231213 148.815889 
L 170.422854 113.888689 
L 170.614494 116.217169 
L 170.997776 99.917809 
L 171.381057 69.647569 
L 171.572698 60.333649 
L 172.147619 67.319089 
L 172.33926 60.333649 
L 172.530901 62.662129 
L 172.722541 60.333649 
L 172.914182 69.647569 
L 173.297463 34.720369 
L 173.489104 41.705809 
L 173.680744 111.560209 
L 173.872385 83.618449 
L 174.064026 74.304529 
L 174.255666 104.574769 
L 174.447307 109.231729 
L 174.638947 71.976049 
L 174.830588 78.961489 
L 175.022229 99.917809 
L 175.213869 88.275409 
L 175.40551 99.917809 
L 175.788791 60.333649 
L 175.980432 62.662129 
L 176.363713 179.086129 
L 176.555354 104.574769 
L 176.746994 113.888689 
L 176.938635 218.670289 
L 177.130276 176.757649 
L 177.321916 211.684849 
L 177.513557 162.786769 
L 177.705197 158.129809 
L 177.896838 176.757649 
L 178.088479 158.129809 
L 178.280119 158.129809 
L 178.47176 162.786769 
L 178.663401 209.356369 
L 178.855041 158.129809 
L 179.046682 200.042449 
L 179.238322 146.487409 
L 179.429963 218.670289 
L 179.813244 204.699409 
L 180.004885 183.743089 
L 180.196526 123.202609 
L 180.388166 113.888689 
L 180.579807 113.888689 
L 180.771447 111.560209 
L 181.154729 102.246289 
L 181.346369 151.144369 
L 181.53801 113.888689 
L 181.921291 118.545649 
L 182.112932 151.144369 
L 182.304572 144.158929 
L 182.496213 151.144369 
L 182.687854 230.312689 
L 182.879494 225.655729 
L 183.071135 183.743089 
L 183.454416 223.327249 
L 183.837697 165.115249 
L 184.029338 230.312689 
L 184.220979 244.283569 
L 184.412619 179.086129 
L 184.60426 165.115249 
L 184.7959 179.086129 
L 184.987541 160.458289 
L 185.179182 186.071569 
L 185.370822 181.414609 
L 185.562463 209.356369 
L 185.754104 200.042449 
L 185.945744 209.356369 
L 186.329025 190.728529 
L 186.520666 160.458289 
L 186.712307 155.801329 
L 186.903947 160.458289 
L 187.095588 155.801329 
L 187.287229 165.115249 
L 187.478869 155.801329 
L 187.67051 160.458289 
L 187.86215 160.458289 
L 188.053791 167.443729 
L 188.245432 165.115249 
L 188.437072 167.443729 
L 188.628713 165.115249 
L 188.820354 167.443729 
L 189.011994 167.443729 
L 189.203635 160.458289 
L 189.395275 167.443729 
L 189.586916 183.743089 
L 189.778557 160.458289 
L 189.970197 169.772209 
L 190.161838 169.772209 
L 190.353479 160.458289 
L 190.545119 165.115249 
L 190.73676 220.998769 
L 190.9284 227.984209 
L 191.311682 181.414609 
L 191.503322 179.086129 
L 191.694963 193.057009 
L 191.886603 167.443729 
L 192.078244 165.115249 
L 192.269885 169.772209 
L 192.461525 186.071569 
L 192.844807 181.414609 
L 193.036447 193.057009 
L 193.228088 165.115249 
L 193.419728 169.772209 
L 193.611369 160.458289 
L 193.99465 167.443729 
L 194.186291 167.443729 
L 194.377932 169.772209 
L 194.761213 162.786769 
L 195.144494 162.786769 
L 195.336135 160.458289 
L 195.527775 169.772209 
L 195.719416 169.772209 
L 195.911057 165.115249 
L 196.102697 179.086129 
L 196.294338 209.356369 
L 196.485978 200.042449 
L 196.677619 132.516529 
L 196.86926 139.501969 
L 197.252541 130.188049 
L 197.444182 132.516529 
L 197.635822 139.501969 
L 197.827463 141.830449 
L 198.019103 137.173489 
L 198.210744 125.531089 
L 198.402385 141.830449 
L 198.594025 130.188049 
L 198.785666 132.516529 
L 198.977307 130.188049 
L 199.168947 158.129809 
L 199.360588 167.443729 
L 199.743869 162.786769 
L 200.12715 167.443729 
L 200.318791 160.458289 
L 200.510431 167.443729 
L 200.702072 160.458289 
L 200.893713 167.443729 
L 201.085353 167.443729 
L 201.276994 181.414609 
L 201.468635 181.414609 
L 201.660275 186.071569 
L 201.851916 209.356369 
L 202.043556 202.370929 
L 202.235197 207.027889 
L 202.426838 216.341809 
L 202.618478 207.027889 
L 202.810119 209.356369 
L 203.00176 181.414609 
L 203.1934 183.743089 
L 203.385041 167.443729 
L 203.576681 197.713969 
L 203.768322 190.728529 
L 203.959963 190.728529 
L 204.343244 207.027889 
L 204.534885 188.400049 
L 204.726525 181.414609 
L 204.918166 190.728529 
L 205.109806 181.414609 
L 205.493088 209.356369 
L 205.684728 202.370929 
L 205.876369 204.699409 
L 206.06801 193.057009 
L 206.25965 207.027889 
L 206.451291 200.042449 
L 206.642931 202.370929 
L 206.834572 220.998769 
L 207.026213 207.027889 
L 207.217853 202.370929 
L 207.409494 202.370929 
L 207.601135 209.356369 
L 207.792775 179.086129 
L 207.984416 197.713969 
L 208.176056 204.699409 
L 208.367697 165.115249 
L 208.750978 169.772209 
L 208.942619 169.772209 
L 209.134259 162.786769 
L 209.517541 169.772209 
L 209.709181 165.115249 
L 209.900822 167.443729 
L 210.092463 167.443729 
L 210.284103 165.115249 
L 210.475744 160.458289 
L 210.667384 162.786769 
L 210.859025 137.173489 
L 211.242306 160.458289 
L 211.433947 139.501969 
L 211.625588 151.144369 
L 211.817228 141.830449 
L 212.008869 125.531089 
L 212.200509 130.188049 
L 212.39215 127.859569 
L 212.583791 130.188049 
L 212.775431 137.173489 
L 212.967072 132.516529 
L 213.158713 144.158929 
L 213.350353 141.830449 
L 213.541994 134.845009 
L 213.733634 141.830449 
L 213.925275 162.786769 
L 214.308556 158.129809 
L 214.691838 130.188049 
L 214.883478 123.202609 
L 215.075119 123.202609 
L 215.266759 127.859569 
L 215.4584 123.202609 
L 215.650041 123.202609 
L 215.841681 118.545649 
L 216.224963 132.516529 
L 216.416603 113.888689 
L 216.608244 125.531089 
L 216.991525 125.531089 
L 217.183166 123.202609 
L 217.374806 134.845009 
L 217.758087 104.574769 
L 217.949728 109.231729 
L 218.141369 106.903249 
L 218.333009 118.545649 
L 218.52465 141.830449 
L 218.716291 132.516529 
L 218.907931 139.501969 
L 219.099572 153.472849 
L 219.291212 153.472849 
L 219.482853 155.801329 
L 219.674494 148.815889 
L 219.866134 148.815889 
L 220.441056 165.115249 
L 220.632697 162.786769 
L 220.824337 167.443729 
L 221.015978 165.115249 
L 221.207619 167.443729 
L 221.399259 167.443729 
L 221.782541 160.458289 
L 222.165822 167.443729 
L 222.357462 179.086129 
L 222.549103 216.341809 
L 222.740744 218.670289 
L 222.932384 216.341809 
L 223.507306 237.298129 
L 223.698947 227.984209 
L 223.890587 234.969649 
L 224.082228 237.298129 
L 224.273869 230.312689 
L 224.465509 227.984209 
L 224.65715 234.969649 
L 224.848791 234.969649 
L 225.040431 230.312689 
L 225.232072 232.641169 
L 225.615353 225.655729 
L 225.806994 223.327249 
L 225.998634 227.984209 
L 226.190275 237.298129 
L 226.381916 227.984209 
L 226.573556 232.641169 
L 226.765197 227.984209 
L 226.956837 227.984209 
L 227.148478 223.327249 
L 227.340119 223.327249 
L 227.531759 227.984209 
L 227.91504 227.984209 
L 228.106681 209.356369 
L 228.489962 204.699409 
L 228.681603 220.998769 
L 228.873244 220.998769 
L 229.064884 232.641169 
L 229.256525 230.312689 
L 229.639806 214.013329 
L 229.831447 225.655729 
L 230.214728 214.013329 
L 230.598009 220.998769 
L 230.98129 211.684849 
L 231.172931 211.684849 
L 231.364572 209.356369 
L 231.556212 200.042449 
L 231.747853 207.027889 
L 231.939494 190.728529 
L 232.131134 195.385489 
L 232.322775 195.385489 
L 232.514415 153.472849 
L 232.706056 162.786769 
L 232.897697 162.786769 
L 233.089337 151.144369 
L 233.280978 153.472849 
L 233.472619 162.786769 
L 233.664259 158.129809 
L 234.04754 127.859569 
L 234.239181 125.531089 
L 234.622462 162.786769 
L 234.814103 165.115249 
L 235.005744 160.458289 
L 235.197384 162.786769 
L 235.389025 153.472849 
L 235.580665 160.458289 
L 235.772306 162.786769 
L 235.963947 139.501969 
L 236.155587 139.501969 
L 236.347228 134.845009 
L 236.538868 141.830449 
L 236.730509 158.129809 
L 236.92215 162.786769 
L 237.11379 155.801329 
L 237.497072 165.115249 
L 237.688712 165.115249 
L 237.880353 160.458289 
L 238.071993 144.158929 
L 238.263634 144.158929 
L 238.455275 137.173489 
L 238.646915 139.501969 
L 238.838556 125.531089 
L 239.030197 144.158929 
L 239.221837 130.188049 
L 239.413478 132.516529 
L 239.605118 130.188049 
L 239.796759 130.188049 
L 240.18004 134.845009 
L 240.371681 130.188049 
L 240.563322 134.845009 
L 240.754962 167.443729 
L 240.946603 167.443729 
L 241.138243 162.786769 
L 241.329884 169.772209 
L 241.521525 165.115249 
L 241.713165 167.443729 
L 241.904806 162.786769 
L 242.479728 169.772209 
L 242.671368 167.443729 
L 242.863009 160.458289 
L 243.05465 139.501969 
L 243.437931 162.786769 
L 243.629572 155.801329 
L 243.821212 162.786769 
L 244.012853 160.458289 
L 244.204493 153.472849 
L 244.396134 158.129809 
L 244.587775 158.129809 
L 244.971056 162.786769 
L 245.162696 167.443729 
L 245.737618 153.472849 
L 245.929259 153.472849 
L 246.1209 160.458289 
L 246.31254 153.472849 
L 246.504181 160.458289 
L 246.695821 155.801329 
L 246.887462 155.801329 
L 247.079103 153.472849 
L 247.270743 155.801329 
L 247.462384 160.458289 
L 247.654025 153.472849 
L 247.845665 160.458289 
L 248.037306 153.472849 
L 248.228946 153.472849 
L 248.612228 127.859569 
L 248.803868 132.516529 
L 248.995509 127.859569 
L 249.18715 127.859569 
L 249.37879 120.874129 
L 249.570431 78.961489 
L 249.762071 90.603889 
L 249.953712 78.961489 
L 250.145353 81.289969 
L 250.336993 81.289969 
L 250.528634 69.647569 
L 250.911915 88.275409 
L 251.295196 71.976049 
L 251.486837 76.633009 
L 251.678478 76.633009 
L 251.870118 71.976049 
L 252.061759 74.304529 
L 252.2534 60.333649 
L 252.44504 81.289969 
L 252.636681 81.289969 
L 252.828321 74.304529 
L 253.019962 71.976049 
L 253.211603 64.990609 
L 253.403243 62.662129 
L 253.594884 64.990609 
L 253.786524 69.647569 
L 253.978165 81.289969 
L 254.169806 67.319089 
L 254.553087 78.961489 
L 254.744728 74.304529 
L 254.936368 81.289969 
L 255.128009 78.961489 
L 255.51129 83.618449 
L 255.702931 71.976049 
L 255.894571 81.289969 
L 256.277853 81.289969 
L 256.469493 62.662129 
L 256.661134 71.976049 
L 256.852774 162.786769 
L 257.044415 160.458289 
L 257.619337 160.458289 
L 257.810978 167.443729 
L 258.002618 167.443729 
L 258.194259 160.458289 
L 258.385899 160.458289 
L 258.57754 167.443729 
L 258.769181 165.115249 
L 258.960821 146.487409 
L 259.152462 155.801329 
L 259.344103 144.158929 
L 259.535743 141.830449 
L 259.727384 144.158929 
L 259.919024 134.845009 
L 260.110665 144.158929 
L 260.302306 165.115249 
L 260.493946 155.801329 
L 260.685587 165.115249 
L 260.877228 148.815889 
L 261.068868 151.144369 
L 261.260509 146.487409 
L 261.452149 155.801329 
L 261.64379 151.144369 
L 261.835431 141.830449 
L 262.218712 160.458289 
L 262.410352 162.786769 
L 262.601993 158.129809 
L 262.793634 158.129809 
L 262.985274 146.487409 
L 263.176915 155.801329 
L 263.943477 127.859569 
L 264.135118 134.845009 
L 264.326759 125.531089 
L 264.518399 132.516529 
L 264.71004 125.531089 
L 264.901681 134.845009 
L 265.093321 125.531089 
L 265.284962 127.859569 
L 265.476602 127.859569 
L 265.668243 125.531089 
L 265.859884 113.888689 
L 266.051524 85.946929 
L 266.243165 83.618449 
L 266.434806 85.946929 
L 266.626446 78.961489 
L 266.818087 81.289969 
L 267.009727 113.888689 
L 267.201368 92.932369 
L 267.393009 99.917809 
L 267.584649 83.618449 
L 268.159571 90.603889 
L 268.351212 90.603889 
L 268.542852 83.618449 
L 268.734493 88.275409 
L 268.926134 46.362769 
L 269.117774 51.019729 
L 269.309415 64.990609 
L 269.501056 46.362769 
L 269.692696 46.362769 
L 269.884337 55.676689 
L 270.075977 53.348209 
L 270.459259 46.362769 
L 270.650899 55.676689 
L 270.84254 46.362769 
L 271.034181 55.676689 
L 271.417462 37.048849 
L 271.609102 55.676689 
L 271.992384 37.048849 
L 272.375665 51.019729 
L 272.567305 37.048849 
L 272.758946 39.377329 
L 272.950587 55.676689 
L 273.142227 53.348209 
L 273.333868 48.691249 
L 273.525509 51.019729 
L 273.717149 34.720369 
L 273.90879 41.705809 
L 274.292071 41.705809 
L 274.483712 39.377329 
L 274.675352 34.720369 
L 274.866993 37.048849 
L 275.058634 34.720369 
L 275.250274 55.676689 
L 275.441915 37.048849 
L 275.633555 48.691249 
L 276.016837 44.034289 
L 276.208477 34.720369 
L 276.400118 44.034289 
L 276.591759 41.705809 
L 276.783399 41.705809 
L 276.97504 34.720369 
L 277.358321 41.705809 
L 277.549962 41.705809 
L 277.741602 51.019729 
L 277.933243 39.377329 
L 278.124884 55.676689 
L 278.316524 37.048849 
L 278.508165 39.377329 
L 278.699805 44.034289 
L 278.891446 41.705809 
L 279.083087 44.034289 
L 279.274727 44.034289 
L 279.466368 34.720369 
L 279.658009 37.048849 
L 279.849649 37.048849 
L 280.04129 39.377329 
L 280.23293 37.048849 
L 280.424571 39.377329 
L 280.616212 34.720369 
L 280.807852 44.034289 
L 280.999493 39.377329 
L 281.191133 39.377329 
L 281.382774 37.048849 
L 281.766055 60.333649 
L 281.957696 74.304529 
L 282.340977 51.019729 
L 282.724258 71.976049 
L 282.915899 71.976049 
L 283.10754 69.647569 
L 283.490821 81.289969 
L 283.682462 162.786769 
L 283.874102 83.618449 
L 284.065743 92.932369 
L 284.257383 83.618449 
L 284.449024 90.603889 
L 284.640665 74.304529 
L 284.832305 127.859569 
L 285.023946 76.633009 
L 285.215587 78.961489 
L 285.407227 74.304529 
L 285.790508 78.961489 
L 286.748712 55.676689 
L 286.940352 62.662129 
L 287.131993 34.720369 
L 287.323633 41.705809 
L 287.515274 39.377329 
L 287.706915 41.705809 
L 287.898555 41.705809 
L 288.090196 34.720369 
L 288.281837 39.377329 
L 288.473477 34.720369 
L 288.665118 34.720369 
L 288.856758 44.034289 
L 289.048399 39.377329 
L 289.24004 44.034289 
L 289.43168 44.034289 
L 289.623321 37.048849 
L 289.814961 37.048849 
L 290.006602 78.961489 
L 290.198243 71.976049 
L 290.389883 127.859569 
L 290.581524 125.531089 
L 290.773165 127.859569 
L 290.964805 167.443729 
L 291.156446 74.304529 
L 291.348086 74.304529 
L 291.539727 60.333649 
L 291.731368 76.633009 
L 291.923008 76.633009 
L 292.114649 78.961489 
L 292.30629 67.319089 
L 292.49793 67.319089 
L 292.689571 97.589329 
L 292.881211 85.946929 
L 293.072852 92.932369 
L 293.456133 74.304529 
L 293.647774 78.961489 
L 293.839415 90.603889 
L 294.031055 90.603889 
L 294.222696 88.275409 
L 294.414336 90.603889 
L 294.605977 81.289969 
L 294.989258 92.932369 
L 295.180899 102.246289 
L 295.37254 104.574769 
L 295.755821 130.188049 
L 296.139102 83.618449 
L 296.330743 88.275409 
L 296.522383 88.275409 
L 296.714024 78.961489 
L 296.905665 83.618449 
L 297.097305 83.618449 
L 297.288946 85.946929 
L 297.480586 83.618449 
L 297.672227 90.603889 
L 297.863868 81.289969 
L 298.055508 88.275409 
L 298.247149 85.946929 
L 298.438789 92.932369 
L 298.63043 92.932369 
L 298.822071 78.961489 
L 299.013711 83.618449 
L 299.205352 83.618449 
L 299.396993 81.289969 
L 299.588633 71.976049 
L 299.780274 74.304529 
L 299.971914 78.961489 
L 300.163555 71.976049 
L 300.355196 83.618449 
L 300.546836 85.946929 
L 300.738477 85.946929 
L 301.121758 127.859569 
L 301.313399 169.772209 
L 301.69668 193.057009 
L 301.888321 139.501969 
L 302.079961 118.545649 
L 302.271602 134.845009 
L 302.463243 137.173489 
L 302.654883 97.589329 
L 302.846524 102.246289 
L 303.038164 113.888689 
L 303.229805 97.589329 
L 303.421446 144.158929 
L 303.613086 104.574769 
L 303.804727 106.903249 
L 303.996368 99.917809 
L 304.188008 85.946929 
L 304.379649 88.275409 
L 304.571289 113.888689 
L 304.76293 97.589329 
L 304.954571 183.743089 
L 305.146211 195.385489 
L 305.337852 193.057009 
L 305.529493 209.356369 
L 305.721133 193.057009 
L 305.912774 207.027889 
L 306.104414 202.370929 
L 306.296055 230.312689 
L 306.487696 211.684849 
L 306.679336 227.984209 
L 306.870977 223.327249 
L 307.062617 232.641169 
L 307.254258 204.699409 
L 307.445899 204.699409 
L 307.637539 193.057009 
L 308.212461 232.641169 
L 308.404102 214.013329 
L 309.170664 193.057009 
L 309.362305 200.042449 
L 309.553946 216.341809 
L 309.937227 225.655729 
L 310.128867 223.327249 
L 310.320508 207.027889 
L 310.512149 207.027889 
L 310.703789 190.728529 
L 310.89543 202.370929 
L 311.087071 190.728529 
L 311.278711 167.443729 
L 311.853633 197.713969 
L 312.236914 207.027889 
L 312.428555 202.370929 
L 312.620196 232.641169 
L 312.811836 223.327249 
L 313.195117 193.057009 
L 313.386758 209.356369 
L 314.153321 190.728529 
L 314.344961 190.728529 
L 314.536602 207.027889 
L 315.111524 188.400049 
L 315.303164 209.356369 
L 315.494805 190.728529 
L 315.686446 209.356369 
L 316.261367 209.356369 
L 316.453008 197.713969 
L 316.644649 209.356369 
L 316.836289 207.027889 
L 317.02793 209.356369 
L 317.21957 204.699409 
L 317.411211 220.998769 
L 317.794492 200.042449 
L 317.986133 211.684849 
L 318.177774 232.641169 
L 318.369414 207.027889 
L 318.561055 202.370929 
L 318.752695 204.699409 
L 318.944336 193.057009 
L 319.135977 195.385489 
L 319.327617 181.414609 
L 319.519258 139.501969 
L 319.710899 139.501969 
L 319.902539 132.516529 
L 320.09418 116.217169 
L 320.28582 116.217169 
L 320.477461 144.158929 
L 320.669102 144.158929 
L 320.860742 158.129809 
L 321.052383 139.501969 
L 321.244024 134.845009 
L 321.435664 95.260849 
L 321.627305 83.618449 
L 321.818945 104.574769 
L 322.010586 90.603889 
L 322.202227 92.932369 
L 322.585508 92.932369 
L 322.777149 78.961489 
L 322.968789 90.603889 
L 323.16043 88.275409 
L 323.35207 88.275409 
L 323.543711 85.946929 
L 323.735352 92.932369 
L 323.926992 92.932369 
L 324.118633 74.304529 
L 324.310274 78.961489 
L 324.501914 71.976049 
L 324.693555 71.976049 
L 324.885195 85.946929 
L 325.076836 81.289969 
L 325.268477 90.603889 
L 325.460117 74.304529 
L 325.651758 88.275409 
L 325.843398 85.946929 
L 326.035039 85.946929 
L 326.22668 90.603889 
L 326.41832 83.618449 
L 326.609961 83.618449 
L 326.801602 88.275409 
L 326.993242 85.946929 
L 327.184883 71.976049 
L 327.376523 71.976049 
L 327.568164 146.487409 
L 327.759805 151.144369 
L 327.951445 148.815889 
L 328.143086 183.743089 
L 328.334727 181.414609 
L 328.526367 153.472849 
L 328.718008 186.071569 
L 328.909648 141.830449 
L 329.101289 132.516529 
L 329.29293 144.158929 
L 329.676211 132.516529 
L 329.867852 139.501969 
L 330.059492 193.057009 
L 330.251133 207.027889 
L 330.634414 179.086129 
L 330.826055 190.728529 
L 331.592617 200.042449 
L 331.784258 209.356369 
L 331.975898 193.057009 
L 332.167539 130.188049 
L 332.35918 141.830449 
L 332.742461 118.545649 
L 333.125742 78.961489 
L 333.700664 90.603889 
L 333.892305 90.603889 
L 334.083945 74.304529 
L 334.275586 92.932369 
L 334.467226 92.932369 
L 334.658867 90.603889 
L 334.850508 74.304529 
L 335.042148 71.976049 
L 335.233789 74.304529 
L 335.42543 81.289969 
L 335.61707 64.990609 
L 335.808711 60.333649 
L 336.000351 81.289969 
L 336.575273 88.275409 
L 336.766914 78.961489 
L 336.958555 85.946929 
L 337.150195 102.246289 
L 337.533476 85.946929 
L 337.725117 83.618449 
L 337.916758 83.618449 
L 338.108398 85.946929 
L 338.300039 78.961489 
L 338.49168 85.946929 
L 338.68332 85.946929 
L 338.874961 90.603889 
L 339.258242 81.289969 
L 339.449883 60.333649 
L 339.641523 81.289969 
L 339.833164 76.633009 
L 340.216445 88.275409 
L 340.408086 83.618449 
L 340.791367 90.603889 
L 340.983008 134.845009 
L 341.174648 130.188049 
L 341.366289 176.757649 
L 341.74957 141.830449 
L 341.941211 139.501969 
L 342.132851 179.086129 
L 342.324492 158.129809 
L 342.516133 181.414609 
L 342.707773 146.487409 
L 342.899414 207.027889 
L 343.474336 162.786769 
L 343.665976 176.757649 
L 344.049258 183.743089 
L 344.624179 218.670289 
L 344.81582 197.713969 
L 345.007461 190.728529 
L 345.199101 188.400049 
L 345.390742 200.042449 
L 345.582383 218.670289 
L 345.774023 193.057009 
L 345.965664 190.728529 
L 346.157304 207.027889 
L 346.348945 190.728529 
L 346.540586 188.400049 
L 346.732226 202.370929 
L 346.923867 200.042449 
L 347.115508 188.400049 
L 347.307148 197.713969 
L 347.498789 193.057009 
L 347.690429 151.144369 
L 347.88207 176.757649 
L 348.073711 160.458289 
L 348.456992 169.772209 
L 348.648633 162.786769 
L 348.840273 160.458289 
L 349.031914 193.057009 
L 349.223554 204.699409 
L 349.415195 190.728529 
L 349.606836 207.027889 
L 349.798476 188.400049 
L 349.990117 188.400049 
L 350.181758 202.370929 
L 350.373398 200.042449 
L 350.565039 220.998769 
L 350.756679 214.013329 
L 350.94832 232.641169 
L 351.139961 202.370929 
L 351.331601 202.370929 
L 351.523242 207.027889 
L 351.714882 204.699409 
L 351.906523 207.027889 
L 352.098164 207.027889 
L 352.289804 202.370929 
L 352.481445 207.027889 
L 352.673086 204.699409 
L 352.864726 200.042449 
L 353.248007 200.042449 
L 353.822929 230.312689 
L 354.01457 225.655729 
L 354.206211 227.984209 
L 354.397851 202.370929 
L 354.589492 209.356369 
L 354.781132 200.042449 
L 354.972773 200.042449 
L 355.164414 188.400049 
L 355.356054 209.356369 
L 355.547695 195.385489 
L 355.739336 190.728529 
L 355.930976 209.356369 
L 356.122617 209.356369 
L 356.314257 179.086129 
L 356.505898 169.772209 
L 356.697539 151.144369 
L 356.889179 144.158929 
L 357.08082 130.188049 
L 357.272461 139.501969 
L 357.464101 139.501969 
L 357.655742 153.472849 
L 357.847382 153.472849 
L 358.039023 148.815889 
L 358.230664 148.815889 
L 358.422304 137.173489 
L 358.613945 134.845009 
L 358.805586 186.071569 
L 358.997226 197.713969 
L 359.188867 193.057009 
L 359.380507 197.713969 
L 359.572148 209.356369 
L 359.763789 197.713969 
L 359.955429 202.370929 
L 360.14707 193.057009 
L 360.338711 195.385489 
L 360.530351 195.385489 
L 360.721992 209.356369 
L 360.913632 137.173489 
L 361.105273 134.845009 
L 361.488554 179.086129 
L 361.680195 204.699409 
L 361.871835 204.699409 
L 362.063476 202.370929 
L 362.255117 207.027889 
L 362.446757 204.699409 
L 362.638398 190.728529 
L 362.830039 204.699409 
L 363.021679 204.699409 
L 363.21332 207.027889 
L 363.40496 202.370929 
L 363.596601 207.027889 
L 363.979882 193.057009 
L 364.171523 197.713969 
L 364.554804 183.743089 
L 364.746445 186.071569 
L 364.938085 195.385489 
L 365.129726 183.743089 
L 365.513007 146.487409 
L 365.704648 137.173489 
L 365.896289 141.830449 
L 366.087929 116.217169 
L 366.27957 125.531089 
L 366.47121 127.859569 
L 366.854492 139.501969 
L 367.046132 134.845009 
L 367.237773 144.158929 
L 367.429414 134.845009 
L 367.621054 132.516529 
L 367.812695 144.158929 
L 368.004335 176.757649 
L 368.195976 169.772209 
L 368.387617 186.071569 
L 368.579257 176.757649 
L 368.770898 181.414609 
L 368.962539 209.356369 
L 369.34582 190.728529 
L 369.53746 204.699409 
L 369.729101 190.728529 
L 369.920742 190.728529 
L 370.112382 200.042449 
L 370.304023 193.057009 
L 370.687304 193.057009 
L 370.878945 195.385489 
L 371.070585 200.042449 
L 371.262226 200.042449 
L 371.453867 202.370929 
L 371.645507 193.057009 
L 371.837148 207.027889 
L 372.028788 200.042449 
L 372.220429 202.370929 
L 372.41207 209.356369 
L 372.60371 204.699409 
L 372.795351 190.728529 
L 372.986992 193.057009 
L 373.178632 207.027889 
L 373.370273 193.057009 
L 373.561913 204.699409 
L 373.753554 202.370929 
L 374.328476 232.641169 
L 374.520117 227.984209 
L 374.711757 227.984209 
L 375.095038 234.969649 
L 375.286679 232.641169 
L 375.47832 223.327249 
L 375.66996 237.298129 
L 375.861601 227.984209 
L 376.053242 225.655729 
L 376.436523 225.655729 
L 376.628163 223.327249 
L 376.819804 232.641169 
L 377.011445 227.984209 
L 377.203085 230.312689 
L 377.394726 227.984209 
L 377.586367 227.984209 
L 377.969648 223.327249 
L 378.161288 232.641169 
L 378.352929 218.670289 
L 378.54457 216.341809 
L 378.927851 232.641169 
L 379.119491 223.327249 
L 379.311132 232.641169 
L 379.694413 220.998769 
L 379.886054 216.341809 
L 380.077695 230.312689 
L 380.269335 225.655729 
L 380.460976 227.984209 
L 380.652616 223.327249 
L 381.035898 237.298129 
L 381.227538 239.626609 
L 381.419179 239.626609 
L 381.61082 234.969649 
L 381.80246 241.955089 
L 381.994101 241.955089 
L 382.185741 234.969649 
L 382.377382 234.969649 
L 382.569023 230.312689 
L 382.952304 230.312689 
L 383.143945 223.327249 
L 383.335585 223.327249 
L 383.718866 232.641169 
L 383.910507 225.655729 
L 384.102148 230.312689 
L 384.293788 230.312689 
L 384.485429 223.327249 
L 384.67707 230.312689 
L 384.86871 223.327249 
L 385.060351 211.684849 
L 385.251991 214.013329 
L 385.443632 214.013329 
L 385.635273 209.356369 
L 385.826913 200.042449 
L 386.018554 200.042449 
L 386.210195 204.699409 
L 386.401835 218.670289 
L 386.593476 220.998769 
L 386.785116 214.013329 
L 386.976757 220.998769 
L 387.360038 200.042449 
L 387.551679 209.356369 
L 387.743319 186.071569 
L 387.93496 183.743089 
L 388.126601 176.757649 
L 388.318241 179.086129 
L 388.701523 186.071569 
L 388.893163 186.071569 
L 389.084804 195.385489 
L 389.276444 190.728529 
L 389.468085 181.414609 
L 389.851366 158.129809 
L 390.043007 165.115249 
L 390.234648 179.086129 
L 390.426288 183.743089 
L 390.617929 176.757649 
L 390.809569 186.071569 
L 391.00121 183.743089 
L 391.192851 183.743089 
L 391.384491 186.071569 
L 391.576132 186.071569 
L 391.767773 158.129809 
L 391.959413 183.743089 
L 392.151054 160.458289 
L 392.342694 158.129809 
L 392.534335 148.815889 
L 392.725976 146.487409 
L 393.300898 160.458289 
L 393.492538 186.071569 
L 393.684179 179.086129 
L 394.06746 193.057009 
L 394.259101 188.400049 
L 394.450741 190.728529 
L 394.642382 197.713969 
L 394.834023 197.713969 
L 395.217304 190.728529 
L 395.408944 190.728529 
L 395.600585 200.042449 
L 395.792226 193.057009 
L 396.175507 209.356369 
L 396.367147 197.713969 
L 396.558788 207.027889 
L 396.750429 209.356369 
L 396.942069 202.370929 
L 397.13371 204.699409 
L 397.325351 200.042449 
L 397.516991 209.356369 
L 397.708632 204.699409 
L 397.900272 190.728529 
L 398.283554 197.713969 
L 398.475194 176.757649 
L 398.666835 193.057009 
L 398.858476 190.728529 
L 399.050116 209.356369 
L 399.241757 204.699409 
L 399.433397 193.057009 
L 399.625038 207.027889 
L 399.816679 202.370929 
L 400.008319 202.370929 
L 400.19996 204.699409 
L 400.391601 209.356369 
L 400.583241 200.042449 
L 400.774882 200.042449 
L 400.966522 207.027889 
L 401.158163 209.356369 
L 401.349804 209.356369 
L 401.541444 204.699409 
L 401.924726 209.356369 
L 402.116366 200.042449 
L 402.308007 200.042449 
L 402.499647 209.356369 
L 402.691288 197.713969 
L 402.882929 195.385489 
L 403.074569 202.370929 
L 403.26621 200.042449 
L 403.457851 204.699409 
L 403.649491 204.699409 
L 403.841132 200.042449 
L 404.032772 209.356369 
L 404.224413 209.356369 
L 404.416054 200.042449 
L 404.799335 200.042449 
L 404.990976 209.356369 
L 405.374257 202.370929 
L 405.757538 202.370929 
L 405.949179 209.356369 
L 406.140819 202.370929 
L 406.33246 204.699409 
L 406.5241 209.356369 
L 406.715741 179.086129 
L 406.907382 181.414609 
L 407.099022 186.071569 
L 407.290663 176.757649 
L 407.482304 176.757649 
L 407.673944 183.743089 
L 407.865585 186.071569 
L 408.440507 186.071569 
L 408.632147 167.443729 
L 408.823788 162.786769 
L 409.015429 179.086129 
L 409.39871 188.400049 
L 409.59035 204.699409 
L 409.781991 197.713969 
L 409.973632 207.027889 
L 410.165272 204.699409 
L 410.356913 200.042449 
L 410.548554 204.699409 
L 410.740194 202.370929 
L 410.931835 209.356369 
L 411.123475 202.370929 
L 411.315116 202.370929 
L 411.506757 200.042449 
L 411.698397 207.027889 
L 411.890038 204.699409 
L 412.081679 204.699409 
L 412.273319 209.356369 
L 412.46496 209.356369 
L 412.6566 204.699409 
L 413.039882 190.728529 
L 413.231522 195.385489 
L 413.423163 188.400049 
L 413.614804 193.057009 
L 413.998085 193.057009 
L 414.189725 195.385489 
L 414.381366 195.385489 
L 414.573007 197.713969 
L 414.764647 188.400049 
L 414.956288 197.713969 
L 415.339569 193.057009 
L 415.53121 195.385489 
L 415.72285 193.057009 
L 415.914491 193.057009 
L 416.106132 186.071569 
L 416.297772 183.743089 
L 416.872694 195.385489 
L 417.064335 188.400049 
L 417.255975 188.400049 
L 417.447616 195.385489 
L 417.639257 190.728529 
L 417.830897 193.057009 
L 418.022538 188.400049 
L 418.214178 188.400049 
L 418.59746 193.057009 
L 418.7891 190.728529 
L 419.172382 190.728529 
L 419.364022 197.713969 
L 419.747303 193.057009 
L 419.938944 195.385489 
L 420.130585 188.400049 
L 420.322225 188.400049 
L 420.513866 195.385489 
L 420.705507 197.713969 
L 421.088788 197.713969 
L 421.280428 195.385489 
L 421.472069 195.385489 
L 421.66371 186.071569 
L 421.85535 183.743089 
L 422.046991 148.815889 
L 422.238632 134.845009 
L 422.430272 151.144369 
L 422.621913 137.173489 
L 422.813553 134.845009 
L 423.005194 151.144369 
L 423.196835 137.173489 
L 423.388475 132.516529 
L 423.580116 132.516529 
L 423.771756 139.501969 
L 423.963397 134.845009 
L 424.155038 137.173489 
L 424.346678 130.188049 
L 424.538319 127.859569 
L 424.72996 134.845009 
L 424.9216 127.859569 
L 425.113241 113.888689 
L 425.304881 137.173489 
L 425.688163 116.217169 
L 425.879803 116.217169 
L 426.071444 120.874129 
L 426.263085 120.874129 
L 426.646366 130.188049 
L 426.838006 120.874129 
L 427.029647 127.859569 
L 427.221288 144.158929 
L 427.604569 139.501969 
L 427.79621 144.158929 
L 428.179491 132.516529 
L 428.371131 111.560209 
L 428.754413 116.217169 
L 428.946053 116.217169 
L 429.137694 120.874129 
L 429.329335 116.217169 
L 429.520975 118.545649 
L 429.904256 132.516529 
L 430.479178 139.501969 
L 430.670819 132.516529 
L 430.86246 139.501969 
L 431.0541 137.173489 
L 431.245741 139.501969 
L 431.437381 139.501969 
L 431.629022 146.487409 
L 432.203944 139.501969 
L 432.395584 153.472849 
L 432.587225 176.757649 
L 432.778866 179.086129 
L 432.970506 179.086129 
L 433.353788 125.531089 
L 433.545428 139.501969 
L 433.737069 134.845009 
L 433.928709 137.173489 
L 434.12035 106.903249 
L 434.311991 109.231729 
L 434.695272 97.589329 
L 435.078553 123.202609 
L 435.461834 106.903249 
L 435.845116 106.903249 
L 436.036756 118.545649 
L 436.228397 123.202609 
L 436.611678 109.231729 
L 436.803319 113.888689 
L 436.994959 109.231729 
L 437.1866 109.231729 
L 437.378241 111.560209 
L 437.569881 111.560209 
L 437.953163 106.903249 
L 438.144803 113.888689 
L 438.336444 113.888689 
L 438.528084 111.560209 
L 438.719725 97.589329 
L 439.103006 113.888689 
L 439.294647 97.589329 
L 439.677928 97.589329 
L 439.869569 95.260849 
L 440.061209 120.874129 
L 440.25285 109.231729 
L 440.444491 134.845009 
L 440.636131 139.501969 
L 441.019412 125.531089 
L 441.211053 132.516529 
L 441.402694 132.516529 
L 441.785975 118.545649 
L 441.977616 106.903249 
L 442.169256 106.903249 
L 442.360897 116.217169 
L 442.552537 109.231729 
L 442.744178 127.859569 
L 442.935819 106.903249 
L 443.127459 106.903249 
L 443.3191 113.888689 
L 443.510741 116.217169 
L 443.702381 106.903249 
L 443.894022 116.217169 
L 444.085662 137.173489 
L 444.277303 134.845009 
L 444.468944 134.845009 
L 444.660584 141.830449 
L 444.852225 144.158929 
L 445.043866 144.158929 
L 445.235506 139.501969 
L 445.427147 130.188049 
L 445.618787 139.501969 
L 445.810428 137.173489 
L 446.002069 144.158929 
L 446.193709 144.158929 
L 446.38535 134.845009 
L 446.576991 141.830449 
L 446.768631 139.501969 
L 446.960272 139.501969 
L 447.151912 137.173489 
L 447.535194 144.158929 
L 447.918475 134.845009 
L 448.110116 137.173489 
L 448.301756 137.173489 
L 448.493397 134.845009 
L 448.685037 139.501969 
L 448.876678 132.516529 
L 449.068319 134.845009 
L 449.259959 132.516529 
L 449.4516 153.472849 
L 449.643241 132.516529 
L 449.834881 139.501969 
L 450.026522 139.501969 
L 450.218162 141.830449 
L 450.409803 146.487409 
L 450.601444 146.487409 
L 450.793084 151.144369 
L 450.984725 148.815889 
L 451.176365 160.458289 
L 451.368006 146.487409 
L 451.559647 146.487409 
L 451.751287 141.830449 
L 451.942928 146.487409 
L 452.134569 141.830449 
L 452.51785 104.574769 
L 452.70949 104.574769 
L 452.901131 111.560209 
L 453.092772 106.903249 
L 453.284412 127.859569 
L 453.667694 111.560209 
L 453.859334 130.188049 
L 454.242615 118.545649 
L 454.434256 109.231729 
L 454.625897 111.560209 
L 454.817537 106.903249 
L 455.009178 113.888689 
L 455.200819 125.531089 
L 455.392459 127.859569 
L 455.5841 120.874129 
L 455.77574 127.859569 
L 456.159022 123.202609 
L 456.350662 106.903249 
L 456.542303 123.202609 
L 456.733944 116.217169 
L 456.925584 125.531089 
L 457.117225 123.202609 
L 457.308865 130.188049 
L 457.500506 125.531089 
L 457.692147 139.501969 
L 457.883787 125.531089 
L 458.075428 139.501969 
L 458.65035 127.859569 
L 458.84199 139.501969 
L 459.033631 137.173489 
L 459.225272 137.173489 
L 459.416912 134.845009 
L 459.800193 134.845009 
L 459.991834 139.501969 
L 460.183475 132.516529 
L 460.375115 132.516529 
L 460.566756 134.845009 
L 460.758397 130.188049 
L 460.950037 139.501969 
L 461.141678 141.830449 
L 461.333318 141.830449 
L 461.524959 130.188049 
L 461.7166 139.501969 
L 461.90824 132.516529 
L 462.099881 137.173489 
L 462.291522 130.188049 
L 462.483162 130.188049 
L 462.674803 139.501969 
L 462.866443 132.516529 
L 463.058084 134.845009 
L 463.249725 139.501969 
L 463.441365 169.772209 
L 463.633006 165.115249 
L 463.824647 169.772209 
L 464.016287 167.443729 
L 464.207928 169.772209 
L 464.399568 169.772209 
L 464.591209 160.458289 
L 464.97449 167.443729 
L 465.166131 167.443729 
L 465.357772 165.115249 
L 465.549412 165.115249 
L 465.741053 141.830449 
L 465.932693 134.845009 
L 466.124334 162.786769 
L 466.315975 165.115249 
L 466.507615 162.786769 
L 466.890897 162.786769 
L 467.082537 158.129809 
L 467.274178 160.458289 
L 467.465818 148.815889 
L 467.657459 160.458289 
L 467.8491 162.786769 
L 468.04074 162.786769 
L 468.232381 186.071569 
L 468.424021 160.458289 
L 468.615662 151.144369 
L 468.807303 151.144369 
L 468.998943 155.801329 
L 469.190584 148.815889 
L 469.573865 148.815889 
L 469.765506 146.487409 
L 469.957146 146.487409 
L 470.148787 155.801329 
L 470.340428 146.487409 
L 470.532068 153.472849 
L 470.723709 146.487409 
L 470.91535 148.815889 
L 471.10699 153.472849 
L 471.490271 144.158929 
L 471.681912 146.487409 
L 471.873553 144.158929 
L 472.065193 139.501969 
L 472.256834 139.501969 
L 472.640115 144.158929 
L 472.831756 139.501969 
L 473.023396 141.830449 
L 473.215037 139.501969 
L 473.598318 139.501969 
L 473.9816 151.144369 
L 474.17324 153.472849 
L 474.364881 146.487409 
L 474.556521 151.144369 
L 474.748162 146.487409 
L 474.939803 134.845009 
L 475.131443 139.501969 
L 475.514725 132.516529 
L 475.706365 109.231729 
L 475.898006 132.516529 
L 476.089646 132.516529 
L 476.472928 88.275409 
L 476.856209 92.932369 
L 477.047849 104.574769 
L 477.23949 88.275409 
L 477.622771 102.246289 
L 477.814412 102.246289 
L 478.006053 88.275409 
L 478.197693 104.574769 
L 478.772615 83.618449 
L 478.964256 97.589329 
L 479.155896 102.246289 
L 479.347537 95.260849 
L 479.539178 92.932369 
L 479.730818 92.932369 
L 479.922459 85.946929 
L 480.114099 88.275409 
L 480.30574 95.260849 
L 480.497381 116.217169 
L 480.689021 92.932369 
L 480.880662 109.231729 
L 481.072303 95.260849 
L 481.263943 102.246289 
L 481.647224 90.603889 
L 481.838865 111.560209 
L 482.030506 102.246289 
L 482.222146 102.246289 
L 482.413787 85.946929 
L 482.605428 85.946929 
L 482.797068 102.246289 
L 482.988709 97.589329 
L 483.37199 83.618449 
L 483.563631 90.603889 
L 483.755271 83.618449 
L 483.946912 85.946929 
L 484.330193 81.289969 
L 484.521834 88.275409 
L 484.905115 88.275409 
L 485.288396 83.618449 
L 485.480037 83.618449 
L 485.671677 99.917809 
L 485.863318 104.574769 
L 486.054959 88.275409 
L 486.43824 99.917809 
L 486.629881 85.946929 
L 486.821521 104.574769 
L 487.013162 85.946929 
L 487.204802 83.618449 
L 487.396443 92.932369 
L 487.588084 83.618449 
L 487.779724 92.932369 
L 487.971365 90.603889 
L 488.163006 85.946929 
L 488.354646 90.603889 
L 488.546287 85.946929 
L 488.737927 85.946929 
L 488.929568 104.574769 
L 489.121209 97.589329 
L 489.312849 99.917809 
L 489.50449 104.574769 
L 489.696131 90.603889 
L 489.887771 92.932369 
L 490.079412 97.589329 
L 490.271052 88.275409 
L 490.462693 92.932369 
L 490.654334 90.603889 
L 490.845974 90.603889 
L 491.037615 78.961489 
L 491.229256 85.946929 
L 491.420896 78.961489 
L 491.995818 116.217169 
L 492.187459 134.845009 
L 492.379099 106.903249 
L 492.57074 116.217169 
L 492.762381 109.231729 
L 492.954021 137.173489 
L 493.145662 134.845009 
L 493.337302 125.531089 
L 493.528943 127.859569 
L 493.720584 139.501969 
L 493.912224 144.158929 
L 494.103865 134.845009 
L 494.295506 141.830449 
L 494.487146 127.859569 
L 494.678787 130.188049 
L 494.870427 127.859569 
L 495.062068 113.888689 
L 495.253709 116.217169 
L 495.445349 109.231729 
L 495.63699 109.231729 
L 495.82863 116.217169 
L 496.211912 116.217169 
L 496.403552 106.903249 
L 496.595193 111.560209 
L 497.170115 83.618449 
L 497.361755 90.603889 
L 497.553396 92.932369 
L 497.745037 71.976049 
L 497.936677 83.618449 
L 498.128318 88.275409 
L 498.319959 88.275409 
L 498.511599 78.961489 
L 498.70324 88.275409 
L 498.89488 81.289969 
L 499.086521 88.275409 
L 499.278162 74.304529 
L 499.469802 83.618449 
L 499.661443 78.961489 
L 499.853084 88.275409 
L 500.044724 83.618449 
L 500.236365 88.275409 
L 500.619646 64.990609 
L 500.811287 69.647569 
L 501.194568 69.647569 
L 501.386209 62.662129 
L 501.577849 64.990609 
L 501.76949 46.362769 
L 501.96113 81.289969 
L 502.152771 64.990609 
L 502.344412 67.319089 
L 502.536052 60.333649 
L 502.727693 71.976049 
L 502.919334 64.990609 
L 503.110974 67.319089 
L 503.302615 67.319089 
L 503.494255 51.019729 
L 503.685896 62.662129 
L 504.260818 76.633009 
L 504.452458 71.976049 
L 504.644099 83.618449 
L 504.83574 74.304529 
L 505.219021 85.946929 
L 505.602302 81.289969 
L 505.793943 67.319089 
L 505.985583 62.662129 
L 506.177224 69.647569 
L 506.368865 71.976049 
L 506.560505 81.289969 
L 506.752146 81.289969 
L 506.943787 71.976049 
L 507.135427 71.976049 
L 507.327068 90.603889 
L 507.518708 92.932369 
L 507.710349 71.976049 
L 507.90199 81.289969 
L 508.09363 74.304529 
L 508.285271 78.961489 
L 508.476912 69.647569 
L 508.860193 78.961489 
L 509.051833 71.976049 
L 509.243474 88.275409 
L 509.435115 88.275409 
L 509.626755 83.618449 
L 509.818396 104.574769 
L 510.010037 99.917809 
L 510.201677 123.202609 
L 510.393318 102.246289 
L 510.584958 102.246289 
L 510.776599 88.275409 
L 510.96824 85.946929 
L 511.15988 90.603889 
L 511.351521 88.275409 
L 511.543162 88.275409 
L 512.118083 104.574769 
L 512.309724 99.917809 
L 512.501365 99.917809 
L 512.884646 155.801329 
L 513.076286 144.158929 
L 513.267927 99.917809 
L 513.651208 90.603889 
L 514.03449 106.903249 
L 514.22613 127.859569 
L 514.417771 102.246289 
L 514.609411 132.516529 
L 514.801052 125.531089 
L 514.992693 123.202609 
L 515.184333 102.246289 
L 515.375974 106.903249 
L 515.759255 83.618449 
L 516.142536 88.275409 
L 516.334177 92.932369 
L 516.525818 78.961489 
L 516.909099 78.961489 
L 517.10074 83.618449 
L 517.29238 78.961489 
L 517.675661 83.618449 
L 517.867302 88.275409 
L 518.058943 88.275409 
L 518.250583 85.946929 
L 518.442224 85.946929 
L 518.633865 88.275409 
L 518.825505 85.946929 
L 519.208786 85.946929 
L 519.592068 74.304529 
L 519.783708 76.633009 
L 519.975349 88.275409 
L 520.16699 81.289969 
L 520.35863 88.275409 
L 520.550271 83.618449 
L 520.933552 92.932369 
L 521.125193 83.618449 
L 521.316833 83.618449 
L 521.508474 90.603889 
L 521.700114 90.603889 
L 521.891755 83.618449 
L 522.083396 106.903249 
L 522.275036 116.217169 
L 522.466677 109.231729 
L 522.658318 132.516529 
L 522.849958 127.859569 
L 523.041599 137.173489 
L 523.233239 186.071569 
L 523.42488 148.815889 
L 523.616521 162.786769 
L 523.808161 146.487409 
L 523.999802 186.071569 
L 524.191443 146.487409 
L 524.383083 132.516529 
L 524.766364 139.501969 
L 524.958005 153.472849 
L 525.149646 188.400049 
L 525.341286 195.385489 
L 525.532927 188.400049 
L 525.916208 193.057009 
L 526.299489 188.400049 
L 526.49113 197.713969 
L 526.682771 197.713969 
L 526.874411 179.086129 
L 527.257693 104.574769 
L 527.449333 95.260849 
L 527.640974 113.888689 
L 527.832614 116.217169 
L 528.024255 83.618449 
L 528.215896 83.618449 
L 528.407536 92.932369 
L 528.599177 90.603889 
L 528.982458 97.589329 
L 529.174099 97.589329 
L 529.365739 88.275409 
L 529.55738 90.603889 
L 529.749021 83.618449 
L 530.323942 134.845009 
L 530.515583 123.202609 
L 530.707224 169.772209 
L 530.898864 176.757649 
L 531.282146 216.341809 
L 531.473786 188.400049 
L 531.665427 209.356369 
L 531.857067 144.158929 
L 532.048708 162.786769 
L 532.240349 165.115249 
L 532.431989 197.713969 
L 532.62363 183.743089 
L 533.006911 188.400049 
L 533.390192 197.713969 
L 533.581833 183.743089 
L 533.773474 190.728529 
L 533.965114 186.071569 
L 534.156755 195.385489 
L 534.348396 165.115249 
L 534.540036 176.757649 
L 534.731677 125.531089 
L 534.923317 130.188049 
L 535.114958 127.859569 
L 535.306599 144.158929 
L 535.498239 186.071569 
L 535.68988 188.400049 
L 535.881521 176.757649 
L 536.264802 195.385489 
L 536.648083 195.385489 
L 536.839724 193.057009 
L 537.031364 188.400049 
L 537.223005 204.699409 
L 537.414646 202.370929 
L 537.606286 188.400049 
L 537.797927 195.385489 
L 538.181208 169.772209 
L 538.372849 183.743089 
L 538.564489 181.414609 
L 538.75613 139.501969 
L 538.947771 137.173489 
L 539.331052 179.086129 
L 539.522692 151.144369 
L 539.905974 130.188049 
L 540.097614 130.188049 
L 540.480895 139.501969 
L 540.864177 118.545649 
L 541.055817 139.501969 
L 541.247458 113.888689 
L 541.439099 106.903249 
L 541.630739 109.231729 
L 541.82238 113.888689 
L 542.205661 158.129809 
L 542.397302 169.772209 
L 542.588942 160.458289 
L 542.780583 141.830449 
L 542.972224 139.501969 
L 543.163864 139.501969 
L 543.355505 141.830449 
L 543.547145 141.830449 
L 543.930427 181.414609 
L 544.122067 141.830449 
L 544.313708 139.501969 
L 544.505349 144.158929 
L 544.88863 85.946929 
L 545.08027 90.603889 
L 545.271911 85.946929 
L 545.463552 88.275409 
L 545.655192 85.946929 
L 545.846833 88.275409 
L 546.038474 92.932369 
L 546.230114 90.603889 
L 546.421755 95.260849 
L 546.613395 88.275409 
L 546.996677 83.618449 
L 547.188317 88.275409 
L 547.379958 88.275409 
L 547.571599 76.633009 
L 547.763239 76.633009 
L 548.14652 88.275409 
L 548.338161 83.618449 
L 548.529802 92.932369 
L 548.913083 92.932369 
L 549.104723 76.633009 
L 549.296364 81.289969 
L 549.488005 81.289969 
L 549.679645 74.304529 
L 549.871286 78.961489 
L 550.446208 51.019729 
L 550.637848 69.647569 
L 551.02113 46.362769 
L 551.21277 62.662129 
L 551.404411 46.362769 
L 551.596052 62.662129 
L 551.787692 64.990609 
L 551.979333 37.048849 
L 552.170973 39.377329 
L 552.362614 69.647569 
L 552.554255 64.990609 
L 552.937536 81.289969 
L 553.320817 74.304529 
L 553.512458 60.333649 
L 553.704098 67.319089 
L 553.895739 69.647569 
L 554.08738 78.961489 
L 554.27902 74.304529 
L 554.470661 60.333649 
L 554.662302 88.275409 
L 555.045583 71.976049 
L 555.237223 74.304529 
L 555.428864 74.304529 
L 555.620505 83.618449 
L 555.812145 62.662129 
L 556.003786 78.961489 
L 556.195427 62.662129 
L 556.387067 69.647569 
L 556.770348 53.348209 
L 557.15363 81.289969 
L 557.536911 85.946929 
L 557.728551 85.946929 
L 557.920192 92.932369 
L 558.111833 85.946929 
L 558.303473 85.946929 
L 558.495114 71.976049 
L 558.686755 83.618449 
L 558.878395 88.275409 
L 559.070036 85.946929 
L 559.261676 104.574769 
L 559.453317 106.903249 
L 559.644958 102.246289 
L 560.028239 83.618449 
L 560.41152 88.275409 
L 560.794801 74.304529 
L 560.986442 92.932369 
L 561.178083 95.260849 
L 561.369723 139.501969 
L 561.561364 95.260849 
L 561.753005 111.560209 
L 561.944645 113.888689 
L 562.136286 109.231729 
L 562.519567 81.289969 
L 562.711208 81.289969 
L 562.902848 76.633009 
L 563.094489 76.633009 
L 563.28613 78.961489 
L 563.47777 78.961489 
L 563.669411 60.333649 
L 563.861051 81.289969 
L 564.244333 81.289969 
L 564.627614 90.603889 
L 564.819255 88.275409 
L 565.010895 88.275409 
L 565.202536 92.932369 
L 565.394176 78.961489 
L 565.777458 116.217169 
L 565.969098 153.472849 
L 566.160739 88.275409 
L 566.352379 130.188049 
L 566.735661 153.472849 
L 566.927301 153.472849 
L 567.118942 148.815889 
L 567.310583 155.801329 
L 567.502223 146.487409 
L 567.693864 148.815889 
L 567.885504 139.501969 
L 568.077145 144.158929 
L 568.268786 139.501969 
L 568.460426 130.188049 
L 569.035348 153.472849 
L 569.418629 127.859569 
L 569.61027 141.830449 
L 569.801911 139.501969 
L 569.993551 141.830449 
L 570.185192 197.713969 
L 570.376833 207.027889 
L 570.568473 232.641169 
L 571.335036 179.086129 
L 571.526676 220.998769 
L 571.909958 197.713969 
L 572.101598 176.757649 
L 572.293239 190.728529 
L 572.484879 193.057009 
L 572.67652 209.356369 
L 572.868161 200.042449 
L 573.251442 151.144369 
L 573.443083 193.057009 
L 573.634723 148.815889 
L 573.826364 186.071569 
L 574.209645 176.757649 
L 574.401286 181.414609 
L 574.592926 141.830449 
L 574.784567 183.743089 
L 574.976207 181.414609 
L 575.167848 186.071569 
L 575.359489 151.144369 
L 575.74277 146.487409 
L 575.934411 162.786769 
L 576.126051 153.472849 
L 576.317692 195.385489 
L 576.509332 181.414609 
L 576.700973 176.757649 
L 576.892614 176.757649 
L 577.084254 153.472849 
L 577.275895 197.713969 
L 577.850817 176.757649 
L 578.042457 202.370929 
L 578.234098 200.042449 
L 578.425739 214.013329 
L 578.617379 165.115249 
L 578.80902 197.713969 
L 579.000661 155.801329 
L 579.192301 151.144369 
L 579.383942 183.743089 
L 579.575582 167.443729 
L 579.767223 188.400049 
L 579.958864 186.071569 
L 580.150504 179.086129 
L 580.342145 181.414609 
L 580.533786 169.772209 
L 580.725426 165.115249 
L 580.917067 146.487409 
L 581.108707 88.275409 
L 581.300348 109.231729 
L 581.491989 116.217169 
L 581.683629 104.574769 
L 581.87527 113.888689 
L 582.066911 130.188049 
L 582.258551 116.217169 
L 582.641832 132.516529 
L 582.833473 99.917809 
L 582.833473 99.917809 
" clip-path="url(#p4fd1b283f5)" style="fill: none; stroke: #2a78d6; stroke-width: 1.4; stroke-linecap: square"/>
   </g>
   <g id="patch_4">
    <path d="M 50.197109 255.925969 
L 50.197109 23.077969 
" style="fill: none; stroke: #c3c2b7; stroke-linejoin: miter; stroke-linecap: square"/>
   </g>
   <g id="patch_5">
    <path d="M 50.197109 255.925969 
L 608.197109 255.925969 
" style="fill: none; stroke: #c3c2b7; stroke-linejoin: miter; stroke-linecap: square"/>
   </g>
   <g id="text_16">
    <!-- trade-data window -->
    <g style="fill: #52514e" transform="translate(470.241443 49.445281) scale(0.09 -0.09)">
     <defs>
      <path id="DejaVuSans-57" d="M 1172 4494 
L 1172 3500 
L 2356 3500 
L 2356 3053 
L 1172 3053 
L 1172 1153 
Q 1172 725 1289 603 
Q 1406 481 1766 481 
L 2356 481 
L 2356 0 
L 1766 0 
Q 1100 0 847 248 
Q 594 497 594 1153 
L 594 3053 
L 172 3053 
L 172 3500 
L 594 3500 
L 594 4494 
L 1172 4494 
z
" transform="scale(0.015625)"/>
      <path id="DejaVuSans-55" d="M 2631 2963 
Q 2534 3019 2420 3045 
Q 2306 3072 2169 3072 
Q 1681 3072 1420 2755 
Q 1159 2438 1159 1844 
L 1159 0 
L 581 0 
L 581 3500 
L 1159 3500 
L 1159 2956 
Q 1341 3275 1631 3429 
Q 1922 3584 2338 3584 
Q 2397 3584 2469 3576 
Q 2541 3569 2628 3553 
L 2631 2963 
z
" transform="scale(0.015625)"/>
      <path id="DejaVuSans-10" d="M 313 2009 
L 1997 2009 
L 1997 1497 
L 313 1497 
L 313 2009 
z
" transform="scale(0.015625)"/>
      <path id="DejaVuSans-5a" d="M 269 3500 
L 844 3500 
L 1563 769 
L 2278 3500 
L 2956 3500 
L 3675 769 
L 4391 3500 
L 4966 3500 
L 4050 0 
L 3372 0 
L 2619 2869 
L 1863 0 
L 1184 0 
L 269 3500 
z
" transform="scale(0.015625)"/>
      <path id="DejaVuSans-4c" d="M 603 3500 
L 1178 3500 
L 1178 0 
L 603 0 
L 603 3500 
z
M 603 4863 
L 1178 4863 
L 1178 4134 
L 603 4134 
L 603 4863 
z
" transform="scale(0.015625)"/>
      <path id="DejaVuSans-52" d="M 1959 3097 
Q 1497 3097 1228 2736 
Q 959 2375 959 1747 
Q 959 1119 1226 758 
Q 1494 397 1959 397 
Q 2419 397 2687 759 
Q 2956 1122 2956 1747 
Q 2956 2369 2687 2733 
Q 2419 3097 1959 3097 
z
M 1959 3584 
Q 2709 3584 3137 3096 
Q 3566 2609 3566 1747 
Q 3566 888 3137 398 
Q 2709 -91 1959 -91 
Q 1206 -91 779 398 
Q 353 888 353 1747 
Q 353 2609 779 3096 
Q 1206 3584 1959 3584 
z
" transform="scale(0.015625)"/>
     </defs>
     <use xlink:href="#DejaVuSans-57"/>
     <use xlink:href="#DejaVuSans-55" transform="translate(39.203125 0)"/>
     <use xlink:href="#DejaVuSans-44" transform="translate(80.3125 0)"/>
     <use xlink:href="#DejaVuSans-47" transform="translate(141.59375 0)"/>
     <use xlink:href="#DejaVuSans-48" transform="translate(205.078125 0)"/>
     <use xlink:href="#DejaVuSans-10" transform="translate(266.609375 0)"/>
     <use xlink:href="#DejaVuSans-47" transform="translate(302.6875 0)"/>
     <use xlink:href="#DejaVuSans-44" transform="translate(366.171875 0)"/>
     <use xlink:href="#DejaVuSans-57" transform="translate(427.453125 0)"/>
     <use xlink:href="#DejaVuSans-44" transform="translate(466.65625 0)"/>
     <use xlink:href="#DejaVuSans-3" transform="translate(527.9375 0)"/>
     <use xlink:href="#DejaVuSans-5a" transform="translate(559.71875 0)"/>
     <use xlink:href="#DejaVuSans-4c" transform="translate(641.5 0)"/>
     <use xlink:href="#DejaVuSans-51" transform="translate(669.28125 0)"/>
     <use xlink:href="#DejaVuSans-47" transform="translate(732.65625 0)"/>
     <use xlink:href="#DejaVuSans-52" transform="translate(796.140625 0)"/>
     <use xlink:href="#DejaVuSans-5a" transform="translate(857.328125 0)"/>
    </g>
    <!-- (2023-05 → 2025-05) -->
    <g style="fill: #52514e" transform="translate(464.754255 60.247039) scale(0.09 -0.09)">
     <defs>
      <path id="DejaVuSans-c1c" d="M 5050 2147 
L 5050 1866 
L 3822 638 
L 3447 1013 
L 4175 1741 
L 366 1741 
L 366 2272 
L 4175 2272 
L 3447 3000 
L 3822 3375 
L 5050 2147 
z
" transform="scale(0.015625)"/>
     </defs>
     <use xlink:href="#DejaVuSans-b"/>
     <use xlink:href="#DejaVuSans-15" transform="translate(39.015625 0)"/>
     <use xlink:href="#DejaVuSans-13" transform="translate(102.640625 0)"/>
     <use xlink:href="#DejaVuSans-15" transform="translate(166.265625 0)"/>
     <use xlink:href="#DejaVuSans-16" transform="translate(229.890625 0)"/>
     <use xlink:href="#DejaVuSans-10" transform="translate(293.515625 0)"/>
     <use xlink:href="#DejaVuSans-13" transform="translate(329.59375 0)"/>
     <use xlink:href="#DejaVuSans-18" transform="translate(393.21875 0)"/>
     <use xlink:href="#DejaVuSans-3" transform="translate(456.84375 0)"/>
     <use xlink:href="#DejaVuSans-c1c" transform="translate(488.625 0)"/>
     <use xlink:href="#DejaVuSans-3" transform="translate(572.421875 0)"/>
     <use xlink:href="#DejaVuSans-15" transform="translate(604.203125 0)"/>
     <use xlink:href="#DejaVuSans-13" transform="translate(667.828125 0)"/>
     <use xlink:href="#DejaVuSans-15" transform="translate(731.453125 0)"/>
     <use xlink:href="#DejaVuSans-18" transform="translate(795.078125 0)"/>
     <use xlink:href="#DejaVuSans-10" transform="translate(858.703125 0)"/>
     <use xlink:href="#DejaVuSans-13" transform="translate(894.78125 0)"/>
     <use xlink:href="#DejaVuSans-18" transform="translate(958.40625 0)"/>
     <use xlink:href="#DejaVuSans-c" transform="translate(1022.03125 0)"/>
    </g>
   </g>
   <g id="text_17">
    <!-- V1 · Fear &amp; Greed index over time (trade window shaded) -->
    <g style="fill: #0b0b0b" transform="translate(117.464688 17.077969) scale(0.13 -0.13)">
     <defs>
      <path id="DejaVuSans-Bold-39" d="M 31 4666 
L 1241 4666 
L 2478 1222 
L 3713 4666 
L 4922 4666 
L 3194 0 
L 1759 0 
L 31 4666 
z
" transform="scale(0.015625)"/>
      <path id="DejaVuSans-Bold-14" d="M 750 831 
L 1813 831 
L 1813 3847 
L 722 3622 
L 722 4441 
L 1806 4666 
L 2950 4666 
L 2950 831 
L 4013 831 
L 4013 0 
L 750 0 
L 750 831 
z
" transform="scale(0.015625)"/>
      <path id="DejaVuSans-Bold-3" transform="scale(0.015625)"/>
      <path id="DejaVuSans-Bold-79" d="M 653 2828 
L 1778 2828 
L 1778 1619 
L 653 1619 
L 653 2828 
z
" transform="scale(0.015625)"/>
      <path id="DejaVuSans-Bold-29" d="M 588 4666 
L 3834 4666 
L 3834 3756 
L 1791 3756 
L 1791 2888 
L 3713 2888 
L 3713 1978 
L 1791 1978 
L 1791 0 
L 588 0 
L 588 4666 
z
" transform="scale(0.015625)"/>
      <path id="DejaVuSans-Bold-48" d="M 4031 1759 
L 4031 1441 
L 1416 1441 
Q 1456 1047 1700 850 
Q 1944 653 2381 653 
Q 2734 653 3104 758 
Q 3475 863 3866 1075 
L 3866 213 
Q 3469 63 3072 -14 
Q 2675 -91 2278 -91 
Q 1328 -91 801 392 
Q 275 875 275 1747 
Q 275 2603 792 3093 
Q 1309 3584 2216 3584 
Q 3041 3584 3536 3087 
Q 4031 2591 4031 1759 
z
M 2881 2131 
Q 2881 2450 2695 2645 
Q 2509 2841 2209 2841 
Q 1884 2841 1681 2658 
Q 1478 2475 1428 2131 
L 2881 2131 
z
" transform="scale(0.015625)"/>
      <path id="DejaVuSans-Bold-44" d="M 2106 1575 
Q 1756 1575 1579 1456 
Q 1403 1338 1403 1106 
Q 1403 894 1545 773 
Q 1688 653 1941 653 
Q 2256 653 2472 879 
Q 2688 1106 2688 1447 
L 2688 1575 
L 2106 1575 
z
M 3816 1997 
L 3816 0 
L 2688 0 
L 2688 519 
Q 2463 200 2181 54 
Q 1900 -91 1497 -91 
Q 953 -91 614 226 
Q 275 544 275 1050 
Q 275 1666 698 1953 
Q 1122 2241 2028 2241 
L 2688 2241 
L 2688 2328 
Q 2688 2594 2478 2717 
Q 2269 2841 1825 2841 
Q 1466 2841 1156 2769 
Q 847 2697 581 2553 
L 581 3406 
Q 941 3494 1303 3539 
Q 1666 3584 2028 3584 
Q 2975 3584 3395 3211 
Q 3816 2838 3816 1997 
z
" transform="scale(0.015625)"/>
      <path id="DejaVuSans-Bold-55" d="M 3138 2547 
Q 2991 2616 2845 2648 
Q 2700 2681 2553 2681 
Q 2122 2681 1889 2404 
Q 1656 2128 1656 1613 
L 1656 0 
L 538 0 
L 538 3500 
L 1656 3500 
L 1656 2925 
Q 1872 3269 2151 3426 
Q 2431 3584 2822 3584 
Q 2878 3584 2943 3579 
Q 3009 3575 3134 3559 
L 3138 2547 
z
" transform="scale(0.015625)"/>
      <path id="DejaVuSans-Bold-9" d="M 2497 3097 
L 3775 1691 
Q 3941 1909 4027 2181 
Q 4113 2453 4128 2797 
L 5100 2797 
Q 5053 2228 4879 1784 
Q 4706 1341 4397 1006 
L 5313 0 
L 3988 0 
L 3681 341 
Q 3353 122 2990 15 
Q 2628 -91 2222 -91 
Q 1400 -91 892 342 
Q 384 775 384 1459 
Q 384 1916 607 2267 
Q 831 2619 1338 2950 
Q 1206 3116 1143 3281 
Q 1081 3447 1081 3628 
Q 1081 4138 1478 4444 
Q 1875 4750 2534 4750 
Q 2819 4750 3126 4704 
Q 3434 4659 3769 4569 
L 3769 3700 
Q 3475 3850 3212 3922 
Q 2950 3994 2700 3994 
Q 2459 3994 2326 3901 
Q 2194 3809 2194 3641 
Q 2194 3534 2270 3398 
Q 2347 3263 2497 3097 
z
M 1875 2322 
Q 1672 2175 1569 1989 
Q 1466 1803 1466 1581 
Q 1466 1222 1731 969 
Q 1997 716 2369 716 
Q 2578 716 2759 780 
Q 2941 844 3097 972 
L 1875 2322 
z
" transform="scale(0.015625)"/>
      <path id="DejaVuSans-Bold-2a" d="M 4781 347 
Q 4331 128 3847 18 
Q 3363 -91 2847 -91 
Q 1681 -91 1000 561 
Q 319 1213 319 2328 
Q 319 3456 1012 4103 
Q 1706 4750 2913 4750 
Q 3378 4750 3804 4662 
Q 4231 4575 4609 4403 
L 4609 3438 
Q 4219 3659 3833 3768 
Q 3447 3878 3059 3878 
Q 2341 3878 1952 3476 
Q 1563 3075 1563 2328 
Q 1563 1588 1938 1184 
Q 2313 781 3003 781 
Q 3191 781 3352 804 
Q 3513 828 3641 878 
L 3641 1784 
L 2906 1784 
L 2906 2591 
L 4781 2591 
L 4781 347 
z
" transform="scale(0.015625)"/>
      <path id="DejaVuSans-Bold-47" d="M 2919 2988 
L 2919 4863 
L 4044 4863 
L 4044 0 
L 2919 0 
L 2919 506 
Q 2688 197 2409 53 
Q 2131 -91 1766 -91 
Q 1119 -91 703 423 
Q 288 938 288 1747 
Q 288 2556 703 3070 
Q 1119 3584 1766 3584 
Q 2128 3584 2408 3439 
Q 2688 3294 2919 2988 
z
M 2181 722 
Q 2541 722 2730 984 
Q 2919 1247 2919 1747 
Q 2919 2247 2730 2509 
Q 2541 2772 2181 2772 
Q 1825 2772 1636 2509 
Q 1447 2247 1447 1747 
Q 1447 1247 1636 984 
Q 1825 722 2181 722 
z
" transform="scale(0.015625)"/>
      <path id="DejaVuSans-Bold-4c" d="M 538 3500 
L 1656 3500 
L 1656 0 
L 538 0 
L 538 3500 
z
M 538 4863 
L 1656 4863 
L 1656 3950 
L 538 3950 
L 538 4863 
z
" transform="scale(0.015625)"/>
      <path id="DejaVuSans-Bold-51" d="M 4056 2131 
L 4056 0 
L 2931 0 
L 2931 347 
L 2931 1631 
Q 2931 2084 2911 2256 
Q 2891 2428 2841 2509 
Q 2775 2619 2662 2680 
Q 2550 2741 2406 2741 
Q 2056 2741 1856 2470 
Q 1656 2200 1656 1722 
L 1656 0 
L 538 0 
L 538 3500 
L 1656 3500 
L 1656 2988 
Q 1909 3294 2193 3439 
Q 2478 3584 2822 3584 
Q 3428 3584 3742 3212 
Q 4056 2841 4056 2131 
z
" transform="scale(0.015625)"/>
      <path id="DejaVuSans-Bold-5b" d="M 1422 1791 
L 159 3500 
L 1344 3500 
L 2059 2463 
L 2784 3500 
L 3969 3500 
L 2706 1797 
L 4031 0 
L 2847 0 
L 2059 1106 
L 1281 0 
L 97 0 
L 1422 1791 
z
" transform="scale(0.015625)"/>
      <path id="DejaVuSans-Bold-52" d="M 2203 2784 
Q 1831 2784 1636 2517 
Q 1441 2250 1441 1747 
Q 1441 1244 1636 976 
Q 1831 709 2203 709 
Q 2569 709 2762 976 
Q 2956 1244 2956 1747 
Q 2956 2250 2762 2517 
Q 2569 2784 2203 2784 
z
M 2203 3584 
Q 3106 3584 3614 3096 
Q 4122 2609 4122 1747 
Q 4122 884 3614 396 
Q 3106 -91 2203 -91 
Q 1297 -91 786 396 
Q 275 884 275 1747 
Q 275 2609 786 3096 
Q 1297 3584 2203 3584 
z
" transform="scale(0.015625)"/>
      <path id="DejaVuSans-Bold-59" d="M 97 3500 
L 1216 3500 
L 2088 1081 
L 2956 3500 
L 4078 3500 
L 2700 0 
L 1472 0 
L 97 3500 
z
" transform="scale(0.015625)"/>
      <path id="DejaVuSans-Bold-57" d="M 1759 4494 
L 1759 3500 
L 2913 3500 
L 2913 2700 
L 1759 2700 
L 1759 1216 
Q 1759 972 1856 886 
Q 1953 800 2241 800 
L 2816 800 
L 2816 0 
L 1856 0 
Q 1194 0 917 276 
Q 641 553 641 1216 
L 641 2700 
L 84 2700 
L 84 3500 
L 641 3500 
L 641 4494 
L 1759 4494 
z
" transform="scale(0.015625)"/>
      <path id="DejaVuSans-Bold-50" d="M 3781 2919 
Q 3994 3244 4286 3414 
Q 4578 3584 4928 3584 
Q 5531 3584 5847 3212 
Q 6163 2841 6163 2131 
L 6163 0 
L 5038 0 
L 5038 1825 
Q 5041 1866 5042 1909 
Q 5044 1953 5044 2034 
Q 5044 2406 4934 2573 
Q 4825 2741 4581 2741 
Q 4263 2741 4089 2478 
Q 3916 2216 3909 1719 
L 3909 0 
L 2784 0 
L 2784 1825 
Q 2784 2406 2684 2573 
Q 2584 2741 2328 2741 
Q 2006 2741 1831 2477 
Q 1656 2213 1656 1722 
L 1656 0 
L 531 0 
L 531 3500 
L 1656 3500 
L 1656 2988 
Q 1863 3284 2130 3434 
Q 2397 3584 2719 3584 
Q 3081 3584 3359 3409 
Q 3638 3234 3781 2919 
z
" transform="scale(0.015625)"/>
      <path id="DejaVuSans-Bold-b" d="M 2413 -844 
L 1484 -844 
Q 1006 -72 778 623 
Q 550 1319 550 2003 
Q 550 2688 779 3389 
Q 1009 4091 1484 4856 
L 2413 4856 
Q 2013 4116 1813 3408 
Q 1613 2700 1613 2009 
Q 1613 1319 1811 609 
Q 2009 -100 2413 -844 
z
" transform="scale(0.015625)"/>
      <path id="DejaVuSans-Bold-5a" d="M 225 3500 
L 1313 3500 
L 1900 1088 
L 2491 3500 
L 3425 3500 
L 4013 1113 
L 4603 3500 
L 5691 3500 
L 4769 0 
L 3547 0 
L 2956 2406 
L 2369 0 
L 1147 0 
L 225 3500 
z
" transform="scale(0.015625)"/>
      <path id="DejaVuSans-Bold-56" d="M 3272 3391 
L 3272 2541 
Q 2913 2691 2578 2766 
Q 2244 2841 1947 2841 
Q 1628 2841 1473 2761 
Q 1319 2681 1319 2516 
Q 1319 2381 1436 2309 
Q 1553 2238 1856 2203 
L 2053 2175 
Q 2913 2066 3209 1816 
Q 3506 1566 3506 1031 
Q 3506 472 3093 190 
Q 2681 -91 1863 -91 
Q 1516 -91 1145 -36 
Q 775 19 384 128 
L 384 978 
Q 719 816 1070 734 
Q 1422 653 1784 653 
Q 2113 653 2278 743 
Q 2444 834 2444 1013 
Q 2444 1163 2330 1236 
Q 2216 1309 1875 1350 
L 1678 1375 
Q 931 1469 631 1722 
Q 331 1975 331 2491 
Q 331 3047 712 3315 
Q 1094 3584 1881 3584 
Q 2191 3584 2531 3537 
Q 2872 3491 3272 3391 
z
" transform="scale(0.015625)"/>
      <path id="DejaVuSans-Bold-4b" d="M 4056 2131 
L 4056 0 
L 2931 0 
L 2931 347 
L 2931 1625 
Q 2931 2084 2911 2256 
Q 2891 2428 2841 2509 
Q 2775 2619 2662 2680 
Q 2550 2741 2406 2741 
Q 2056 2741 1856 2470 
Q 1656 2200 1656 1722 
L 1656 0 
L 538 0 
L 538 4863 
L 1656 4863 
L 1656 2988 
Q 1909 3294 2193 3439 
Q 2478 3584 2822 3584 
Q 3428 3584 3742 3212 
Q 4056 2841 4056 2131 
z
" transform="scale(0.015625)"/>
      <path id="DejaVuSans-Bold-c" d="M 513 -844 
Q 913 -100 1113 609 
Q 1313 1319 1313 2009 
Q 1313 2700 1113 3408 
Q 913 4116 513 4856 
L 1441 4856 
Q 1916 4091 2145 3389 
Q 2375 2688 2375 2003 
Q 2375 1319 2147 623 
Q 1919 -72 1441 -844 
L 513 -844 
z
" transform="scale(0.015625)"/>
     </defs>
     <use xlink:href="#DejaVuSans-Bold-39"/>
     <use xlink:href="#DejaVuSans-Bold-14" transform="translate(77.390625 0)"/>
     <use xlink:href="#DejaVuSans-Bold-3" transform="translate(146.96875 0)"/>
     <use xlink:href="#DejaVuSans-Bold-79" transform="translate(181.78125 0)"/>
     <use xlink:href="#DejaVuSans-Bold-3" transform="translate(219.765625 0)"/>
     <use xlink:href="#DejaVuSans-Bold-29" transform="translate(254.578125 0)"/>
     <use xlink:href="#DejaVuSans-Bold-48" transform="translate(318.84375 0)"/>
     <use xlink:href="#DejaVuSans-Bold-44" transform="translate(386.671875 0)"/>
     <use xlink:href="#DejaVuSans-Bold-55" transform="translate(454.15625 0)"/>
     <use xlink:href="#DejaVuSans-Bold-3" transform="translate(503.46875 0)"/>
     <use xlink:href="#DejaVuSans-Bold-9" transform="translate(538.28125 0)"/>
     <use xlink:href="#DejaVuSans-Bold-3" transform="translate(625.484375 0)"/>
     <use xlink:href="#DejaVuSans-Bold-2a" transform="translate(660.296875 0)"/>
     <use xlink:href="#DejaVuSans-Bold-55" transform="translate(742.375 0)"/>
     <use xlink:href="#DejaVuSans-Bold-48" transform="translate(791.6875 0)"/>
     <use xlink:href="#DejaVuSans-Bold-48" transform="translate(859.515625 0)"/>
     <use xlink:href="#DejaVuSans-Bold-47" transform="translate(927.34375 0)"/>
     <use xlink:href="#DejaVuSans-Bold-3" transform="translate(998.921875 0)"/>
     <use xlink:href="#DejaVuSans-Bold-4c" transform="translate(1033.734375 0)"/>
     <use xlink:href="#DejaVuSans-Bold-51" transform="translate(1068.015625 0)"/>
     <use xlink:href="#DejaVuSans-Bold-47" transform="translate(1139.203125 0)"/>
     <use xlink:href="#DejaVuSans-Bold-48" transform="translate(1210.78125 0)"/>
     <use xlink:href="#DejaVuSans-Bold-5b" transform="translate(1278.609375 0)"/>
     <use xlink:href="#DejaVuSans-Bold-3" transform="translate(1343.109375 0)"/>
     <use xlink:href="#DejaVuSans-Bold-52" transform="translate(1377.921875 0)"/>
     <use xlink:href="#DejaVuSans-Bold-59" transform="translate(1446.625 0)"/>
     <use xlink:href="#DejaVuSans-Bold-48" transform="translate(1511.8125 0)"/>
     <use xlink:href="#DejaVuSans-Bold-55" transform="translate(1579.640625 0)"/>
     <use xlink:href="#DejaVuSans-Bold-3" transform="translate(1628.953125 0)"/>
     <use xlink:href="#DejaVuSans-Bold-57" transform="translate(1663.765625 0)"/>
     <use xlink:href="#DejaVuSans-Bold-4c" transform="translate(1711.5625 0)"/>
     <use xlink:href="#DejaVuSans-Bold-50" transform="translate(1745.84375 0)"/>
     <use xlink:href="#DejaVuSans-Bold-48" transform="translate(1850.046875 0)"/>
     <use xlink:href="#DejaVuSans-Bold-3" transform="translate(1917.875 0)"/>
     <use xlink:href="#DejaVuSans-Bold-b" transform="translate(1952.6875 0)"/>
     <use xlink:href="#DejaVuSans-Bold-57" transform="translate(1998.390625 0)"/>
     <use xlink:href="#DejaVuSans-Bold-55" transform="translate(2046.1875 0)"/>
     <use xlink:href="#DejaVuSans-Bold-44" transform="translate(2095.5 0)"/>
     <use xlink:href="#DejaVuSans-Bold-47" transform="translate(2162.984375 0)"/>
     <use xlink:href="#DejaVuSans-Bold-48" transform="translate(2234.5625 0)"/>
     <use xlink:href="#DejaVuSans-Bold-3" transform="translate(2302.390625 0)"/>
     <use xlink:href="#DejaVuSans-Bold-5a" transform="translate(2337.203125 0)"/>
     <use xlink:href="#DejaVuSans-Bold-4c" transform="translate(2429.59375 0)"/>
     <use xlink:href="#DejaVuSans-Bold-51" transform="translate(2463.875 0)"/>
     <use xlink:href="#DejaVuSans-Bold-47" transform="translate(2535.0625 0)"/>
     <use xlink:href="#DejaVuSans-Bold-52" transform="translate(2606.640625 0)"/>
     <use xlink:href="#DejaVuSans-Bold-5a" transform="translate(2675.34375 0)"/>
     <use xlink:href="#DejaVuSans-Bold-3" transform="translate(2767.734375 0)"/>
     <use xlink:href="#DejaVuSans-Bold-56" transform="translate(2802.546875 0)"/>
     <use xlink:href="#DejaVuSans-Bold-4b" transform="translate(2862.0625 0)"/>
     <use xlink:href="#DejaVuSans-Bold-44" transform="translate(2933.25 0)"/>
     <use xlink:href="#DejaVuSans-Bold-47" transform="translate(3000.734375 0)"/>
     <use xlink:href="#DejaVuSans-Bold-48" transform="translate(3072.3125 0)"/>
     <use xlink:href="#DejaVuSans-Bold-47" transform="translate(3140.140625 0)"/>
     <use xlink:href="#DejaVuSans-Bold-c" transform="translate(3211.71875 0)"/>
    </g>
   </g>
  </g>
 </g>
 <defs>
  <clipPath id="p4fd1b283f5">
   <rect x="50.197109" y="23.077969" width="558" height="232.848"/>
  </clipPath>
 </defs>
</svg>
