<?xml version="1.0" encoding="utf-8" standalone="no"?>
<!DOCTYPE svg PUBLIC "-//W3C//DTD SVG 1.1//EN"
  "http://www.w3.org/Graphics/SVG/1.1/DTD/svg11.dtd">
<svg xmlns:xlink="http://www.w3.org/1999/xlink" width="573.594609pt" height="307.214828pt" viewBox="0 0 573.594609 307.214828" xmlns="http://www.w3.org/2000/svg" version="1.1">
 <metadata>
  <rdf:RDF xmlns:dc="http://purl.org/dc/elements/1.1/" xmlns:cc="http://creativecommons.org/ns#" xmlns:rdf="http://www.w3.org/1999/02/22-rdf-syntax-ns#">
   <cc:Work>
    <dc:type rdf:resource="http://purl.org/dc/dcmitype/StillImage"/>
    <dc:date>2026-07-03T10:37:31.730133</dc:date>
    <dc:format>image/svg+xml</dc:format>
    <dc:creator>
     <cc:Agent>
      <dc:title>Matplotlib v3.11.0, https://matplotlib.org/</dc:title>
     </cc:Agent>
    </dc:creator>
   </cc:Work>
  </rdf:RDF>
 </metadata>
 <defs>
  <style type="text/css">*{stroke-linejoin: round; stroke-linecap: butt}</style>
 </defs>
 <g id="figure_1">
  <g id="patch_1">
   <path d="M 0 307.214828 
L 573.594609 307.214828 
L 573.594609 0 
L 0 0 
z
" style="fill: #fcfcfb"/>
  </g>
  <g id="axes_1">
   <g id="patch_2">
    <path d="M 64.194609 267.013969 
L 566.394609 267.013969 
L 566.394609 23.077969 
L 64.194609 23.077969 
z
" style="fill: #fcfcfb"/>
   </g>
   <g id="patch_3">
    <path d="M 87.021882 267.013969 
L 94.759941 267.013969 
L 94.759941 266.945993 
L 87.021882 266.945993 
z
" clip-path="url(#p9718d9a948)" style="fill: #2a78d6; opacity: 0.75"/>
   </g>
   <g id="patch_4">
    <path d="M 94.759941 267.013969 
L 102.497999 267.013969 
L 102.497999 267.013969 
L 94.759941 267.013969 
z
" clip-path="url(#p9718d9a948)" style="fill: #2a78d6; opacity: 0.75"/>
   </g>
   <g id="patch_5">
    <path d="M 102.497999 267.013969 
L 110.236058 267.013969 
L 110.236058 266.975126 
L 102.497999 266.975126 
z
" clip-path="url(#p9718d9a948)" style="fill: #2a78d6; opacity: 0.75"/>
   </g>
   <g id="patch_6">
    <path d="M 110.236058 267.013969 
L 117.974116 267.013969 
L 117.974116 266.984836 
L 110.236058 266.984836 
z
" clip-path="url(#p9718d9a948)" style="fill: #2a78d6; opacity: 0.75"/>
   </g>
   <g id="patch_7">
    <path d="M 117.974116 267.013969 
L 125.712175 267.013969 
L 125.712175 266.945993 
L 117.974116 266.945993 
z
" clip-path="url(#p9718d9a948)" style="fill: #2a78d6; opacity: 0.75"/>
   </g>
   <g id="patch_8">
    <path d="M 125.712175 267.013969 
L 133.450233 267.013969 
L 133.450233 266.936283 
L 125.712175 266.936283 
z
" clip-path="url(#p9718d9a948)" style="fill: #2a78d6; opacity: 0.75"/>
   </g>
   <g id="patch_9">
    <path d="M 133.450233 267.013969 
L 141.188292 267.013969 
L 141.188292 266.90715 
L 133.450233 266.90715 
z
" clip-path="url(#p9718d9a948)" style="fill: #2a78d6; opacity: 0.75"/>
   </g>
   <g id="patch_10">
    <path d="M 141.188292 267.013969 
L 148.926351 267.013969 
L 148.926351 266.839175 
L 141.188292 266.839175 
z
" clip-path="url(#p9718d9a948)" style="fill: #2a78d6; opacity: 0.75"/>
   </g>
   <g id="patch_11">
    <path d="M 148.926351 267.013969 
L 156.664409 267.013969 
L 156.664409 266.800332 
L 148.926351 266.800332 
z
" clip-path="url(#p9718d9a948)" style="fill: #2a78d6; opacity: 0.75"/>
   </g>
   <g id="patch_12">
    <path d="M 156.664409 267.013969 
L 164.402468 267.013969 
L 164.402468 266.557563 
L 156.664409 266.557563 
z
" clip-path="url(#p9718d9a948)" style="fill: #2a78d6; opacity: 0.75"/>
   </g>
   <g id="patch_13">
    <path d="M 164.402468 267.013969 
L 172.140526 267.013969 
L 172.140526 266.800332 
L 164.402468 266.800332 
z
" clip-path="url(#p9718d9a948)" style="fill: #2a78d6; opacity: 0.75"/>
   </g>
   <g id="patch_14">
    <path d="M 172.140526 267.013969 
L 179.878585 267.013969 
L 179.878585 266.800332 
L 172.140526 266.800332 
z
" clip-path="url(#p9718d9a948)" style="fill: #2a78d6; opacity: 0.75"/>
   </g>
   <g id="patch_15">
    <path d="M 179.878585 267.013969 
L 187.616643 267.013969 
L 187.616643 266.887729 
L 179.878585 266.887729 
z
" clip-path="url(#p9718d9a948)" style="fill: #2a78d6; opacity: 0.75"/>
   </g>
   <g id="patch_16">
    <path d="M 187.616643 267.013969 
L 195.354702 267.013969 
L 195.354702 266.499299 
L 187.616643 266.499299 
z
" clip-path="url(#p9718d9a948)" style="fill: #2a78d6; opacity: 0.75"/>
   </g>
   <g id="patch_17">
    <path d="M 195.354702 267.013969 
L 203.09276 267.013969 
L 203.09276 266.64496 
L 195.354702 266.64496 
z
" clip-path="url(#p9718d9a948)" style="fill: #2a78d6; opacity: 0.75"/>
   </g>
   <g id="patch_18">
    <path d="M 203.09276 267.013969 
L 210.830819 267.013969 
L 210.830819 266.703225 
L 203.09276 266.703225 
z
" clip-path="url(#p9718d9a948)" style="fill: #2a78d6; opacity: 0.75"/>
   </g>
   <g id="patch_19">
    <path d="M 210.830819 267.013969 
L 218.568877 267.013969 
L 218.568877 266.683803 
L 210.830819 266.683803 
z
" clip-path="url(#p9718d9a948)" style="fill: #2a78d6; opacity: 0.75"/>
   </g>
   <g id="patch_20">
    <path d="M 218.568877 267.013969 
L 226.306936 267.013969 
L 226.306936 266.441034 
L 218.568877 266.441034 
z
" clip-path="url(#p9718d9a948)" style="fill: #2a78d6; opacity: 0.75"/>
   </g>
   <g id="patch_21">
    <path d="M 226.306936 267.013969 
L 234.044995 267.013969 
L 234.044995 266.217687 
L 226.306936 266.217687 
z
" clip-path="url(#p9718d9a948)" style="fill: #2a78d6; opacity: 0.75"/>
   </g>
   <g id="patch_22">
    <path d="M 234.044995 267.013969 
L 241.783053 267.013969 
L 241.783053 266.033183 
L 234.044995 266.033183 
z
" clip-path="url(#p9718d9a948)" style="fill: #2a78d6; opacity: 0.75"/>
   </g>
   <g id="patch_23">
    <path d="M 241.783053 267.013969 
L 249.521112 267.013969 
L 249.521112 253.049909 
L 241.783053 253.049909 
z
" clip-path="url(#p9718d9a948)" style="fill: #2a78d6; opacity: 0.75"/>
   </g>
   <g id="patch_24">
    <path d="M 249.521112 267.013969 
L 257.25917 267.013969 
L 257.25917 214.439964 
L 249.521112 214.439964 
z
" clip-path="url(#p9718d9a948)" style="fill: #2a78d6; opacity: 0.75"/>
   </g>
   <g id="patch_25">
    <path d="M 257.25917 267.013969 
L 264.997229 267.013969 
L 264.997229 230.16167 
L 257.25917 230.16167 
z
" clip-path="url(#p9718d9a948)" style="fill: #2a78d6; opacity: 0.75"/>
   </g>
   <g id="patch_26">
    <path d="M 264.997229 267.013969 
L 272.735287 267.013969 
L 272.735287 242.144736 
L 264.997229 242.144736 
z
" clip-path="url(#p9718d9a948)" style="fill: #2a78d6; opacity: 0.75"/>
   </g>
   <g id="patch_27">
    <path d="M 272.735287 267.013969 
L 280.473346 267.013969 
L 280.473346 235.85217 
L 272.735287 235.85217 
z
" clip-path="url(#p9718d9a948)" style="fill: #2a78d6; opacity: 0.75"/>
   </g>
   <g id="patch_28">
    <path d="M 280.473346 267.013969 
L 288.211404 267.013969 
L 288.211404 215.857734 
L 280.473346 215.857734 
z
" clip-path="url(#p9718d9a948)" style="fill: #2a78d6; opacity: 0.75"/>
   </g>
   <g id="patch_29">
    <path d="M 288.211404 267.013969 
L 295.949463 267.013969 
L 295.949463 239.823867 
L 288.211404 239.823867 
z
" clip-path="url(#p9718d9a948)" style="fill: #2a78d6; opacity: 0.75"/>
   </g>
   <g id="patch_30">
    <path d="M 295.949463 267.013969 
L 303.687522 267.013969 
L 303.687522 209.273845 
L 295.949463 209.273845 
z
" clip-path="url(#p9718d9a948)" style="fill: #2a78d6; opacity: 0.75"/>
   </g>
   <g id="patch_31">
    <path d="M 303.687522 267.013969 
L 311.42558 267.013969 
L 311.42558 210.410003 
L 303.687522 210.410003 
z
" clip-path="url(#p9718d9a948)" style="fill: #2a78d6; opacity: 0.75"/>
   </g>
   <g id="patch_32">
    <path d="M 311.42558 267.013969 
L 319.163639 267.013969 
L 319.163639 176.975888 
L 311.42558 176.975888 
z
" clip-path="url(#p9718d9a948)" style="fill: #2a78d6; opacity: 0.75"/>
   </g>
   <g id="patch_33">
    <path d="M 319.163639 267.013969 
L 326.901697 267.013969 
L 326.901697 179.539526 
L 319.163639 179.539526 
z
" clip-path="url(#p9718d9a948)" style="fill: #2a78d6; opacity: 0.75"/>
   </g>
   <g id="patch_34">
    <path d="M 326.901697 267.013969 
L 334.639756 267.013969 
L 334.639756 191.037055 
L 326.901697 191.037055 
z
" clip-path="url(#p9718d9a948)" style="fill: #2a78d6; opacity: 0.75"/>
   </g>
   <g id="patch_35">
    <path d="M 334.639756 267.013969 
L 342.377814 267.013969 
L 342.377814 34.693969 
L 334.639756 34.693969 
z
" clip-path="url(#p9718d9a948)" style="fill: #2a78d6; opacity: 0.75"/>
   </g>
   <g id="patch_36">
    <path d="M 342.377814 267.013969 
L 350.115873 267.013969 
L 350.115873 168.935387 
L 342.377814 168.935387 
z
" clip-path="url(#p9718d9a948)" style="fill: #2a78d6; opacity: 0.75"/>
   </g>
   <g id="patch_37">
    <path d="M 350.115873 267.013969 
L 357.853931 267.013969 
L 357.853931 117.089689 
L 350.115873 117.089689 
z
" clip-path="url(#p9718d9a948)" style="fill: #2a78d6; opacity: 0.75"/>
   </g>
   <g id="patch_38">
    <path d="M 357.853931 267.013969 
L 365.59199 267.013969 
L 365.59199 189.920319 
L 357.853931 189.920319 
z
" clip-path="url(#p9718d9a948)" style="fill: #2a78d6; opacity: 0.75"/>
   </g>
   <g id="patch_39">
    <path d="M 365.59199 267.013969 
L 373.330049 267.013969 
L 373.330049 154.048806 
L 365.59199 154.048806 
z
" clip-path="url(#p9718d9a948)" style="fill: #2a78d6; opacity: 0.75"/>
   </g>
   <g id="patch_40">
    <path d="M 373.330049 267.013969 
L 381.068107 267.013969 
L 381.068107 194.406686 
L 373.330049 194.406686 
z
" clip-path="url(#p9718d9a948)" style="fill: #2a78d6; opacity: 0.75"/>
   </g>
   <g id="patch_41">
    <path d="M 381.068107 267.013969 
L 388.806166 267.013969 
L 388.806166 220.033357 
L 381.068107 220.033357 
z
" clip-path="url(#p9718d9a948)" style="fill: #2a78d6; opacity: 0.75"/>
   </g>
   <g id="patch_42">
    <path d="M 388.806166 267.013969 
L 396.544224 267.013969 
L 396.544224 205.379834 
L 388.806166 205.379834 
z
" clip-path="url(#p9718d9a948)" style="fill: #2a78d6; opacity: 0.75"/>
   </g>
   <g id="patch_43">
    <path d="M 396.544224 267.013969 
L 404.282283 267.013969 
L 404.282283 227.695139 
L 396.544224 227.695139 
z
" clip-path="url(#p9718d9a948)" style="fill: #2a78d6; opacity: 0.75"/>
   </g>
   <g id="patch_44">
    <path d="M 404.282283 267.013969 
L 412.020341 267.013969 
L 412.020341 216.955049 
L 404.282283 216.955049 
z
" clip-path="url(#p9718d9a948)" style="fill: #2a78d6; opacity: 0.75"/>
   </g>
   <g id="patch_45">
    <path d="M 412.020341 267.013969 
L 419.7584 267.013969 
L 419.7584 239.891842 
L 412.020341 239.891842 
z
" clip-path="url(#p9718d9a948)" style="fill: #2a78d6; opacity: 0.75"/>
   </g>
   <g id="patch_46">
    <path d="M 419.7584 267.013969 
L 427.496458 267.013969 
L 427.496458 236.862088 
L 419.7584 236.862088 
z
" clip-path="url(#p9718d9a948)" style="fill: #2a78d6; opacity: 0.75"/>
   </g>
   <g id="patch_47">
    <path d="M 427.496458 267.013969 
L 435.234517 267.013969 
L 435.234517 249.087923 
L 427.496458 249.087923 
z
" clip-path="url(#p9718d9a948)" style="fill: #2a78d6; opacity: 0.75"/>
   </g>
   <g id="patch_48">
    <path d="M 435.234517 267.013969 
L 442.972575 267.013969 
L 442.972575 240.591016 
L 435.234517 240.591016 
z
" clip-path="url(#p9718d9a948)" style="fill: #2a78d6; opacity: 0.75"/>
   </g>
   <g id="patch_49">
    <path d="M 442.972575 267.013969 
L 450.710634 267.013969 
L 450.710634 255.846605 
L 442.972575 255.846605 
z
" clip-path="url(#p9718d9a948)" style="fill: #2a78d6; opacity: 0.75"/>
   </g>
   <g id="patch_50">
    <path d="M 450.710634 267.013969 
L 458.448693 267.013969 
L 458.448693 256.93421 
L 450.710634 256.93421 
z
" clip-path="url(#p9718d9a948)" style="fill: #2a78d6; opacity: 0.75"/>
   </g>
   <g id="patch_51">
    <path d="M 458.448693 267.013969 
L 466.186751 267.013969 
L 466.186751 260.973882 
L 458.448693 260.973882 
z
" clip-path="url(#p9718d9a948)" style="fill: #2a78d6; opacity: 0.75"/>
   </g>
   <g id="patch_52">
    <path d="M 466.186751 267.013969 
L 473.92481 267.013969 
L 473.92481 262.391651 
L 466.186751 262.391651 
z
" clip-path="url(#p9718d9a948)" style="fill: #2a78d6; opacity: 0.75"/>
   </g>
   <g id="patch_53">
    <path d="M 473.92481 267.013969 
L 481.662868 267.013969 
L 481.662868 264.071611 
L 473.92481 264.071611 
z
" clip-path="url(#p9718d9a948)" style="fill: #2a78d6; opacity: 0.75"/>
   </g>
   <g id="patch_54">
    <path d="M 481.662868 267.013969 
L 489.400927 267.013969 
L 489.400927 265.023265 
L 481.662868 265.023265 
z
" clip-path="url(#p9718d9a948)" style="fill: #2a78d6; opacity: 0.75"/>
   </g>
   <g id="patch_55">
    <path d="M 489.400927 267.013969 
L 497.138985 267.013969 
L 497.138985 266.072026 
L 489.400927 266.072026 
z
" clip-path="url(#p9718d9a948)" style="fill: #2a78d6; opacity: 0.75"/>
   </g>
   <g id="patch_56">
    <path d="M 497.138985 267.013969 
L 504.877044 267.013969 
L 504.877044 266.460456 
L 497.138985 266.460456 
z
" clip-path="url(#p9718d9a948)" style="fill: #2a78d6; opacity: 0.75"/>
   </g>
   <g id="patch_57">
    <path d="M 504.877044 267.013969 
L 512.615102 267.013969 
L 512.615102 266.693514 
L 504.877044 266.693514 
z
" clip-path="url(#p9718d9a948)" style="fill: #2a78d6; opacity: 0.75"/>
   </g>
   <g id="patch_58">
    <path d="M 512.615102 267.013969 
L 520.353161 267.013969 
L 520.353161 266.868307 
L 512.615102 266.868307 
z
" clip-path="url(#p9718d9a948)" style="fill: #2a78d6; opacity: 0.75"/>
   </g>
   <g id="patch_59">
    <path d="M 520.353161 267.013969 
L 528.09122 267.013969 
L 528.09122 266.955704 
L 520.353161 266.955704 
z
" clip-path="url(#p9718d9a948)" style="fill: #2a78d6; opacity: 0.75"/>
   </g>
   <g id="patch_60">
    <path d="M 528.09122 267.013969 
L 535.829278 267.013969 
L 535.829278 266.965415 
L 528.09122 266.965415 
z
" clip-path="url(#p9718d9a948)" style="fill: #2a78d6; opacity: 0.75"/>
   </g>
   <g id="patch_61">
    <path d="M 535.829278 267.013969 
L 543.567337 267.013969 
L 543.567337 266.945993 
L 535.829278 266.945993 
z
" clip-path="url(#p9718d9a948)" style="fill: #2a78d6; opacity: 0.75"/>
   </g>
   <g id="patch_62">
    <path d="M 87.021882 267.013969 
L 94.759941 267.013969 
L 94.759941 266.868307 
L 87.021882 266.868307 
z
" clip-path="url(#p9718d9a948)" style="fill: #1baf7a; opacity: 0.65"/>
   </g>
   <g id="patch_63">
    <path d="M 94.759941 267.013969 
L 102.497999 267.013969 
L 102.497999 267.013969 
L 94.759941 267.013969 
z
" clip-path="url(#p9718d9a948)" style="fill: #1baf7a; opacity: 0.65"/>
   </g>
   <g id="patch_64">
    <path d="M 102.497999 267.013969 
L 110.236058 267.013969 
L 110.236058 266.984836 
L 102.497999 266.984836 
z
" clip-path="url(#p9718d9a948)" style="fill: #1baf7a; opacity: 0.65"/>
   </g>
   <g id="patch_65">
    <path d="M 110.236058 267.013969 
L 117.974116 267.013969 
L 117.974116 266.975126 
L 110.236058 266.975126 
z
" clip-path="url(#p9718d9a948)" style="fill: #1baf7a; opacity: 0.65"/>
   </g>
   <g id="patch_66">
    <path d="M 117.974116 267.013969 
L 125.712175 267.013969 
L 125.712175 266.90715 
L 117.974116 266.90715 
z
" clip-path="url(#p9718d9a948)" style="fill: #1baf7a; opacity: 0.65"/>
   </g>
   <g id="patch_67">
    <path d="M 125.712175 267.013969 
L 133.450233 267.013969 
L 133.450233 266.936283 
L 125.712175 266.936283 
z
" clip-path="url(#p9718d9a948)" style="fill: #1baf7a; opacity: 0.65"/>
   </g>
   <g id="patch_68">
    <path d="M 133.450233 267.013969 
L 141.188292 267.013969 
L 141.188292 266.945993 
L 133.450233 266.945993 
z
" clip-path="url(#p9718d9a948)" style="fill: #1baf7a; opacity: 0.65"/>
   </g>
   <g id="patch_69">
    <path d="M 141.188292 267.013969 
L 148.926351 267.013969 
L 148.926351 266.916861 
L 141.188292 266.916861 
z
" clip-path="url(#p9718d9a948)" style="fill: #1baf7a; opacity: 0.65"/>
   </g>
   <g id="patch_70">
    <path d="M 148.926351 267.013969 
L 156.664409 267.013969 
L 156.664409 266.955704 
L 148.926351 266.955704 
z
" clip-path="url(#p9718d9a948)" style="fill: #1baf7a; opacity: 0.65"/>
   </g>
   <g id="patch_71">
    <path d="M 156.664409 267.013969 
L 164.402468 267.013969 
L 164.402468 266.858597 
L 156.664409 266.858597 
z
" clip-path="url(#p9718d9a948)" style="fill: #1baf7a; opacity: 0.65"/>
   </g>
   <g id="patch_72">
    <path d="M 164.402468 267.013969 
L 172.140526 267.013969 
L 172.140526 266.984836 
L 164.402468 266.984836 
z
" clip-path="url(#p9718d9a948)" style="fill: #1baf7a; opacity: 0.65"/>
   </g>
   <g id="patch_73">
    <path d="M 172.140526 267.013969 
L 179.878585 267.013969 
L 179.878585 266.916861 
L 172.140526 266.916861 
z
" clip-path="url(#p9718d9a948)" style="fill: #1baf7a; opacity: 0.65"/>
   </g>
   <g id="patch_74">
    <path d="M 179.878585 267.013969 
L 187.616643 267.013969 
L 187.616643 266.819754 
L 179.878585 266.819754 
z
" clip-path="url(#p9718d9a948)" style="fill: #1baf7a; opacity: 0.65"/>
   </g>
   <g id="patch_75">
    <path d="M 187.616643 267.013969 
L 195.354702 267.013969 
L 195.354702 266.916861 
L 187.616643 266.916861 
z
" clip-path="url(#p9718d9a948)" style="fill: #1baf7a; opacity: 0.65"/>
   </g>
   <g id="patch_76">
    <path d="M 195.354702 267.013969 
L 203.09276 267.013969 
L 203.09276 266.878018 
L 195.354702 266.878018 
z
" clip-path="url(#p9718d9a948)" style="fill: #1baf7a; opacity: 0.65"/>
   </g>
   <g id="patch_77">
    <path d="M 203.09276 267.013969 
L 210.830819 267.013969 
L 210.830819 266.839175 
L 203.09276 266.839175 
z
" clip-path="url(#p9718d9a948)" style="fill: #1baf7a; opacity: 0.65"/>
   </g>
   <g id="patch_78">
    <path d="M 210.830819 267.013969 
L 218.568877 267.013969 
L 218.568877 266.829464 
L 210.830819 266.829464 
z
" clip-path="url(#p9718d9a948)" style="fill: #1baf7a; opacity: 0.65"/>
   </g>
   <g id="patch_79">
    <path d="M 218.568877 267.013969 
L 226.306936 267.013969 
L 226.306936 266.64496 
L 218.568877 266.64496 
z
" clip-path="url(#p9718d9a948)" style="fill: #1baf7a; opacity: 0.65"/>
   </g>
   <g id="patch_80">
    <path d="M 226.306936 267.013969 
L 234.044995 267.013969 
L 234.044995 266.732357 
L 226.306936 266.732357 
z
" clip-path="url(#p9718d9a948)" style="fill: #1baf7a; opacity: 0.65"/>
   </g>
   <g id="patch_81">
    <path d="M 234.044995 267.013969 
L 241.783053 267.013969 
L 241.783053 266.392481 
L 234.044995 266.392481 
z
" clip-path="url(#p9718d9a948)" style="fill: #1baf7a; opacity: 0.65"/>
   </g>
   <g id="patch_82">
    <path d="M 241.783053 267.013969 
L 249.521112 267.013969 
L 249.521112 262.741238 
L 241.783053 262.741238 
z
" clip-path="url(#p9718d9a948)" style="fill: #1baf7a; opacity: 0.65"/>
   </g>
   <g id="patch_83">
    <path d="M 249.521112 267.013969 
L 257.25917 267.013969 
L 257.25917 252.67119 
L 249.521112 252.67119 
z
" clip-path="url(#p9718d9a948)" style="fill: #1baf7a; opacity: 0.65"/>
   </g>
   <g id="patch_84">
    <path d="M 257.25917 267.013969 
L 264.997229 267.013969 
L 264.997229 255.477597 
L 257.25917 255.477597 
z
" clip-path="url(#p9718d9a948)" style="fill: #1baf7a; opacity: 0.65"/>
   </g>
   <g id="patch_85">
    <path d="M 264.997229 267.013969 
L 272.735287 267.013969 
L 272.735287 256.94392 
L 264.997229 256.94392 
z
" clip-path="url(#p9718d9a948)" style="fill: #1baf7a; opacity: 0.65"/>
   </g>
   <g id="patch_86">
    <path d="M 272.735287 267.013969 
L 280.473346 267.013969 
L 280.473346 257.779045 
L 272.735287 257.779045 
z
" clip-path="url(#p9718d9a948)" style="fill: #1baf7a; opacity: 0.65"/>
   </g>
   <g id="patch_87">
    <path d="M 280.473346 267.013969 
L 288.211404 267.013969 
L 288.211404 250.039577 
L 280.473346 250.039577 
z
" clip-path="url(#p9718d9a948)" style="fill: #1baf7a; opacity: 0.65"/>
   </g>
   <g id="patch_88">
    <path d="M 288.211404 267.013969 
L 295.949463 267.013969 
L 295.949463 254.108381 
L 288.211404 254.108381 
z
" clip-path="url(#p9718d9a948)" style="fill: #1baf7a; opacity: 0.65"/>
   </g>
   <g id="patch_89">
    <path d="M 295.949463 267.013969 
L 303.687522 267.013969 
L 303.687522 245.310441 
L 295.949463 245.310441 
z
" clip-path="url(#p9718d9a948)" style="fill: #1baf7a; opacity: 0.65"/>
   </g>
   <g id="patch_90">
    <path d="M 303.687522 267.013969 
L 311.42558 267.013969 
L 311.42558 248.330484 
L 303.687522 248.330484 
z
" clip-path="url(#p9718d9a948)" style="fill: #1baf7a; opacity: 0.65"/>
   </g>
   <g id="patch_91">
    <path d="M 311.42558 267.013969 
L 319.163639 267.013969 
L 319.163639 246.728211 
L 311.42558 246.728211 
z
" clip-path="url(#p9718d9a948)" style="fill: #1baf7a; opacity: 0.65"/>
   </g>
   <g id="patch_92">
    <path d="M 319.163639 267.013969 
L 326.901697 267.013969 
L 326.901697 242.173868 
L 319.163639 242.173868 
z
" clip-path="url(#p9718d9a948)" style="fill: #1baf7a; opacity: 0.65"/>
   </g>
   <g id="patch_93">
    <path d="M 326.901697 267.013969 
L 334.639756 267.013969 
L 334.639756 244.805482 
L 326.901697 244.805482 
z
" clip-path="url(#p9718d9a948)" style="fill: #1baf7a; opacity: 0.65"/>
   </g>
   <g id="patch_94">
    <path d="M 334.639756 267.013969 
L 342.377814 267.013969 
L 342.377814 241.474694 
L 334.639756 241.474694 
z
" clip-path="url(#p9718d9a948)" style="fill: #1baf7a; opacity: 0.65"/>
   </g>
   <g id="patch_95">
    <path d="M 342.377814 267.013969 
L 350.115873 267.013969 
L 350.115873 242.649695 
L 342.377814 242.649695 
z
" clip-path="url(#p9718d9a948)" style="fill: #1baf7a; opacity: 0.65"/>
   </g>
   <g id="patch_96">
    <path d="M 350.115873 267.013969 
L 357.853931 267.013969 
L 357.853931 248.573253 
L 350.115873 248.573253 
z
" clip-path="url(#p9718d9a948)" style="fill: #1baf7a; opacity: 0.65"/>
   </g>
   <g id="patch_97">
    <path d="M 357.853931 267.013969 
L 365.59199 267.013969 
L 365.59199 252.972223 
L 357.853931 252.972223 
z
" clip-path="url(#p9718d9a948)" style="fill: #1baf7a; opacity: 0.65"/>
   </g>
   <g id="patch_98">
    <path d="M 365.59199 267.013969 
L 373.330049 267.013969 
L 373.330049 239.377172 
L 365.59199 239.377172 
z
" clip-path="url(#p9718d9a948)" style="fill: #1baf7a; opacity: 0.65"/>
   </g>
   <g id="patch_99">
    <path d="M 373.330049 267.013969 
L 381.068107 267.013969 
L 381.068107 251.039784 
L 373.330049 251.039784 
z
" clip-path="url(#p9718d9a948)" style="fill: #1baf7a; opacity: 0.65"/>
   </g>
   <g id="patch_100">
    <path d="M 381.068107 267.013969 
L 388.806166 267.013969 
L 388.806166 255.040613 
L 381.068107 255.040613 
z
" clip-path="url(#p9718d9a948)" style="fill: #1baf7a; opacity: 0.65"/>
   </g>
   <g id="patch_101">
    <path d="M 388.806166 267.013969 
L 396.544224 267.013969 
L 396.544224 254.603629 
L 388.806166 254.603629 
z
" clip-path="url(#p9718d9a948)" style="fill: #1baf7a; opacity: 0.65"/>
   </g>
   <g id="patch_102">
    <path d="M 396.544224 267.013969 
L 404.282283 267.013969 
L 404.282283 262.148883 
L 396.544224 262.148883 
z
" clip-path="url(#p9718d9a948)" style="fill: #1baf7a; opacity: 0.65"/>
   </g>
   <g id="patch_103">
    <path d="M 404.282283 267.013969 
L 412.020341 267.013969 
L 412.020341 262.24599 
L 404.282283 262.24599 
z
" clip-path="url(#p9718d9a948)" style="fill: #1baf7a; opacity: 0.65"/>
   </g>
   <g id="patch_104">
    <path d="M 412.020341 267.013969 
L 419.7584 267.013969 
L 419.7584 264.324091 
L 412.020341 264.324091 
z
" clip-path="url(#p9718d9a948)" style="fill: #1baf7a; opacity: 0.65"/>
   </g>
   <g id="patch_105">
    <path d="M 419.7584 267.013969 
L 427.496458 267.013969 
L 427.496458 265.207769 
L 419.7584 265.207769 
z
" clip-path="url(#p9718d9a948)" style="fill: #1baf7a; opacity: 0.65"/>
   </g>
   <g id="patch_106">
    <path d="M 427.496458 267.013969 
L 435.234517 267.013969 
L 435.234517 266.217687 
L 427.496458 266.217687 
z
" clip-path="url(#p9718d9a948)" style="fill: #1baf7a; opacity: 0.65"/>
   </g>
   <g id="patch_107">
    <path d="M 435.234517 267.013969 
L 442.972575 267.013969 
L 442.972575 266.499299 
L 435.234517 266.499299 
z
" clip-path="url(#p9718d9a948)" style="fill: #1baf7a; opacity: 0.65"/>
   </g>
   <g id="patch_108">
    <path d="M 442.972575 267.013969 
L 450.710634 267.013969 
L 450.710634 266.615828 
L 442.972575 266.615828 
z
" clip-path="url(#p9718d9a948)" style="fill: #1baf7a; opacity: 0.65"/>
   </g>
   <g id="patch_109">
    <path d="M 450.710634 267.013969 
L 458.448693 267.013969 
L 458.448693 266.858597 
L 450.710634 266.858597 
z
" clip-path="url(#p9718d9a948)" style="fill: #1baf7a; opacity: 0.65"/>
   </g>
   <g id="patch_110">
    <path d="M 458.448693 267.013969 
L 466.186751 267.013969 
L 466.186751 266.926572 
L 458.448693 266.926572 
z
" clip-path="url(#p9718d9a948)" style="fill: #1baf7a; opacity: 0.65"/>
   </g>
   <g id="patch_111">
    <path d="M 466.186751 267.013969 
L 473.92481 267.013969 
L 473.92481 266.955704 
L 466.186751 266.955704 
z
" clip-path="url(#p9718d9a948)" style="fill: #1baf7a; opacity: 0.65"/>
   </g>
   <g id="patch_112">
    <path d="M 473.92481 267.013969 
L 481.662868 267.013969 
L 481.662868 267.013969 
L 473.92481 267.013969 
z
" clip-path="url(#p9718d9a948)" style="fill: #1baf7a; opacity: 0.65"/>
   </g>
   <g id="patch_113">
    <path d="M 481.662868 267.013969 
L 489.400927 267.013969 
L 489.400927 267.013969 
L 481.662868 267.013969 
z
" clip-path="url(#p9718d9a948)" style="fill: #1baf7a; opacity: 0.65"/>
   </g>
   <g id="patch_114">
    <path d="M 489.400927 267.013969 
L 497.138985 267.013969 
L 497.138985 267.004258 
L 489.400927 267.004258 
z
" clip-path="url(#p9718d9a948)" style="fill: #1baf7a; opacity: 0.65"/>
   </g>
   <g id="patch_115">
    <path d="M 497.138985 267.013969 
L 504.877044 267.013969 
L 504.877044 267.013969 
L 497.138985 267.013969 
z
" clip-path="url(#p9718d9a948)" style="fill: #1baf7a; opacity: 0.65"/>
   </g>
   <g id="patch_116">
    <path d="M 504.877044 267.013969 
L 512.615102 267.013969 
L 512.615102 267.013969 
L 504.877044 267.013969 
z
" clip-path="url(#p9718d9a948)" style="fill: #1baf7a; opacity: 0.65"/>
   </g>
   <g id="patch_117">
    <path d="M 512.615102 267.013969 
L 520.353161 267.013969 
L 520.353161 267.013969 
L 512.615102 267.013969 
z
" clip-path="url(#p9718d9a948)" style="fill: #1baf7a; opacity: 0.65"/>
   </g>
   <g id="patch_118">
    <path d="M 520.353161 267.013969 
L 528.09122 267.013969 
L 528.09122 267.013969 
L 520.353161 267.013969 
z
" clip-path="url(#p9718d9a948)" style="fill: #1baf7a; opacity: 0.65"/>
   </g>
   <g id="patch_119">
    <path d="M 528.09122 267.013969 
L 535.829278 267.013969 
L 535.829278 267.013969 
L 528.09122 267.013969 
z
" clip-path="url(#p9718d9a948)" style="fill: #1baf7a; opacity: 0.65"/>
   </g>
   <g id="patch_120">
    <path d="M 535.829278 267.013969 
L 543.567337 267.013969 
L 543.567337 267.013969 
L 535.829278 267.013969 
z
" clip-path="url(#p9718d9a948)" style="fill: #1baf7a; opacity: 0.65"/>
   </g>
   <g id="matplotlib.axis_1">
    <g id="xtick_1">
     <g id="line2d_1">
      <path d="M 87.021882 267.013969 
L 87.021882 23.077969 
" clip-path="url(#p9718d9a948)" style="fill: none; stroke: #e1e0d9; stroke-width: 0.8; stroke-linecap: square"/>
     </g>
     <g id="line2d_2">
      <defs>
       <path id="m2a12964c65" d="M 0 0 
L 0 3.5 
" style="stroke: #898781; stroke-width: 0.8"/>
      </defs>
      <g>
       <use xlink:href="#m2a12964c65" x="87.021882" y="267.013969" style="fill: #898781; stroke: #898781; stroke-width: 0.8"/>
      </g>
     </g>
     <g id="text_1">
      <!-- −2 -->
      <g style="fill: #52514e" transform="translate(78.913679 282.371391) scale(0.11 -0.11)">
       <defs>
        <path id="DejaVuSans-c9c" d="M 678 2272 
L 4684 2272 
L 4684 1741 
L 678 1741 
L 678 2272 
z
" transform="scale(0.015625)"/>
        <path id="DejaVuSans-15" d="M 1228 531 
L 3431 531 
L 3431 0 
L 469 0 
L 469 531 
Q 828 903 1448 1529 
Q 2069 2156 2228 2338 
Q 2531 2678 2651 2914 
Q 2772 3150 2772 3378 
Q 2772 3750 2511 3984 
Q 2250 4219 1831 4219 
Q 1534 4219 1204 4116 
Q 875 4013 500 3803 
L 500 4441 
Q 881 4594 1212 4672 
Q 1544 4750 1819 4750 
Q 2544 4750 2975 4387 
Q 3406 4025 3406 3419 
Q 3406 3131 3298 2873 
Q 3191 2616 2906 2266 
Q 2828 2175 2409 1742 
Q 1991 1309 1228 531 
z
" transform="scale(0.015625)"/>
       </defs>
       <use xlink:href="#DejaVuSans-c9c"/>
       <use xlink:href="#DejaVuSans-15" transform="translate(83.796875 0)"/>
      </g>
     </g>
    </g>
    <g id="xtick_2">
     <g id="line2d_3">
      <path d="M 193.276237 267.013969 
L 193.276237 23.077969 
" clip-path="url(#p9718d9a948)" style="fill: none; stroke: #e1e0d9; stroke-width: 0.8; stroke-linecap: square"/>
     </g>
     <g id="line2d_4">
      <g>
       <use xlink:href="#m2a12964c65" x="193.276237" y="267.013969" style="fill: #898781; stroke: #898781; stroke-width: 0.8"/>
      </g>
     </g>
     <g id="text_2">
      <!-- 0 -->
      <g style="fill: #52514e" transform="translate(189.776862 282.371391) scale(0.11 -0.11)">
       <defs>
        <path id="DejaVuSans-13" d="M 2034 4250 
Q 1547 4250 1301 3770 
Q 1056 3291 1056 2328 
Q 1056 1369 1301 889 
Q 1547 409 2034 409 
Q 2525 409 2770 889 
Q 3016 1369 3016 2328 
Q 3016 3291 2770 3770 
Q 2525 4250 2034 4250 
z
M 2034 4750 
Q 2819 4750 3233 4129 
Q 3647 3509 3647 2328 
Q 3647 1150 3233 529 
Q 2819 -91 2034 -91 
Q 1250 -91 836 529 
Q 422 1150 422 2328 
Q 422 3509 836 4129 
Q 1250 4750 2034 4750 
z
" transform="scale(0.015625)"/>
       </defs>
       <use xlink:href="#DejaVuSans-13"/>
      </g>
     </g>
    </g>
    <g id="xtick_3">
     <g id="line2d_5">
      <path d="M 299.530592 267.013969 
L 299.530592 23.077969 
" clip-path="url(#p9718d9a948)" style="fill: none; stroke: #e1e0d9; stroke-width: 0.8; stroke-linecap: square"/>
     </g>
     <g id="line2d_6">
      <g>
       <use xlink:href="#m2a12964c65" x="299.530592" y="267.013969" style="fill: #898781; stroke: #898781; stroke-width: 0.8"/>
      </g>
     </g>
     <g id="text_3">
      <!-- 2 -->
      <g style="fill: #52514e" transform="translate(296.031217 282.371391) scale(0.11 -0.11)">
       <use xlink:href="#DejaVuSans-15"/>
      </g>
     </g>
    </g>
    <g id="xtick_4">
     <g id="line2d_7">
      <path d="M 405.784948 267.013969 
L 405.784948 23.077969 
" clip-path="url(#p9718d9a948)" style="fill: none; stroke: #e1e0d9; stroke-width: 0.8; stroke-linecap: square"/>
     </g>
     <g id="line2d_8">
      <g>
       <use xlink:href="#m2a12964c65" x="405.784948" y="267.013969" style="fill: #898781; stroke: #898781; stroke-width: 0.8"/>
      </g>
     </g>
     <g id="text_4">
      <!-- 4 -->
      <g style="fill: #52514e" transform="translate(402.285573 282.371391) scale(0.11 -0.11)">
       <defs>
        <path id="DejaVuSans-17" d="M 2419 4116 
L 825 1625 
L 2419 1625 
L 2419 4116 
z
M 2253 4666 
L 3047 4666 
L 3047 1625 
L 3713 1625 
L 3713 1100 
L 3047 1100 
L 3047 0 
L 2419 0 
L 2419 1100 
L 313 1100 
L 313 1709 
L 2253 4666 
z
" transform="scale(0.015625)"/>
       </defs>
       <use xlink:href="#DejaVuSans-17"/>
      </g>
     </g>
    </g>
    <g id="xtick_5">
     <g id="line2d_9">
      <path d="M 512.039303 267.013969 
L 512.039303 23.077969 
" clip-path="url(#p9718d9a948)" style="fill: none; stroke: #e1e0d9; stroke-width: 0.8; stroke-linecap: square"/>
     </g>
     <g id="line2d_10">
      <g>
       <use xlink:href="#m2a12964c65" x="512.039303" y="267.013969" style="fill: #898781; stroke: #898781; stroke-width: 0.8"/>
      </g>
     </g>
     <g id="text_5">
      <!-- 6 -->
      <g style="fill: #52514e" transform="translate(508.539928 282.371391) scale(0.11 -0.11)">
       <defs>
        <path id="DejaVuSans-19" d="M 2113 2584 
Q 1688 2584 1439 2293 
Q 1191 2003 1191 1497 
Q 1191 994 1439 701 
Q 1688 409 2113 409 
Q 2538 409 2786 701 
Q 3034 994 3034 1497 
Q 3034 2003 2786 2293 
Q 2538 2584 2113 2584 
z
M 3366 4563 
L 3366 3988 
Q 3128 4100 2886 4159 
Q 2644 4219 2406 4219 
Q 1781 4219 1451 3797 
Q 1122 3375 1075 2522 
Q 1259 2794 1537 2939 
Q 1816 3084 2150 3084 
Q 2853 3084 3261 2657 
Q 3669 2231 3669 1497 
Q 3669 778 3244 343 
Q 2819 -91 2113 -91 
Q 1303 -91 875 529 
Q 447 1150 447 2328 
Q 447 3434 972 4092 
Q 1497 4750 2381 4750 
Q 2619 4750 2861 4703 
Q 3103 4656 3366 4563 
z
" transform="scale(0.015625)"/>
       </defs>
       <use xlink:href="#DejaVuSans-19"/>
      </g>
     </g>
    </g>
    <g id="text_6">
     <!-- log10(Size USD) -->
     <g style="fill: #52514e" transform="translate(270.828828 297.37225) scale(0.11 -0.11)">
      <defs>
       <path id="DejaVuSans-4f" d="M 603 4863 
L 1178 4863 
L 1178 0 
L 603 0 
L 603 4863 
z
" transform="scale(0.015625)"/>
       <path id="DejaVuSans-52" d="M 1959 3097 
Q 1497 3097 1228 2736 
Q 959 2375 959 1747 
Q 959 1119 1226 758 
Q 1494 397 1959 397 
Q 2419 397 2687 759 
Q 2956 1122 2956 1747 
Q 2956 2369 2687 2733 
Q 2419 3097 1959 3097 
z
M 1959 3584 
Q 2709 3584 3137 3096 
Q 3566 2609 3566 1747 
Q 3566 888 3137 398 
Q 2709 -91 1959 -91 
Q 1206 -91 779 398 
Q 353 888 353 1747 
Q 353 2609 779 3096 
Q 1206 3584 1959 3584 
z
" transform="scale(0.015625)"/>
       <path id="DejaVuSans-4a" d="M 2906 1791 
Q 2906 2416 2648 2759 
Q 2391 3103 1925 3103 
Q 1463 3103 1205 2759 
Q 947 2416 947 1791 
Q 947 1169 1205 825 
Q 1463 481 1925 481 
Q 2391 481 2648 825 
Q 2906 1169 2906 1791 
z
M 3481 434 
Q 3481 -459 3084 -895 
Q 2688 -1331 1869 -1331 
Q 1566 -1331 1297 -1286 
Q 1028 -1241 775 -1147 
L 775 -588 
Q 1028 -725 1275 -790 
Q 1522 -856 1778 -856 
Q 2344 -856 2625 -561 
Q 2906 -266 2906 331 
L 2906 616 
Q 2728 306 2450 153 
Q 2172 0 1784 0 
Q 1141 0 747 490 
Q 353 981 353 1791 
Q 353 2603 747 3093 
Q 1141 3584 1784 3584 
Q 2172 3584 2450 3431 
Q 2728 3278 2906 2969 
L 2906 3500 
L 3481 3500 
L 3481 434 
z
" transform="scale(0.015625)"/>
       <path id="DejaVuSans-14" d="M 794 531 
L 1825 531 
L 1825 4091 
L 703 3866 
L 703 4441 
L 1819 4666 
L 2450 4666 
L 2450 531 
L 3481 531 
L 3481 0 
L 794 0 
L 794 531 
z
" transform="scale(0.015625)"/>
       <path id="DejaVuSans-b" d="M 1984 4856 
Q 1566 4138 1362 3434 
Q 1159 2731 1159 2009 
Q 1159 1288 1364 580 
Q 1569 -128 1984 -844 
L 1484 -844 
Q 1016 -109 783 600 
Q 550 1309 550 2009 
Q 550 2706 781 3412 
Q 1013 4119 1484 4856 
L 1984 4856 
z
" transform="scale(0.015625)"/>
       <path id="DejaVuSans-36" d="M 3425 4513 
L 3425 3897 
Q 3066 4069 2747 4153 
Q 2428 4238 2131 4238 
Q 1616 4238 1336 4038 
Q 1056 3838 1056 3469 
Q 1056 3159 1242 3001 
Q 1428 2844 1947 2747 
L 2328 2669 
Q 3034 2534 3370 2195 
Q 3706 1856 3706 1288 
Q 3706 609 3251 259 
Q 2797 -91 1919 -91 
Q 1588 -91 1214 -16 
Q 841 59 441 206 
L 441 856 
Q 825 641 1194 531 
Q 1563 422 1919 422 
Q 2459 422 2753 634 
Q 3047 847 3047 1241 
Q 3047 1584 2836 1778 
Q 2625 1972 2144 2069 
L 1759 2144 
Q 1053 2284 737 2584 
Q 422 2884 422 3419 
Q 422 4038 858 4394 
Q 1294 4750 2059 4750 
Q 2388 4750 2728 4690 
Q 3069 4631 3425 4513 
z
" transform="scale(0.015625)"/>
       <path id="DejaVuSans-4c" d="M 603 3500 
L 1178 3500 
L 1178 0 
L 603 0 
L 603 3500 
z
M 603 4863 
L 1178 4863 
L 1178 4134 
L 603 4134 
L 603 4863 
z
" transform="scale(0.015625)"/>
       <path id="DejaVuSans-5d" d="M 353 3500 
L 3084 3500 
L 3084 2975 
L 922 459 
L 3084 459 
L 3084 0 
L 275 0 
L 275 525 
L 2438 3041 
L 353 3041 
L 353 3500 
z
" transform="scale(0.015625)"/>
       <path id="DejaVuSans-48" d="M 3597 1894 
L 3597 1613 
L 953 1613 
Q 991 1019 1311 708 
Q 1631 397 2203 397 
Q 2534 397 2845 478 
Q 3156 559 3463 722 
L 3463 178 
Q 3153 47 2828 -22 
Q 2503 -91 2169 -91 
Q 1331 -91 842 396 
Q 353 884 353 1716 
Q 353 2575 817 3079 
Q 1281 3584 2069 3584 
Q 2775 3584 3186 3129 
Q 3597 2675 3597 1894 
z
M 3022 2063 
Q 3016 2534 2758 2815 
Q 2500 3097 2075 3097 
Q 1594 3097 1305 2825 
Q 1016 2553 972 2059 
L 3022 2063 
z
" transform="scale(0.015625)"/>
       <path id="DejaVuSans-3" transform="scale(0.015625)"/>
       <path id="DejaVuSans-38" d="M 556 4666 
L 1191 4666 
L 1191 1831 
Q 1191 1081 1462 751 
Q 1734 422 2344 422 
Q 2950 422 3222 751 
Q 3494 1081 3494 1831 
L 3494 4666 
L 4128 4666 
L 4128 1753 
Q 4128 841 3676 375 
Q 3225 -91 2344 -91 
Q 1459 -91 1007 375 
Q 556 841 556 1753 
L 556 4666 
z
" transform="scale(0.015625)"/>
       <path id="DejaVuSans-27" d="M 1259 4147 
L 1259 519 
L 2022 519 
Q 2988 519 3436 956 
Q 3884 1394 3884 2338 
Q 3884 3275 3436 3711 
Q 2988 4147 2022 4147 
L 1259 4147 
z
M 628 4666 
L 1925 4666 
Q 3281 4666 3915 4102 
Q 4550 3538 4550 2338 
Q 4550 1131 3912 565 
Q 3275 0 1925 0 
L 628 0 
L 628 4666 
z
" transform="scale(0.015625)"/>
       <path id="DejaVuSans-c" d="M 513 4856 
L 1013 4856 
Q 1481 4119 1714 3412 
Q 1947 2706 1947 2009 
Q 1947 1309 1714 600 
Q 1481 -109 1013 -844 
L 513 -844 
Q 928 -128 1133 580 
Q 1338 1288 1338 2009 
Q 1338 2731 1133 3434 
Q 928 4138 513 4856 
z
" transform="scale(0.015625)"/>
      </defs>
      <use xlink:href="#DejaVuSans-4f"/>
      <use xlink:href="#DejaVuSans-52" transform="translate(27.78125 0)"/>
      <use xlink:href="#DejaVuSans-4a" transform="translate(88.96875 0)"/>
      <use xlink:href="#DejaVuSans-14" transform="translate(152.453125 0)"/>
      <use xlink:href="#DejaVuSans-13" transform="translate(216.078125 0)"/>
      <use xlink:href="#DejaVuSans-b" transform="translate(279.703125 0)"/>
      <use xlink:href="#DejaVuSans-36" transform="translate(318.71875 0)"/>
      <use xlink:href="#DejaVuSans-4c" transform="translate(382.203125 0)"/>
      <use xlink:href="#DejaVuSans-5d" transform="translate(409.984375 0)"/>
      <use xlink:href="#DejaVuSans-48" transform="translate(462.46875 0)"/>
      <use xlink:href="#DejaVuSans-3" transform="translate(524 0)"/>
      <use xlink:href="#DejaVuSans-38" transform="translate(555.78125 0)"/>
      <use xlink:href="#DejaVuSans-36" transform="translate(628.96875 0)"/>
      <use xlink:href="#DejaVuSans-27" transform="translate(692.453125 0)"/>
      <use xlink:href="#DejaVuSans-c" transform="translate(769.453125 0)"/>
     </g>
    </g>
   </g>
   <g id="matplotlib.axis_2">
    <g id="ytick_1">
     <g id="line2d_11">
      <path d="M 64.194609 267.013969 
L 566.394609 267.013969 
" clip-path="url(#p9718d9a948)" style="fill: none; stroke: #e1e0d9; stroke-width: 0.8; stroke-linecap: square"/>
     </g>
     <g id="line2d_12">
      <defs>
       <path id="m45ad392e45" d="M 0 0 
L -3.5 0 
" style="stroke: #898781; stroke-width: 0.8"/>
      </defs>
      <g>
       <use xlink:href="#m45ad392e45" x="64.194609" y="267.013969" style="fill: #898781; stroke: #898781; stroke-width: 0.8"/>
      </g>
     </g>
     <g id="text_7">
      <!-- 0 -->
      <g style="fill: #52514e" transform="translate(50.195859 271.19268) scale(0.11 -0.11)">
       <use xlink:href="#DejaVuSans-13"/>
      </g>
     </g>
    </g>
    <g id="ytick_2">
     <g id="line2d_13">
      <path d="M 64.194609 218.460215 
L 566.394609 218.460215 
" clip-path="url(#p9718d9a948)" style="fill: none; stroke: #e1e0d9; stroke-width: 0.8; stroke-linecap: square"/>
     </g>
     <g id="line2d_14">
      <g>
       <use xlink:href="#m45ad392e45" x="64.194609" y="218.460215" style="fill: #898781; stroke: #898781; stroke-width: 0.8"/>
      </g>
     </g>
     <g id="text_8">
      <!-- 5000 -->
      <g style="fill: #52514e" transform="translate(29.199609 222.638926) scale(0.11 -0.11)">
       <defs>
        <path id="DejaVuSans-18" d="M 691 4666 
L 3169 4666 
L 3169 4134 
L 1269 4134 
L 1269 2991 
Q 1406 3038 1543 3061 
Q 1681 3084 1819 3084 
Q 2600 3084 3056 2656 
Q 3513 2228 3513 1497 
Q 3513 744 3044 326 
Q 2575 -91 1722 -91 
Q 1428 -91 1123 -41 
Q 819 9 494 109 
L 494 744 
Q 775 591 1075 516 
Q 1375 441 1709 441 
Q 2250 441 2565 725 
Q 2881 1009 2881 1497 
Q 2881 1984 2565 2268 
Q 2250 2553 1709 2553 
Q 1456 2553 1204 2497 
Q 953 2441 691 2322 
L 691 4666 
z
" transform="scale(0.015625)"/>
       </defs>
       <use xlink:href="#DejaVuSans-18"/>
       <use xlink:href="#DejaVuSans-13" transform="translate(63.625 0)"/>
       <use xlink:href="#DejaVuSans-13" transform="translate(127.25 0)"/>
       <use xlink:href="#DejaVuSans-13" transform="translate(190.875 0)"/>
      </g>
     </g>
    </g>
    <g id="ytick_3">
     <g id="line2d_15">
      <path d="M 64.194609 169.906462 
L 566.394609 169.906462 
" clip-path="url(#p9718d9a948)" style="fill: none; stroke: #e1e0d9; stroke-width: 0.8; stroke-linecap: square"/>
     </g>
     <g id="line2d_16">
      <g>
       <use xlink:href="#m45ad392e45" x="64.194609" y="169.906462" style="fill: #898781; stroke: #898781; stroke-width: 0.8"/>
      </g>
     </g>
     <g id="text_9">
      <!-- 10000 -->
      <g style="fill: #52514e" transform="translate(22.200859 174.085173) scale(0.11 -0.11)">
       <use xlink:href="#DejaVuSans-14"/>
       <use xlink:href="#DejaVuSans-13" transform="translate(63.625 0)"/>
       <use xlink:href="#DejaVuSans-13" transform="translate(127.25 0)"/>
       <use xlink:href="#DejaVuSans-13" transform="translate(190.875 0)"/>
       <use xlink:href="#DejaVuSans-13" transform="translate(254.5 0)"/>
      </g>
     </g>
    </g>
    <g id="ytick_4">
     <g id="line2d_17">
      <path d="M 64.194609 121.352708 
L 566.394609 121.352708 
" clip-path="url(#p9718d9a948)" style="fill: none; stroke: #e1e0d9; stroke-width: 0.8; stroke-linecap: square"/>
     </g>
     <g id="line2d_18">
      <g>
       <use xlink:href="#m45ad392e45" x="64.194609" y="121.352708" style="fill: #898781; stroke: #898781; stroke-width: 0.8"/>
      </g>
     </g>
     <g id="text_10">
      <!-- 15000 -->
      <g style="fill: #52514e" transform="translate(22.200859 125.531419) scale(0.11 -0.11)">
       <use xlink:href="#DejaVuSans-14"/>
       <use xlink:href="#DejaVuSans-18" transform="translate(63.625 0)"/>
       <use xlink:href="#DejaVuSans-13" transform="translate(127.25 0)"/>
       <use xlink:href="#DejaVuSans-13" transform="translate(190.875 0)"/>
       <use xlink:href="#DejaVuSans-13" transform="translate(254.5 0)"/>
      </g>
     </g>
    </g>
    <g id="ytick_5">
     <g id="line2d_19">
      <path d="M 64.194609 72.798955 
L 566.394609 72.798955 
" clip-path="url(#p9718d9a948)" style="fill: none; stroke: #e1e0d9; stroke-width: 0.8; stroke-linecap: square"/>
     </g>
     <g id="line2d_20">
      <g>
       <use xlink:href="#m45ad392e45" x="64.194609" y="72.798955" style="fill: #898781; stroke: #898781; stroke-width: 0.8"/>
      </g>
     </g>
     <g id="text_11">
      <!-- 20000 -->
      <g style="fill: #52514e" transform="translate(22.200859 76.977665) scale(0.11 -0.11)">
       <use xlink:href="#DejaVuSans-15"/>
       <use xlink:href="#DejaVuSans-13" transform="translate(63.625 0)"/>
       <use xlink:href="#DejaVuSans-13" transform="translate(127.25 0)"/>
       <use xlink:href="#DejaVuSans-13" transform="translate(190.875 0)"/>
       <use xlink:href="#DejaVuSans-13" transform="translate(254.5 0)"/>
      </g>
     </g>
    </g>
    <g id="ytick_6">
     <g id="line2d_21">
      <path d="M 64.194609 24.245201 
L 566.394609 24.245201 
" clip-path="url(#p9718d9a948)" style="fill: none; stroke: #e1e0d9; stroke-width: 0.8; stroke-linecap: square"/>
     </g>
     <g id="line2d_22">
      <g>
       <use xlink:href="#m45ad392e45" x="64.194609" y="24.245201" style="fill: #898781; stroke: #898781; stroke-width: 0.8"/>
      </g>
     </g>
     <g id="text_12">
      <!-- 25000 -->
      <g style="fill: #52514e" transform="translate(22.200859 28.423912) scale(0.11 -0.11)">
       <use xlink:href="#DejaVuSans-15"/>
       <use xlink:href="#DejaVuSans-18" transform="translate(63.625 0)"/>
       <use xlink:href="#DejaVuSans-13" transform="translate(127.25 0)"/>
       <use xlink:href="#DejaVuSans-13" transform="translate(190.875 0)"/>
       <use xlink:href="#DejaVuSans-13" transform="translate(254.5 0)"/>
      </g>
     </g>
    </g>
    <g id="text_13">
     <!-- Trades -->
     <g style="fill: #52514e" transform="translate(15.558281 162.969094) rotate(-90) scale(0.11 -0.11)">
      <defs>
       <path id="DejaVuSans-37" d="M -19 4666 
L 3928 4666 
L 3928 4134 
L 2272 4134 
L 2272 0 
L 1638 0 
L 1638 4134 
L -19 4134 
L -19 4666 
z
" transform="scale(0.015625)"/>
       <path id="DejaVuSans-55" d="M 2631 2963 
Q 2534 3019 2420 3045 
Q 2306 3072 2169 3072 
Q 1681 3072 1420 2755 
Q 1159 2438 1159 1844 
L 1159 0 
L 581 0 
L 581 3500 
L 1159 3500 
L 1159 2956 
Q 1341 3275 1631 3429 
Q 1922 3584 2338 3584 
Q 2397 3584 2469 3576 
Q 2541 3569 2628 3553 
L 2631 2963 
z
" transform="scale(0.015625)"/>
       <path id="DejaVuSans-44" d="M 2194 1759 
Q 1497 1759 1228 1600 
Q 959 1441 959 1056 
Q 959 750 1161 570 
Q 1363 391 1709 391 
Q 2188 391 2477 730 
Q 2766 1069 2766 1631 
L 2766 1759 
L 2194 1759 
z
M 3341 1997 
L 3341 0 
L 2766 0 
L 2766 531 
Q 2569 213 2275 61 
Q 1981 -91 1556 -91 
Q 1019 -91 701 211 
Q 384 513 384 1019 
Q 384 1609 779 1909 
Q 1175 2209 1959 2209 
L 2766 2209 
L 2766 2266 
Q 2766 2663 2505 2880 
Q 2244 3097 1772 3097 
Q 1472 3097 1187 3025 
Q 903 2953 641 2809 
L 641 3341 
Q 956 3463 1253 3523 
Q 1550 3584 1831 3584 
Q 2591 3584 2966 3190 
Q 3341 2797 3341 1997 
z
" transform="scale(0.015625)"/>
       <path id="DejaVuSans-47" d="M 2906 2969 
L 2906 4863 
L 3481 4863 
L 3481 0 
L 2906 0 
L 2906 525 
Q 2725 213 2448 61 
Q 2172 -91 1784 -91 
Q 1150 -91 751 415 
Q 353 922 353 1747 
Q 353 2572 751 3078 
Q 1150 3584 1784 3584 
Q 2172 3584 2448 3432 
Q 2725 3281 2906 2969 
z
M 947 1747 
Q 947 1113 1208 752 
Q 1469 391 1925 391 
Q 2381 391 2643 752 
Q 2906 1113 2906 1747 
Q 2906 2381 2643 2742 
Q 2381 3103 1925 3103 
Q 1469 3103 1208 2742 
Q 947 2381 947 1747 
z
" transform="scale(0.015625)"/>
       <path id="DejaVuSans-56" d="M 2834 3397 
L 2834 2853 
Q 2591 2978 2328 3040 
Q 2066 3103 1784 3103 
Q 1356 3103 1142 2972 
Q 928 2841 928 2578 
Q 928 2378 1081 2264 
Q 1234 2150 1697 2047 
L 1894 2003 
Q 2506 1872 2764 1633 
Q 3022 1394 3022 966 
Q 3022 478 2636 193 
Q 2250 -91 1575 -91 
Q 1294 -91 989 -36 
Q 684 19 347 128 
L 347 722 
Q 666 556 975 473 
Q 1284 391 1588 391 
Q 1994 391 2212 530 
Q 2431 669 2431 922 
Q 2431 1156 2273 1281 
Q 2116 1406 1581 1522 
L 1381 1569 
Q 847 1681 609 1914 
Q 372 2147 372 2553 
Q 372 3047 722 3315 
Q 1072 3584 1716 3584 
Q 2034 3584 2315 3537 
Q 2597 3491 2834 3397 
z
" transform="scale(0.015625)"/>
      </defs>
      <use xlink:href="#DejaVuSans-37"/>
      <use xlink:href="#DejaVuSans-55" transform="translate(46.375 0)"/>
      <use xlink:href="#DejaVuSans-44" transform="translate(87.484375 0)"/>
      <use xlink:href="#DejaVuSans-47" transform="translate(148.765625 0)"/>
      <use xlink:href="#DejaVuSans-48" transform="translate(212.25 0)"/>
      <use xlink:href="#DejaVuSans-56" transform="translate(273.78125 0)"/>
     </g>
    </g>
   </g>
   <g id="patch_121">
    <path d="M 64.194609 267.013969 
L 64.194609 23.077969 
" style="fill: none; stroke: #c3c2b7; stroke-linejoin: miter; stroke-linecap: square"/>
   </g>
   <g id="patch_122">
    <path d="M 64.194609 267.013969 
L 566.394609 267.013969 
" style="fill: none; stroke: #c3c2b7; stroke-linejoin: miter; stroke-linecap: square"/>
   </g>
   <g id="text_14">
    <!-- V3 · Trade size distribution (log10 USD) — perp vs spot -->
    <g style="fill: #0b0b0b" transform="translate(113.677813 17.077969) scale(0.13 -0.13)">
     <defs>
      <path id="DejaVuSans-Bold-39" d="M 31 4666 
L 1241 4666 
L 2478 1222 
L 3713 4666 
L 4922 4666 
L 3194 0 
L 1759 0 
L 31 4666 
z
" transform="scale(0.015625)"/>
      <path id="DejaVuSans-Bold-16" d="M 2981 2516 
Q 3453 2394 3698 2092 
Q 3944 1791 3944 1325 
Q 3944 631 3412 270 
Q 2881 -91 1863 -91 
Q 1503 -91 1142 -33 
Q 781 25 428 141 
L 428 1069 
Q 766 900 1098 814 
Q 1431 728 1753 728 
Q 2231 728 2486 893 
Q 2741 1059 2741 1369 
Q 2741 1688 2480 1852 
Q 2219 2016 1709 2016 
L 1228 2016 
L 1228 2791 
L 1734 2791 
Q 2188 2791 2409 2933 
Q 2631 3075 2631 3366 
Q 2631 3634 2415 3781 
Q 2200 3928 1806 3928 
Q 1516 3928 1219 3862 
Q 922 3797 628 3669 
L 628 4550 
Q 984 4650 1334 4700 
Q 1684 4750 2022 4750 
Q 2931 4750 3382 4451 
Q 3834 4153 3834 3553 
Q 3834 3144 3618 2883 
Q 3403 2622 2981 2516 
z
" transform="scale(0.015625)"/>
      <path id="DejaVuSans-Bold-3" transform="scale(0.015625)"/>
      <path id="DejaVuSans-Bold-79" d="M 653 2828 
L 1778 2828 
L 1778 1619 
L 653 1619 
L 653 2828 
z
" transform="scale(0.015625)"/>
      <path id="DejaVuSans-Bold-37" d="M 31 4666 
L 4331 4666 
L 4331 3756 
L 2784 3756 
L 2784 0 
L 1581 0 
L 1581 3756 
L 31 3756 
L 31 4666 
z
" transform="scale(0.015625)"/>
      <path id="DejaVuSans-Bold-55" d="M 3138 2547 
Q 2991 2616 2845 2648 
Q 2700 2681 2553 2681 
Q 2122 2681 1889 2404 
Q 1656 2128 1656 1613 
L 1656 0 
L 538 0 
L 538 3500 
L 1656 3500 
L 1656 2925 
Q 1872 3269 2151 3426 
Q 2431 3584 2822 3584 
Q 2878 3584 2943 3579 
Q 3009 3575 3134 3559 
L 3138 2547 
z
" transform="scale(0.015625)"/>
      <path id="DejaVuSans-Bold-44" d="M 2106 1575 
Q 1756 1575 1579 1456 
Q 1403 1338 1403 1106 
Q 1403 894 1545 773 
Q 1688 653 1941 653 
Q 2256 653 2472 879 
Q 2688 1106 2688 1447 
L 2688 1575 
L 2106 1575 
z
M 3816 1997 
L 3816 0 
L 2688 0 
L 2688 519 
Q 2463 200 2181 54 
Q 1900 -91 1497 -91 
Q 953 -91 614 226 
Q 275 544 275 1050 
Q 275 1666 698 1953 
Q 1122 2241 2028 2241 
L 2688 2241 
L 2688 2328 
Q 2688 2594 2478 2717 
Q 2269 2841 1825 2841 
Q 1466 2841 1156 2769 
Q 847 2697 581 2553 
L 581 3406 
Q 941 3494 1303 3539 
Q 1666 3584 2028 3584 
Q 2975 3584 3395 3211 
Q 3816 2838 3816 1997 
z
" transform="scale(0.015625)"/>
      <path id="DejaVuSans-Bold-47" d="M 2919 2988 
L 2919 4863 
L 4044 4863 
L 4044 0 
L 2919 0 
L 2919 506 
Q 2688 197 2409 53 
Q 2131 -91 1766 -91 
Q 1119 -91 703 423 
Q 288 938 288 1747 
Q 288 2556 703 3070 
Q 1119 3584 1766 3584 
Q 2128 3584 2408 3439 
Q 2688 3294 2919 2988 
z
M 2181 722 
Q 2541 722 2730 984 
Q 2919 1247 2919 1747 
Q 2919 2247 2730 2509 
Q 2541 2772 2181 2772 
Q 1825 2772 1636 2509 
Q 1447 2247 1447 1747 
Q 1447 1247 1636 984 
Q 1825 722 2181 722 
z
" transform="scale(0.015625)"/>
      <path id="DejaVuSans-Bold-48" d="M 4031 1759 
L 4031 1441 
L 1416 1441 
Q 1456 1047 1700 850 
Q 1944 653 2381 653 
Q 2734 653 3104 758 
Q 3475 863 3866 1075 
L 3866 213 
Q 3469 63 3072 -14 
Q 2675 -91 2278 -91 
Q 1328 -91 801 392 
Q 275 875 275 1747 
Q 275 2603 792 3093 
Q 1309 3584 2216 3584 
Q 3041 3584 3536 3087 
Q 4031 2591 4031 1759 
z
M 2881 2131 
Q 2881 2450 2695 2645 
Q 2509 2841 2209 2841 
Q 1884 2841 1681 2658 
Q 1478 2475 1428 2131 
L 2881 2131 
z
" transform="scale(0.015625)"/>
      <path id="DejaVuSans-Bold-56" d="M 3272 3391 
L 3272 2541 
Q 2913 2691 2578 2766 
Q 2244 2841 1947 2841 
Q 1628 2841 1473 2761 
Q 1319 2681 1319 2516 
Q 1319 2381 1436 2309 
Q 1553 2238 1856 2203 
L 2053 2175 
Q 2913 2066 3209 1816 
Q 3506 1566 3506 1031 
Q 3506 472 3093 190 
Q 2681 -91 1863 -91 
Q 1516 -91 1145 -36 
Q 775 19 384 128 
L 384 978 
Q 719 816 1070 734 
Q 1422 653 1784 653 
Q 2113 653 2278 743 
Q 2444 834 2444 1013 
Q 2444 1163 2330 1236 
Q 2216 1309 1875 1350 
L 1678 1375 
Q 931 1469 631 1722 
Q 331 1975 331 2491 
Q 331 3047 712 3315 
Q 1094 3584 1881 3584 
Q 2191 3584 2531 3537 
Q 2872 3491 3272 3391 
z
" transform="scale(0.015625)"/>
      <path id="DejaVuSans-Bold-4c" d="M 538 3500 
L 1656 3500 
L 1656 0 
L 538 0 
L 538 3500 
z
M 538 4863 
L 1656 4863 
L 1656 3950 
L 538 3950 
L 538 4863 
z
" transform="scale(0.015625)"/>
      <path id="DejaVuSans-Bold-5d" d="M 366 3500 
L 3419 3500 
L 3419 2719 
L 1575 800 
L 3419 800 
L 3419 0 
L 288 0 
L 288 781 
L 2131 2700 
L 366 2700 
L 366 3500 
z
" transform="scale(0.015625)"/>
      <path id="DejaVuSans-Bold-57" d="M 1759 4494 
L 1759 3500 
L 2913 3500 
L 2913 2700 
L 1759 2700 
L 1759 1216 
Q 1759 972 1856 886 
Q 1953 800 2241 800 
L 2816 800 
L 2816 0 
L 1856 0 
Q 1194 0 917 276 
Q 641 553 641 1216 
L 641 2700 
L 84 2700 
L 84 3500 
L 641 3500 
L 641 4494 
L 1759 4494 
z
" transform="scale(0.015625)"/>
      <path id="DejaVuSans-Bold-45" d="M 2400 722 
Q 2759 722 2948 984 
Q 3138 1247 3138 1747 
Q 3138 2247 2948 2509 
Q 2759 2772 2400 2772 
Q 2041 2772 1848 2508 
Q 1656 2244 1656 1747 
Q 1656 1250 1848 986 
Q 2041 722 2400 722 
z
M 1656 2988 
Q 1888 3294 2169 3439 
Q 2450 3584 2816 3584 
Q 3463 3584 3878 3070 
Q 4294 2556 4294 1747 
Q 4294 938 3878 423 
Q 3463 -91 2816 -91 
Q 2450 -91 2169 54 
Q 1888 200 1656 506 
L 1656 0 
L 538 0 
L 538 4863 
L 1656 4863 
L 1656 2988 
z
" transform="scale(0.015625)"/>
      <path id="DejaVuSans-Bold-58" d="M 500 1363 
L 500 3500 
L 1625 3500 
L 1625 3150 
Q 1625 2866 1622 2436 
Q 1619 2006 1619 1863 
Q 1619 1441 1641 1255 
Q 1663 1069 1716 984 
Q 1784 875 1895 815 
Q 2006 756 2150 756 
Q 2500 756 2700 1025 
Q 2900 1294 2900 1772 
L 2900 3500 
L 4019 3500 
L 4019 0 
L 2900 0 
L 2900 506 
Q 2647 200 2364 54 
Q 2081 -91 1741 -91 
Q 1134 -91 817 281 
Q 500 653 500 1363 
z
" transform="scale(0.015625)"/>
      <path id="DejaVuSans-Bold-52" d="M 2203 2784 
Q 1831 2784 1636 2517 
Q 1441 2250 1441 1747 
Q 1441 1244 1636 976 
Q 1831 709 2203 709 
Q 2569 709 2762 976 
Q 2956 1244 2956 1747 
Q 2956 2250 2762 2517 
Q 2569 2784 2203 2784 
z
M 2203 3584 
Q 3106 3584 3614 3096 
Q 4122 2609 4122 1747 
Q 4122 884 3614 396 
Q 3106 -91 2203 -91 
Q 1297 -91 786 396 
Q 275 884 275 1747 
Q 275 2609 786 3096 
Q 1297 3584 2203 3584 
z
" transform="scale(0.015625)"/>
      <path id="DejaVuSans-Bold-51" d="M 4056 2131 
L 4056 0 
L 2931 0 
L 2931 347 
L 2931 1631 
Q 2931 2084 2911 2256 
Q 2891 2428 2841 2509 
Q 2775 2619 2662 2680 
Q 2550 2741 2406 2741 
Q 2056 2741 1856 2470 
Q 1656 2200 1656 1722 
L 1656 0 
L 538 0 
L 538 3500 
L 1656 3500 
L 1656 2988 
Q 1909 3294 2193 3439 
Q 2478 3584 2822 3584 
Q 3428 3584 3742 3212 
Q 4056 2841 4056 2131 
z
" transform="scale(0.015625)"/>
      <path id="DejaVuSans-Bold-b" d="M 2413 -844 
L 1484 -844 
Q 1006 -72 778 623 
Q 550 1319 550 2003 
Q 550 2688 779 3389 
Q 1009 4091 1484 4856 
L 2413 4856 
Q 2013 4116 1813 3408 
Q 1613 2700 1613 2009 
Q 1613 1319 1811 609 
Q 2009 -100 2413 -844 
z
" transform="scale(0.015625)"/>
      <path id="DejaVuSans-Bold-4f" d="M 538 4863 
L 1656 4863 
L 1656 0 
L 538 0 
L 538 4863 
z
" transform="scale(0.015625)"/>
      <path id="DejaVuSans-Bold-4a" d="M 2919 594 
Q 2688 288 2409 144 
Q 2131 0 1766 0 
Q 1125 0 706 504 
Q 288 1009 288 1791 
Q 288 2575 706 3076 
Q 1125 3578 1766 3578 
Q 2131 3578 2409 3434 
Q 2688 3291 2919 2981 
L 2919 3500 
L 4044 3500 
L 4044 353 
Q 4044 -491 3511 -936 
Q 2978 -1381 1966 -1381 
Q 1638 -1381 1331 -1331 
Q 1025 -1281 716 -1178 
L 716 -306 
Q 1009 -475 1290 -558 
Q 1572 -641 1856 -641 
Q 2406 -641 2662 -400 
Q 2919 -159 2919 353 
L 2919 594 
z
M 2181 2772 
Q 1834 2772 1640 2515 
Q 1447 2259 1447 1791 
Q 1447 1309 1634 1061 
Q 1822 813 2181 813 
Q 2531 813 2725 1069 
Q 2919 1325 2919 1791 
Q 2919 2259 2725 2515 
Q 2531 2772 2181 2772 
z
" transform="scale(0.015625)"/>
      <path id="DejaVuSans-Bold-14" d="M 750 831 
L 1813 831 
L 1813 3847 
L 722 3622 
L 722 4441 
L 1806 4666 
L 2950 4666 
L 2950 831 
L 4013 831 
L 4013 0 
L 750 0 
L 750 831 
z
" transform="scale(0.015625)"/>
      <path id="DejaVuSans-Bold-13" d="M 2944 2338 
Q 2944 3213 2780 3570 
Q 2616 3928 2228 3928 
Q 1841 3928 1675 3570 
Q 1509 3213 1509 2338 
Q 1509 1453 1675 1090 
Q 1841 728 2228 728 
Q 2613 728 2778 1090 
Q 2944 1453 2944 2338 
z
M 4147 2328 
Q 4147 1169 3647 539 
Q 3147 -91 2228 -91 
Q 1306 -91 806 539 
Q 306 1169 306 2328 
Q 306 3491 806 4120 
Q 1306 4750 2228 4750 
Q 3147 4750 3647 4120 
Q 4147 3491 4147 2328 
z
" transform="scale(0.015625)"/>
      <path id="DejaVuSans-Bold-38" d="M 588 4666 
L 1791 4666 
L 1791 1869 
Q 1791 1291 1980 1042 
Q 2169 794 2597 794 
Q 3028 794 3217 1042 
Q 3406 1291 3406 1869 
L 3406 4666 
L 4609 4666 
L 4609 1869 
Q 4609 878 4112 393 
Q 3616 -91 2597 -91 
Q 1581 -91 1084 393 
Q 588 878 588 1869 
L 588 4666 
z
" transform="scale(0.015625)"/>
      <path id="DejaVuSans-Bold-36" d="M 3834 4519 
L 3834 3531 
Q 3450 3703 3084 3790 
Q 2719 3878 2394 3878 
Q 1963 3878 1756 3759 
Q 1550 3641 1550 3391 
Q 1550 3203 1689 3098 
Q 1828 2994 2194 2919 
L 2706 2816 
Q 3484 2659 3812 2340 
Q 4141 2022 4141 1434 
Q 4141 663 3683 286 
Q 3225 -91 2284 -91 
Q 1841 -91 1394 -6 
Q 947 78 500 244 
L 500 1259 
Q 947 1022 1364 901 
Q 1781 781 2169 781 
Q 2563 781 2772 912 
Q 2981 1044 2981 1288 
Q 2981 1506 2839 1625 
Q 2697 1744 2272 1838 
L 1806 1941 
Q 1106 2091 782 2419 
Q 459 2747 459 3303 
Q 459 4000 909 4375 
Q 1359 4750 2203 4750 
Q 2588 4750 2994 4692 
Q 3400 4634 3834 4519 
z
" transform="scale(0.015625)"/>
      <path id="DejaVuSans-Bold-27" d="M 1791 3756 
L 1791 909 
L 2222 909 
Q 2959 909 3348 1275 
Q 3738 1641 3738 2338 
Q 3738 3031 3350 3393 
Q 2963 3756 2222 3756 
L 1791 3756 
z
M 588 4666 
L 1856 4666 
Q 2919 4666 3439 4514 
Q 3959 4363 4331 4000 
Q 4659 3684 4818 3271 
Q 4978 2859 4978 2338 
Q 4978 1809 4818 1395 
Q 4659 981 4331 666 
Q 3956 303 3431 151 
Q 2906 0 1856 0 
L 588 0 
L 588 4666 
z
" transform="scale(0.015625)"/>
      <path id="DejaVuSans-Bold-c" d="M 513 -844 
Q 913 -100 1113 609 
Q 1313 1319 1313 2009 
Q 1313 2700 1113 3408 
Q 913 4116 513 4856 
L 1441 4856 
Q 1916 4091 2145 3389 
Q 2375 2688 2375 2003 
Q 2375 1319 2147 623 
Q 1919 -72 1441 -844 
L 513 -844 
z
" transform="scale(0.015625)"/>
      <path id="DejaVuSans-Bold-af6" d="M 344 2156 
L 6056 2156 
L 6056 1350 
L 344 1350 
L 344 2156 
z
" transform="scale(0.015625)"/>
      <path id="DejaVuSans-Bold-53" d="M 1656 506 
L 1656 -1331 
L 538 -1331 
L 538 3500 
L 1656 3500 
L 1656 2988 
Q 1888 3294 2169 3439 
Q 2450 3584 2816 3584 
Q 3463 3584 3878 3070 
Q 4294 2556 4294 1747 
Q 4294 938 3878 423 
Q 3463 -91 2816 -91 
Q 2450 -91 2169 54 
Q 1888 200 1656 506 
z
M 2400 2772 
Q 2041 2772 1848 2508 
Q 1656 2244 1656 1747 
Q 1656 1250 1848 986 
Q 2041 722 2400 722 
Q 2759 722 2948 984 
Q 3138 1247 3138 1747 
Q 3138 2247 2948 2509 
Q 2759 2772 2400 2772 
z
" transform="scale(0.015625)"/>
      <path id="DejaVuSans-Bold-59" d="M 97 3500 
L 1216 3500 
L 2088 1081 
L 2956 3500 
L 4078 3500 
L 2700 0 
L 1472 0 
L 97 3500 
z
" transform="scale(0.015625)"/>
     </defs>
     <use xlink:href="#DejaVuSans-Bold-39"/>
     <use xlink:href="#DejaVuSans-Bold-16" transform="translate(77.390625 0)"/>
     <use xlink:href="#DejaVuSans-Bold-3" transform="translate(146.96875 0)"/>
     <use xlink:href="#DejaVuSans-Bold-79" transform="translate(181.78125 0)"/>
     <use xlink:href="#DejaVuSans-Bold-3" transform="translate(219.765625 0)"/>
     <use xlink:href="#DejaVuSans-Bold-37" transform="translate(254.578125 0)"/>
     <use xlink:href="#DejaVuSans-Bold-55" transform="translate(311.8125 0)"/>
     <use xlink:href="#DejaVuSans-Bold-44" transform="translate(361.125 0)"/>
     <use xlink:href="#DejaVuSans-Bold-47" transform="translate(428.609375 0)"/>
     <use xlink:href="#DejaVuSans-Bold-48" transform="translate(500.1875 0)"/>
     <use xlink:href="#DejaVuSans-Bold-3" transform="translate(568.015625 0)"/>
     <use xlink:href="#DejaVuSans-Bold-56" transform="translate(602.828125 0)"/>
     <use xlink:href="#DejaVuSans-Bold-4c" transform="translate(662.34375 0)"/>
     <use xlink:href="#DejaVuSans-Bold-5d" transform="translate(696.625 0)"/>
     <use xlink:href="#DejaVuSans-Bold-48" transform="translate(754.828125 0)"/>
     <use xlink:href="#DejaVuSans-Bold-3" transform="translate(822.65625 0)"/>
     <use xlink:href="#DejaVuSans-Bold-47" transform="translate(857.46875 0)"/>
     <use xlink:href="#DejaVuSans-Bold-4c" transform="translate(929.046875 0)"/>
     <use xlink:href="#DejaVuSans-Bold-56" transform="translate(963.328125 0)"/>
     <use xlink:href="#DejaVuSans-Bold-57" transform="translate(1022.84375 0)"/>
     <use xlink:href="#DejaVuSans-Bold-55" transform="translate(1070.640625 0)"/>
     <use xlink:href="#DejaVuSans-Bold-4c" transform="translate(1119.953125 0)"/>
     <use xlink:href="#DejaVuSans-Bold-45" transform="translate(1154.234375 0)"/>
     <use xlink:href="#DejaVuSans-Bold-58" transform="translate(1225.8125 0)"/>
     <use xlink:href="#DejaVuSans-Bold-57" transform="translate(1297 0)"/>
     <use xlink:href="#DejaVuSans-Bold-4c" transform="translate(1344.796875 0)"/>
     <use xlink:href="#DejaVuSans-Bold-52" transform="translate(1379.078125 0)"/>
     <use xlink:href="#DejaVuSans-Bold-51" transform="translate(1447.78125 0)"/>
     <use xlink:href="#DejaVuSans-Bold-3" transform="translate(1518.96875 0)"/>
     <use xlink:href="#DejaVuSans-Bold-b" transform="translate(1553.78125 0)"/>
     <use xlink:href="#DejaVuSans-Bold-4f" transform="translate(1599.484375 0)"/>
     <use xlink:href="#DejaVuSans-Bold-52" transform="translate(1633.765625 0)"/>
     <use xlink:href="#DejaVuSans-Bold-4a" transform="translate(1702.46875 0)"/>
     <use xlink:href="#DejaVuSans-Bold-14" transform="translate(1774.046875 0)"/>
     <use xlink:href="#DejaVuSans-Bold-13" transform="translate(1843.625 0)"/>
     <use xlink:href="#DejaVuSans-Bold-3" transform="translate(1913.203125 0)"/>
     <use xlink:href="#DejaVuSans-Bold-38" transform="translate(1948.015625 0)"/>
     <use xlink:href="#DejaVuSans-Bold-36" transform="translate(2029.21875 0)"/>
     <use xlink:href="#DejaVuSans-Bold-27" transform="translate(2101.234375 0)"/>
     <use xlink:href="#DejaVuSans-Bold-c" transform="translate(2184.25 0)"/>
     <use xlink:href="#DejaVuSans-Bold-3" transform="translate(2229.953125 0)"/>
     <use xlink:href="#DejaVuSans-Bold-af6" transform="translate(2264.765625 0)"/>
     <use xlink:href="#DejaVuSans-Bold-3" transform="translate(2364.765625 0)"/>
     <use xlink:href="#DejaVuSans-Bold-53" transform="translate(2399.578125 0)"/>
     <use xlink:href="#DejaVuSans-Bold-48" transform="translate(2471.15625 0)"/>
     <use xlink:href="#DejaVuSans-Bold-55" transform="translate(2538.984375 0)"/>
     <use xlink:href="#DejaVuSans-Bold-53" transform="translate(2588.296875 0)"/>
     <use xlink:href="#DejaVuSans-Bold-3" transform="translate(2659.875 0)"/>
     <use xlink:href="#DejaVuSans-Bold-59" transform="translate(2694.6875 0)"/>
     <use xlink:href="#DejaVuSans-Bold-56" transform="translate(2759.875 0)"/>
     <use xlink:href="#DejaVuSans-Bold-3" transform="translate(2819.390625 0)"/>
     <use xlink:href="#DejaVuSans-Bold-56" transform="translate(2854.203125 0)"/>
     <use xlink:href="#DejaVuSans-Bold-53" transform="translate(2913.71875 0)"/>
     <use xlink:href="#DejaVuSans-Bold-52" transform="translate(2985.296875 0)"/>
     <use xlink:href="#DejaVuSans-Bold-57" transform="translate(3054 0)"/>
    </g>
   </g>
   <g id="legend_1">
    <g id="patch_123">
     <path d="M 481.791484 39.676406 
L 501.791484 39.676406 
L 501.791484 32.676406 
L 481.791484 32.676406 
z
" style="fill: #2a78d6; opacity: 0.75"/>
    </g>
    <g id="text_15">
     <!-- Perpetual -->
     <g transform="translate(509.791484 39.676406) scale(0.1 -0.1)">
      <defs>
       <path id="DejaVuSans-33" d="M 1259 4147 
L 1259 2394 
L 2053 2394 
Q 2494 2394 2734 2622 
Q 2975 2850 2975 3272 
Q 2975 3691 2734 3919 
Q 2494 4147 2053 4147 
L 1259 4147 
z
M 628 4666 
L 2053 4666 
Q 2838 4666 3239 4311 
Q 3641 3956 3641 3272 
Q 3641 2581 3239 2228 
Q 2838 1875 2053 1875 
L 1259 1875 
L 1259 0 
L 628 0 
L 628 4666 
z
" transform="scale(0.015625)"/>
       <path id="DejaVuSans-53" d="M 1159 525 
L 1159 -1331 
L 581 -1331 
L 581 3500 
L 1159 3500 
L 1159 2969 
Q 1341 3281 1617 3432 
Q 1894 3584 2278 3584 
Q 2916 3584 3314 3078 
Q 3713 2572 3713 1747 
Q 3713 922 3314 415 
Q 2916 -91 2278 -91 
Q 1894 -91 1617 61 
Q 1341 213 1159 525 
z
M 3116 1747 
Q 3116 2381 2855 2742 
Q 2594 3103 2138 3103 
Q 1681 3103 1420 2742 
Q 1159 2381 1159 1747 
Q 1159 1113 1420 752 
Q 1681 391 2138 391 
Q 2594 391 2855 752 
Q 3116 1113 3116 1747 
z
" transform="scale(0.015625)"/>
       <path id="DejaVuSans-57" d="M 1172 4494 
L 1172 3500 
L 2356 3500 
L 2356 3053 
L 1172 3053 
L 1172 1153 
Q 1172 725 1289 603 
Q 1406 481 1766 481 
L 2356 481 
L 2356 0 
L 1766 0 
Q 1100 0 847 248 
Q 594 497 594 1153 
L 594 3053 
L 172 3053 
L 172 3500 
L 594 3500 
L 594 4494 
L 1172 4494 
z
" transform="scale(0.015625)"/>
       <path id="DejaVuSans-58" d="M 544 1381 
L 544 3500 
L 1119 3500 
L 1119 1403 
Q 1119 906 1312 657 
Q 1506 409 1894 409 
Q 2359 409 2629 706 
Q 2900 1003 2900 1516 
L 2900 3500 
L 3475 3500 
L 3475 0 
L 2900 0 
L 2900 538 
Q 2691 219 2414 64 
Q 2138 -91 1772 -91 
Q 1169 -91 856 284 
Q 544 659 544 1381 
z
M 1991 3584 
L 1991 3584 
z
" transform="scale(0.015625)"/>
      </defs>
      <use xlink:href="#DejaVuSans-33"/>
      <use xlink:href="#DejaVuSans-48" transform="translate(56.734375 0)"/>
      <use xlink:href="#DejaVuSans-55" transform="translate(118.265625 0)"/>
      <use xlink:href="#DejaVuSans-53" transform="translate(159.375 0)"/>
      <use xlink:href="#DejaVuSans-48" transform="translate(222.859375 0)"/>
      <use xlink:href="#DejaVuSans-57" transform="translate(284.390625 0)"/>
      <use xlink:href="#DejaVuSans-58" transform="translate(323.59375 0)"/>
      <use xlink:href="#DejaVuSans-44" transform="translate(386.96875 0)"/>
      <use xlink:href="#DejaVuSans-4f" transform="translate(448.25 0)"/>
     </g>
    </g>
    <g id="patch_124">
     <path d="M 481.791484 54.677187 
L 501.791484 54.677187 
L 501.791484 47.677187 
L 481.791484 47.677187 
z
" style="fill: #1baf7a; opacity: 0.65"/>
    </g>
    <g id="text_16">
     <!-- Spot -->
     <g transform="translate(509.791484 54.677187) scale(0.1 -0.1)">
      <use xlink:href="#DejaVuSans-36"/>
      <use xlink:href="#DejaVuSans-53" transform="translate(63.484375 0)"/>
      <use xlink:href="#DejaVuSans-52" transform="translate(126.96875 0)"/>
      <use xlink:href="#DejaVuSans-57" transform="translate(188.15625 0)"/>
     </g>
    </g>
   </g>
  </g>
 </g>
 <defs>
  <clipPath id="p9718d9a948">
   <rect x="64.194609" y="23.077969" width="502.2" height="243.936"/>
  </clipPath>
 </defs>
</svg>
