<?xml version="1.0" encoding="utf-8" standalone="no"?>
<!DOCTYPE svg PUBLIC "-//W3C//DTD SVG 1.1//EN"
  "http://www.w3.org/Graphics/SVG/1.1/DTD/svg11.dtd">
<svg xmlns:xlink="http://www.w3.org/1999/xlink" width="622.395859pt" height="281.125969pt" viewBox="0 0 622.395859 281.125969" xmlns="http://www.w3.org/2000/svg" version="1.1">
 <metadata>
  <rdf:RDF xmlns:dc="http://purl.org/dc/elements/1.1/" xmlns:cc="http://creativecommons.org/ns#" xmlns:rdf="http://www.w3.org/1999/02/22-rdf-syntax-ns#">
   <cc:Work>
    <dc:type rdf:resource="http://purl.org/dc/dcmitype/StillImage"/>
    <dc:date>2026-07-03T10:37:32.234399</dc:date>
    <dc:format>image/svg+xml</dc:format>
    <dc:creator>
     <cc:Agent>
      <dc:title>Matplotlib v3.11.0, https://matplotlib.org/</dc:title>
     </cc:Agent>
    </dc:creator>
   </cc:Work>
  </rdf:RDF>
 </metadata>
 <defs>
  <style type="text/css">*{stroke-linejoin: round; stroke-linecap: butt}</style>
 </defs>
 <g id="figure_1">
  <g id="patch_1">
   <path d="M 0 281.125969 
L 622.395859 281.125969 
L 622.395859 0 
L 0 0 
z
" style="fill: #fcfcfb"/>
  </g>
  <g id="axes_1">
   <g id="patch_2">
    <path d="M 57.195859 255.925969 
L 615.195859 255.925969 
L 615.195859 23.077969 
L 57.195859 23.077969 
z
" style="fill: #fcfcfb"/>
   </g>
   <g id="matplotlib.axis_1">
    <g id="xtick_1">
     <g id="line2d_1">
      <path d="M 62.462625 255.925969 
L 62.462625 23.077969 
" clip-path="url(#p35ab3ea285)" style="fill: none; stroke: #e1e0d9; stroke-width: 0.8; stroke-linecap: square"/>
     </g>
     <g id="line2d_2">
      <defs>
       <path id="m51061142c6" d="M 0 0 
L 0 3.5 
" style="stroke: #898781; stroke-width: 0.8"/>
      </defs>
      <g>
       <use xlink:href="#m51061142c6" x="62.462625" y="255.925969" style="fill: #898781; stroke: #898781; stroke-width: 0.8"/>
      </g>
     </g>
     <g id="text_1">
      <!-- 2023-04 -->
      <g style="fill: #52514e" transform="translate(39.482079 271.283391) scale(0.11 -0.11)">
       <defs>
        <path id="DejaVuSans-15" d="M 1228 531 
L 3431 531 
L 3431 0 
L 469 0 
L 469 531 
Q 828 903 1448 1529 
Q 2069 2156 2228 2338 
Q 2531 2678 2651 2914 
Q 2772 3150 2772 3378 
Q 2772 3750 2511 3984 
Q 2250 4219 1831 4219 
Q 1534 4219 1204 4116 
Q 875 4013 500 3803 
L 500 4441 
Q 881 4594 1212 4672 
Q 1544 4750 1819 4750 
Q 2544 4750 2975 4387 
Q 3406 4025 3406 3419 
Q 3406 3131 3298 2873 
Q 3191 2616 2906 2266 
Q 2828 2175 2409 1742 
Q 1991 1309 1228 531 
z
" transform="scale(0.015625)"/>
        <path id="DejaVuSans-13" d="M 2034 4250 
Q 1547 4250 1301 3770 
Q 1056 3291 1056 2328 
Q 1056 1369 1301 889 
Q 1547 409 2034 409 
Q 2525 409 2770 889 
Q 3016 1369 3016 2328 
Q 3016 3291 2770 3770 
Q 2525 4250 2034 4250 
z
M 2034 4750 
Q 2819 4750 3233 4129 
Q 3647 3509 3647 2328 
Q 3647 1150 3233 529 
Q 2819 -91 2034 -91 
Q 1250 -91 836 529 
Q 422 1150 422 2328 
Q 422 3509 836 4129 
Q 1250 4750 2034 4750 
z
" transform="scale(0.015625)"/>
        <path id="DejaVuSans-16" d="M 2597 2516 
Q 3050 2419 3304 2112 
Q 3559 1806 3559 1356 
Q 3559 666 3084 287 
Q 2609 -91 1734 -91 
Q 1441 -91 1130 -33 
Q 819 25 488 141 
L 488 750 
Q 750 597 1062 519 
Q 1375 441 1716 441 
Q 2309 441 2620 675 
Q 2931 909 2931 1356 
Q 2931 1769 2642 2001 
Q 2353 2234 1838 2234 
L 1294 2234 
L 1294 2753 
L 1863 2753 
Q 2328 2753 2575 2939 
Q 2822 3125 2822 3475 
Q 2822 3834 2567 4026 
Q 2313 4219 1838 4219 
Q 1578 4219 1281 4162 
Q 984 4106 628 3988 
L 628 4550 
Q 988 4650 1302 4700 
Q 1616 4750 1894 4750 
Q 2613 4750 3031 4423 
Q 3450 4097 3450 3541 
Q 3450 3153 3228 2886 
Q 3006 2619 2597 2516 
z
" transform="scale(0.015625)"/>
        <path id="DejaVuSans-10" d="M 313 2009 
L 1997 2009 
L 1997 1497 
L 313 1497 
L 313 2009 
z
" transform="scale(0.015625)"/>
        <path id="DejaVuSans-17" d="M 2419 4116 
L 825 1625 
L 2419 1625 
L 2419 4116 
z
M 2253 4666 
L 3047 4666 
L 3047 1625 
L 3713 1625 
L 3713 1100 
L 3047 1100 
L 3047 0 
L 2419 0 
L 2419 1100 
L 313 1100 
L 313 1709 
L 2253 4666 
z
" transform="scale(0.015625)"/>
       </defs>
       <use xlink:href="#DejaVuSans-15"/>
       <use xlink:href="#DejaVuSans-13" transform="translate(63.625 0)"/>
       <use xlink:href="#DejaVuSans-15" transform="translate(127.25 0)"/>
       <use xlink:href="#DejaVuSans-16" transform="translate(190.875 0)"/>
       <use xlink:href="#DejaVuSans-10" transform="translate(254.5 0)"/>
       <use xlink:href="#DejaVuSans-13" transform="translate(290.578125 0)"/>
       <use xlink:href="#DejaVuSans-17" transform="translate(354.203125 0)"/>
      </g>
     </g>
    </g>
    <g id="xtick_2">
     <g id="line2d_3">
      <path d="M 125.525219 255.925969 
L 125.525219 23.077969 
" clip-path="url(#p35ab3ea285)" style="fill: none; stroke: #e1e0d9; stroke-width: 0.8; stroke-linecap: square"/>
     </g>
     <g id="line2d_4">
      <g>
       <use xlink:href="#m51061142c6" x="125.525219" y="255.925969" style="fill: #898781; stroke: #898781; stroke-width: 0.8"/>
      </g>
     </g>
     <g id="text_2">
      <!-- 2023-07 -->
      <g style="fill: #52514e" transform="translate(102.544672 271.283391) scale(0.11 -0.11)">
       <defs>
        <path id="DejaVuSans-1a" d="M 525 4666 
L 3525 4666 
L 3525 4397 
L 1831 0 
L 1172 0 
L 2766 4134 
L 525 4134 
L 525 4666 
z
" transform="scale(0.015625)"/>
       </defs>
       <use xlink:href="#DejaVuSans-15"/>
       <use xlink:href="#DejaVuSans-13" transform="translate(63.625 0)"/>
       <use xlink:href="#DejaVuSans-15" transform="translate(127.25 0)"/>
       <use xlink:href="#DejaVuSans-16" transform="translate(190.875 0)"/>
       <use xlink:href="#DejaVuSans-10" transform="translate(254.5 0)"/>
       <use xlink:href="#DejaVuSans-13" transform="translate(290.578125 0)"/>
       <use xlink:href="#DejaVuSans-1a" transform="translate(354.203125 0)"/>
      </g>
     </g>
    </g>
    <g id="xtick_3">
     <g id="line2d_5">
      <path d="M 189.280807 255.925969 
L 189.280807 23.077969 
" clip-path="url(#p35ab3ea285)" style="fill: none; stroke: #e1e0d9; stroke-width: 0.8; stroke-linecap: square"/>
     </g>
     <g id="line2d_6">
      <g>
       <use xlink:href="#m51061142c6" x="189.280807" y="255.925969" style="fill: #898781; stroke: #898781; stroke-width: 0.8"/>
      </g>
     </g>
     <g id="text_3">
      <!-- 2023-10 -->
      <g style="fill: #52514e" transform="translate(166.30026 271.283391) scale(0.11 -0.11)">
       <defs>
        <path id="DejaVuSans-14" d="M 794 531 
L 1825 531 
L 1825 4091 
L 703 3866 
L 703 4441 
L 1819 4666 
L 2450 4666 
L 2450 531 
L 3481 531 
L 3481 0 
L 794 0 
L 794 531 
z
" transform="scale(0.015625)"/>
       </defs>
       <use xlink:href="#DejaVuSans-15"/>
       <use xlink:href="#DejaVuSans-13" transform="translate(63.625 0)"/>
       <use xlink:href="#DejaVuSans-15" transform="translate(127.25 0)"/>
       <use xlink:href="#DejaVuSans-16" transform="translate(190.875 0)"/>
       <use xlink:href="#DejaVuSans-10" transform="translate(254.5 0)"/>
       <use xlink:href="#DejaVuSans-14" transform="translate(290.578125 0)"/>
       <use xlink:href="#DejaVuSans-13" transform="translate(354.203125 0)"/>
      </g>
     </g>
    </g>
    <g id="xtick_4">
     <g id="line2d_7">
      <path d="M 253.036396 255.925969 
L 253.036396 23.077969 
" clip-path="url(#p35ab3ea285)" style="fill: none; stroke: #e1e0d9; stroke-width: 0.8; stroke-linecap: square"/>
     </g>
     <g id="line2d_8">
      <g>
       <use xlink:href="#m51061142c6" x="253.036396" y="255.925969" style="fill: #898781; stroke: #898781; stroke-width: 0.8"/>
      </g>
     </g>
     <g id="text_4">
      <!-- 2024-01 -->
      <g style="fill: #52514e" transform="translate(230.055849 271.283391) scale(0.11 -0.11)">
       <use xlink:href="#DejaVuSans-15"/>
       <use xlink:href="#DejaVuSans-13" transform="translate(63.625 0)"/>
       <use xlink:href="#DejaVuSans-15" transform="translate(127.25 0)"/>
       <use xlink:href="#DejaVuSans-17" transform="translate(190.875 0)"/>
       <use xlink:href="#DejaVuSans-10" transform="translate(254.5 0)"/>
       <use xlink:href="#DejaVuSans-13" transform="translate(290.578125 0)"/>
       <use xlink:href="#DejaVuSans-14" transform="translate(354.203125 0)"/>
      </g>
     </g>
    </g>
    <g id="xtick_5">
     <g id="line2d_9">
      <path d="M 316.098989 255.925969 
L 316.098989 23.077969 
" clip-path="url(#p35ab3ea285)" style="fill: none; stroke: #e1e0d9; stroke-width: 0.8; stroke-linecap: square"/>
     </g>
     <g id="line2d_10">
      <g>
       <use xlink:href="#m51061142c6" x="316.098989" y="255.925969" style="fill: #898781; stroke: #898781; stroke-width: 0.8"/>
      </g>
     </g>
     <g id="text_5">
      <!-- 2024-04 -->
      <g style="fill: #52514e" transform="translate(293.118442 271.283391) scale(0.11 -0.11)">
       <use xlink:href="#DejaVuSans-15"/>
       <use xlink:href="#DejaVuSans-13" transform="translate(63.625 0)"/>
       <use xlink:href="#DejaVuSans-15" transform="translate(127.25 0)"/>
       <use xlink:href="#DejaVuSans-17" transform="translate(190.875 0)"/>
       <use xlink:href="#DejaVuSans-10" transform="translate(254.5 0)"/>
       <use xlink:href="#DejaVuSans-13" transform="translate(290.578125 0)"/>
       <use xlink:href="#DejaVuSans-17" transform="translate(354.203125 0)"/>
      </g>
     </g>
    </g>
    <g id="xtick_6">
     <g id="line2d_11">
      <path d="M 379.161582 255.925969 
L 379.161582 23.077969 
" clip-path="url(#p35ab3ea285)" style="fill: none; stroke: #e1e0d9; stroke-width: 0.8; stroke-linecap: square"/>
     </g>
     <g id="line2d_12">
      <g>
       <use xlink:href="#m51061142c6" x="379.161582" y="255.925969" style="fill: #898781; stroke: #898781; stroke-width: 0.8"/>
      </g>
     </g>
     <g id="text_6">
      <!-- 2024-07 -->
      <g style="fill: #52514e" transform="translate(356.181035 271.283391) scale(0.11 -0.11)">
       <use xlink:href="#DejaVuSans-15"/>
       <use xlink:href="#DejaVuSans-13" transform="translate(63.625 0)"/>
       <use xlink:href="#DejaVuSans-15" transform="translate(127.25 0)"/>
       <use xlink:href="#DejaVuSans-17" transform="translate(190.875 0)"/>
       <use xlink:href="#DejaVuSans-10" transform="translate(254.5 0)"/>
       <use xlink:href="#DejaVuSans-13" transform="translate(290.578125 0)"/>
       <use xlink:href="#DejaVuSans-1a" transform="translate(354.203125 0)"/>
      </g>
     </g>
    </g>
    <g id="xtick_7">
     <g id="line2d_13">
      <path d="M 442.917171 255.925969 
L 442.917171 23.077969 
" clip-path="url(#p35ab3ea285)" style="fill: none; stroke: #e1e0d9; stroke-width: 0.8; stroke-linecap: square"/>
     </g>
     <g id="line2d_14">
      <g>
       <use xlink:href="#m51061142c6" x="442.917171" y="255.925969" style="fill: #898781; stroke: #898781; stroke-width: 0.8"/>
      </g>
     </g>
     <g id="text_7">
      <!-- 2024-10 -->
      <g style="fill: #52514e" transform="translate(419.936624 271.283391) scale(0.11 -0.11)">
       <use xlink:href="#DejaVuSans-15"/>
       <use xlink:href="#DejaVuSans-13" transform="translate(63.625 0)"/>
       <use xlink:href="#DejaVuSans-15" transform="translate(127.25 0)"/>
       <use xlink:href="#DejaVuSans-17" transform="translate(190.875 0)"/>
       <use xlink:href="#DejaVuSans-10" transform="translate(254.5 0)"/>
       <use xlink:href="#DejaVuSans-14" transform="translate(290.578125 0)"/>
       <use xlink:href="#DejaVuSans-13" transform="translate(354.203125 0)"/>
      </g>
     </g>
    </g>
    <g id="xtick_8">
     <g id="line2d_15">
      <path d="M 506.67276 255.925969 
L 506.67276 23.077969 
" clip-path="url(#p35ab3ea285)" style="fill: none; stroke: #e1e0d9; stroke-width: 0.8; stroke-linecap: square"/>
     </g>
     <g id="line2d_16">
      <g>
       <use xlink:href="#m51061142c6" x="506.67276" y="255.925969" style="fill: #898781; stroke: #898781; stroke-width: 0.8"/>
      </g>
     </g>
     <g id="text_8">
      <!-- 2025-01 -->
      <g style="fill: #52514e" transform="translate(483.692213 271.283391) scale(0.11 -0.11)">
       <defs>
        <path id="DejaVuSans-18" d="M 691 4666 
L 3169 4666 
L 3169 4134 
L 1269 4134 
L 1269 2991 
Q 1406 3038 1543 3061 
Q 1681 3084 1819 3084 
Q 2600 3084 3056 2656 
Q 3513 2228 3513 1497 
Q 3513 744 3044 326 
Q 2575 -91 1722 -91 
Q 1428 -91 1123 -41 
Q 819 9 494 109 
L 494 744 
Q 775 591 1075 516 
Q 1375 441 1709 441 
Q 2250 441 2565 725 
Q 2881 1009 2881 1497 
Q 2881 1984 2565 2268 
Q 2250 2553 1709 2553 
Q 1456 2553 1204 2497 
Q 953 2441 691 2322 
L 691 4666 
z
" transform="scale(0.015625)"/>
       </defs>
       <use xlink:href="#DejaVuSans-15"/>
       <use xlink:href="#DejaVuSans-13" transform="translate(63.625 0)"/>
       <use xlink:href="#DejaVuSans-15" transform="translate(127.25 0)"/>
       <use xlink:href="#DejaVuSans-18" transform="translate(190.875 0)"/>
       <use xlink:href="#DejaVuSans-10" transform="translate(254.5 0)"/>
       <use xlink:href="#DejaVuSans-13" transform="translate(290.578125 0)"/>
       <use xlink:href="#DejaVuSans-14" transform="translate(354.203125 0)"/>
      </g>
     </g>
    </g>
    <g id="xtick_9">
     <g id="line2d_17">
      <path d="M 569.042357 255.925969 
L 569.042357 23.077969 
" clip-path="url(#p35ab3ea285)" style="fill: none; stroke: #e1e0d9; stroke-width: 0.8; stroke-linecap: square"/>
     </g>
     <g id="line2d_18">
      <g>
       <use xlink:href="#m51061142c6" x="569.042357" y="255.925969" style="fill: #898781; stroke: #898781; stroke-width: 0.8"/>
      </g>
     </g>
     <g id="text_9">
      <!-- 2025-04 -->
      <g style="fill: #52514e" transform="translate(546.06181 271.283391) scale(0.11 -0.11)">
       <use xlink:href="#DejaVuSans-15"/>
       <use xlink:href="#DejaVuSans-13" transform="translate(63.625 0)"/>
       <use xlink:href="#DejaVuSans-15" transform="translate(127.25 0)"/>
       <use xlink:href="#DejaVuSans-18" transform="translate(190.875 0)"/>
       <use xlink:href="#DejaVuSans-10" transform="translate(254.5 0)"/>
       <use xlink:href="#DejaVuSans-13" transform="translate(290.578125 0)"/>
       <use xlink:href="#DejaVuSans-17" transform="translate(354.203125 0)"/>
      </g>
     </g>
    </g>
   </g>
   <g id="matplotlib.axis_2">
    <g id="ytick_1">
     <g id="line2d_19">
      <path d="M 57.195859 245.341969 
L 615.195859 245.341969 
" clip-path="url(#p35ab3ea285)" style="fill: none; stroke: #e1e0d9; stroke-width: 0.8; stroke-linecap: square"/>
     </g>
     <g id="line2d_20">
      <defs>
       <path id="m7a52e6eadf" d="M 0 0 
L -3.5 0 
" style="stroke: #898781; stroke-width: 0.8"/>
      </defs>
      <g>
       <use xlink:href="#m7a52e6eadf" x="57.195859" y="245.341969" style="fill: #898781; stroke: #898781; stroke-width: 0.8"/>
      </g>
     </g>
     <g id="text_10">
      <!-- 0 -->
      <g style="fill: #52514e" transform="translate(43.197109 249.52068) scale(0.11 -0.11)">
       <use xlink:href="#DejaVuSans-13"/>
      </g>
     </g>
    </g>
    <g id="ytick_2">
     <g id="line2d_21">
      <path d="M 57.195859 216.943793 
L 615.195859 216.943793 
" clip-path="url(#p35ab3ea285)" style="fill: none; stroke: #e1e0d9; stroke-width: 0.8; stroke-linecap: square"/>
     </g>
     <g id="line2d_22">
      <g>
       <use xlink:href="#m7a52e6eadf" x="57.195859" y="216.943793" style="fill: #898781; stroke: #898781; stroke-width: 0.8"/>
      </g>
     </g>
     <g id="text_11">
      <!-- 1000 -->
      <g style="fill: #52514e" transform="translate(22.200859 221.122504) scale(0.11 -0.11)">
       <use xlink:href="#DejaVuSans-14"/>
       <use xlink:href="#DejaVuSans-13" transform="translate(63.625 0)"/>
       <use xlink:href="#DejaVuSans-13" transform="translate(127.25 0)"/>
       <use xlink:href="#DejaVuSans-13" transform="translate(190.875 0)"/>
      </g>
     </g>
    </g>
    <g id="ytick_3">
     <g id="line2d_23">
      <path d="M 57.195859 188.545618 
L 615.195859 188.545618 
" clip-path="url(#p35ab3ea285)" style="fill: none; stroke: #e1e0d9; stroke-width: 0.8; stroke-linecap: square"/>
     </g>
     <g id="line2d_24">
      <g>
       <use xlink:href="#m7a52e6eadf" x="57.195859" y="188.545618" style="fill: #898781; stroke: #898781; stroke-width: 0.8"/>
      </g>
     </g>
     <g id="text_12">
      <!-- 2000 -->
      <g style="fill: #52514e" transform="translate(22.200859 192.724329) scale(0.11 -0.11)">
       <use xlink:href="#DejaVuSans-15"/>
       <use xlink:href="#DejaVuSans-13" transform="translate(63.625 0)"/>
       <use xlink:href="#DejaVuSans-13" transform="translate(127.25 0)"/>
       <use xlink:href="#DejaVuSans-13" transform="translate(190.875 0)"/>
      </g>
     </g>
    </g>
    <g id="ytick_4">
     <g id="line2d_25">
      <path d="M 57.195859 160.147442 
L 615.195859 160.147442 
" clip-path="url(#p35ab3ea285)" style="fill: none; stroke: #e1e0d9; stroke-width: 0.8; stroke-linecap: square"/>
     </g>
     <g id="line2d_26">
      <g>
       <use xlink:href="#m7a52e6eadf" x="57.195859" y="160.147442" style="fill: #898781; stroke: #898781; stroke-width: 0.8"/>
      </g>
     </g>
     <g id="text_13">
      <!-- 3000 -->
      <g style="fill: #52514e" transform="translate(22.200859 164.326153) scale(0.11 -0.11)">
       <use xlink:href="#DejaVuSans-16"/>
       <use xlink:href="#DejaVuSans-13" transform="translate(63.625 0)"/>
       <use xlink:href="#DejaVuSans-13" transform="translate(127.25 0)"/>
       <use xlink:href="#DejaVuSans-13" transform="translate(190.875 0)"/>
      </g>
     </g>
    </g>
    <g id="ytick_5">
     <g id="line2d_27">
      <path d="M 57.195859 131.749267 
L 615.195859 131.749267 
" clip-path="url(#p35ab3ea285)" style="fill: none; stroke: #e1e0d9; stroke-width: 0.8; stroke-linecap: square"/>
     </g>
     <g id="line2d_28">
      <g>
       <use xlink:href="#m7a52e6eadf" x="57.195859" y="131.749267" style="fill: #898781; stroke: #898781; stroke-width: 0.8"/>
      </g>
     </g>
     <g id="text_14">
      <!-- 4000 -->
      <g style="fill: #52514e" transform="translate(22.200859 135.927978) scale(0.11 -0.11)">
       <use xlink:href="#DejaVuSans-17"/>
       <use xlink:href="#DejaVuSans-13" transform="translate(63.625 0)"/>
       <use xlink:href="#DejaVuSans-13" transform="translate(127.25 0)"/>
       <use xlink:href="#DejaVuSans-13" transform="translate(190.875 0)"/>
      </g>
     </g>
    </g>
    <g id="ytick_6">
     <g id="line2d_29">
      <path d="M 57.195859 103.351091 
L 615.195859 103.351091 
" clip-path="url(#p35ab3ea285)" style="fill: none; stroke: #e1e0d9; stroke-width: 0.8; stroke-linecap: square"/>
     </g>
     <g id="line2d_30">
      <g>
       <use xlink:href="#m7a52e6eadf" x="57.195859" y="103.351091" style="fill: #898781; stroke: #898781; stroke-width: 0.8"/>
      </g>
     </g>
     <g id="text_15">
      <!-- 5000 -->
      <g style="fill: #52514e" transform="translate(22.200859 107.529802) scale(0.11 -0.11)">
       <use xlink:href="#DejaVuSans-18"/>
       <use xlink:href="#DejaVuSans-13" transform="translate(63.625 0)"/>
       <use xlink:href="#DejaVuSans-13" transform="translate(127.25 0)"/>
       <use xlink:href="#DejaVuSans-13" transform="translate(190.875 0)"/>
      </g>
     </g>
    </g>
    <g id="ytick_7">
     <g id="line2d_31">
      <path d="M 57.195859 74.952916 
L 615.195859 74.952916 
" clip-path="url(#p35ab3ea285)" style="fill: none; stroke: #e1e0d9; stroke-width: 0.8; stroke-linecap: square"/>
     </g>
     <g id="line2d_32">
      <g>
       <use xlink:href="#m7a52e6eadf" x="57.195859" y="74.952916" style="fill: #898781; stroke: #898781; stroke-width: 0.8"/>
      </g>
     </g>
     <g id="text_16">
      <!-- 6000 -->
      <g style="fill: #52514e" transform="translate(22.200859 79.131627) scale(0.11 -0.11)">
       <defs>
        <path id="DejaVuSans-19" d="M 2113 2584 
Q 1688 2584 1439 2293 
Q 1191 2003 1191 1497 
Q 1191 994 1439 701 
Q 1688 409 2113 409 
Q 2538 409 2786 701 
Q 3034 994 3034 1497 
Q 3034 2003 2786 2293 
Q 2538 2584 2113 2584 
z
M 3366 4563 
L 3366 3988 
Q 3128 4100 2886 4159 
Q 2644 4219 2406 4219 
Q 1781 4219 1451 3797 
Q 1122 3375 1075 2522 
Q 1259 2794 1537 2939 
Q 1816 3084 2150 3084 
Q 2853 3084 3261 2657 
Q 3669 2231 3669 1497 
Q 3669 778 3244 343 
Q 2819 -91 2113 -91 
Q 1303 -91 875 529 
Q 447 1150 447 2328 
Q 447 3434 972 4092 
Q 1497 4750 2381 4750 
Q 2619 4750 2861 4703 
Q 3103 4656 3366 4563 
z
" transform="scale(0.015625)"/>
       </defs>
       <use xlink:href="#DejaVuSans-19"/>
       <use xlink:href="#DejaVuSans-13" transform="translate(63.625 0)"/>
       <use xlink:href="#DejaVuSans-13" transform="translate(127.25 0)"/>
       <use xlink:href="#DejaVuSans-13" transform="translate(190.875 0)"/>
      </g>
     </g>
    </g>
    <g id="ytick_8">
     <g id="line2d_33">
      <path d="M 57.195859 46.55474 
L 615.195859 46.55474 
" clip-path="url(#p35ab3ea285)" style="fill: none; stroke: #e1e0d9; stroke-width: 0.8; stroke-linecap: square"/>
     </g>
     <g id="line2d_34">
      <g>
       <use xlink:href="#m7a52e6eadf" x="57.195859" y="46.55474" style="fill: #898781; stroke: #898781; stroke-width: 0.8"/>
      </g>
     </g>
     <g id="text_17">
      <!-- 7000 -->
      <g style="fill: #52514e" transform="translate(22.200859 50.733451) scale(0.11 -0.11)">
       <use xlink:href="#DejaVuSans-1a"/>
       <use xlink:href="#DejaVuSans-13" transform="translate(63.625 0)"/>
       <use xlink:href="#DejaVuSans-13" transform="translate(127.25 0)"/>
       <use xlink:href="#DejaVuSans-13" transform="translate(190.875 0)"/>
      </g>
     </g>
    </g>
    <g id="text_18">
     <!-- Trades per day -->
     <g style="fill: #52514e" transform="translate(15.558281 180.175328) rotate(-90) scale(0.11 -0.11)">
      <defs>
       <path id="DejaVuSans-37" d="M -19 4666 
L 3928 4666 
L 3928 4134 
L 2272 4134 
L 2272 0 
L 1638 0 
L 1638 4134 
L -19 4134 
L -19 4666 
z
" transform="scale(0.015625)"/>
       <path id="DejaVuSans-55" d="M 2631 2963 
Q 2534 3019 2420 3045 
Q 2306 3072 2169 3072 
Q 1681 3072 1420 2755 
Q 1159 2438 1159 1844 
L 1159 0 
L 581 0 
L 581 3500 
L 1159 3500 
L 1159 2956 
Q 1341 3275 1631 3429 
Q 1922 3584 2338 3584 
Q 2397 3584 2469 3576 
Q 2541 3569 2628 3553 
L 2631 2963 
z
" transform="scale(0.015625)"/>
       <path id="DejaVuSans-44" d="M 2194 1759 
Q 1497 1759 1228 1600 
Q 959 1441 959 1056 
Q 959 750 1161 570 
Q 1363 391 1709 391 
Q 2188 391 2477 730 
Q 2766 1069 2766 1631 
L 2766 1759 
L 2194 1759 
z
M 3341 1997 
L 3341 0 
L 2766 0 
L 2766 531 
Q 2569 213 2275 61 
Q 1981 -91 1556 -91 
Q 1019 -91 701 211 
Q 384 513 384 1019 
Q 384 1609 779 1909 
Q 1175 2209 1959 2209 
L 2766 2209 
L 2766 2266 
Q 2766 2663 2505 2880 
Q 2244 3097 1772 3097 
Q 1472 3097 1187 3025 
Q 903 2953 641 2809 
L 641 3341 
Q 956 3463 1253 3523 
Q 1550 3584 1831 3584 
Q 2591 3584 2966 3190 
Q 3341 2797 3341 1997 
z
" transform="scale(0.015625)"/>
       <path id="DejaVuSans-47" d="M 2906 2969 
L 2906 4863 
L 3481 4863 
L 3481 0 
L 2906 0 
L 2906 525 
Q 2725 213 2448 61 
Q 2172 -91 1784 -91 
Q 1150 -91 751 415 
Q 353 922 353 1747 
Q 353 2572 751 3078 
Q 1150 3584 1784 3584 
Q 2172 3584 2448 3432 
Q 2725 3281 2906 2969 
z
M 947 1747 
Q 947 1113 1208 752 
Q 1469 391 1925 391 
Q 2381 391 2643 752 
Q 2906 1113 2906 1747 
Q 2906 2381 2643 2742 
Q 2381 3103 1925 3103 
Q 1469 3103 1208 2742 
Q 947 2381 947 1747 
z
" transform="scale(0.015625)"/>
       <path id="DejaVuSans-48" d="M 3597 1894 
L 3597 1613 
L 953 1613 
Q 991 1019 1311 708 
Q 1631 397 2203 397 
Q 2534 397 2845 478 
Q 3156 559 3463 722 
L 3463 178 
Q 3153 47 2828 -22 
Q 2503 -91 2169 -91 
Q 1331 -91 842 396 
Q 353 884 353 1716 
Q 353 2575 817 3079 
Q 1281 3584 2069 3584 
Q 2775 3584 3186 3129 
Q 3597 2675 3597 1894 
z
M 3022 2063 
Q 3016 2534 2758 2815 
Q 2500 3097 2075 3097 
Q 1594 3097 1305 2825 
Q 1016 2553 972 2059 
L 3022 2063 
z
" transform="scale(0.015625)"/>
       <path id="DejaVuSans-56" d="M 2834 3397 
L 2834 2853 
Q 2591 2978 2328 3040 
Q 2066 3103 1784 3103 
Q 1356 3103 1142 2972 
Q 928 2841 928 2578 
Q 928 2378 1081 2264 
Q 1234 2150 1697 2047 
L 1894 2003 
Q 2506 1872 2764 1633 
Q 3022 1394 3022 966 
Q 3022 478 2636 193 
Q 2250 -91 1575 -91 
Q 1294 -91 989 -36 
Q 684 19 347 128 
L 347 722 
Q 666 556 975 473 
Q 1284 391 1588 391 
Q 1994 391 2212 530 
Q 2431 669 2431 922 
Q 2431 1156 2273 1281 
Q 2116 1406 1581 1522 
L 1381 1569 
Q 847 1681 609 1914 
Q 372 2147 372 2553 
Q 372 3047 722 3315 
Q 1072 3584 1716 3584 
Q 2034 3584 2315 3537 
Q 2597 3491 2834 3397 
z
" transform="scale(0.015625)"/>
       <path id="DejaVuSans-3" transform="scale(0.015625)"/>
       <path id="DejaVuSans-53" d="M 1159 525 
L 1159 -1331 
L 581 -1331 
L 581 3500 
L 1159 3500 
L 1159 2969 
Q 1341 3281 1617 3432 
Q 1894 3584 2278 3584 
Q 2916 3584 3314 3078 
Q 3713 2572 3713 1747 
Q 3713 922 3314 415 
Q 2916 -91 2278 -91 
Q 1894 -91 1617 61 
Q 1341 213 1159 525 
z
M 3116 1747 
Q 3116 2381 2855 2742 
Q 2594 3103 2138 3103 
Q 1681 3103 1420 2742 
Q 1159 2381 1159 1747 
Q 1159 1113 1420 752 
Q 1681 391 2138 391 
Q 2594 391 2855 752 
Q 3116 1113 3116 1747 
z
" transform="scale(0.015625)"/>
       <path id="DejaVuSans-5c" d="M 2059 -325 
Q 1816 -950 1584 -1140 
Q 1353 -1331 966 -1331 
L 506 -1331 
L 506 -850 
L 844 -850 
Q 1081 -850 1212 -737 
Q 1344 -625 1503 -206 
L 1606 56 
L 191 3500 
L 800 3500 
L 1894 763 
L 2988 3500 
L 3597 3500 
L 2059 -325 
z
" transform="scale(0.015625)"/>
      </defs>
      <use xlink:href="#DejaVuSans-37"/>
      <use xlink:href="#DejaVuSans-55" transform="translate(46.375 0)"/>
      <use xlink:href="#DejaVuSans-44" transform="translate(87.484375 0)"/>
      <use xlink:href="#DejaVuSans-47" transform="translate(148.765625 0)"/>
      <use xlink:href="#DejaVuSans-48" transform="translate(212.25 0)"/>
      <use xlink:href="#DejaVuSans-56" transform="translate(273.78125 0)"/>
      <use xlink:href="#DejaVuSans-3" transform="translate(325.875 0)"/>
      <use xlink:href="#DejaVuSans-53" transform="translate(357.65625 0)"/>
      <use xlink:href="#DejaVuSans-48" transform="translate(421.140625 0)"/>
      <use xlink:href="#DejaVuSans-55" transform="translate(482.671875 0)"/>
      <use xlink:href="#DejaVuSans-3" transform="translate(523.78125 0)"/>
      <use xlink:href="#DejaVuSans-47" transform="translate(555.5625 0)"/>
      <use xlink:href="#DejaVuSans-44" transform="translate(619.046875 0)"/>
      <use xlink:href="#DejaVuSans-5c" transform="translate(680.328125 0)"/>
     </g>
    </g>
   </g>
   <g id="line2d_35">
    <path d="M 82.559496 245.256774 
L 83.945487 245.341969 
L 232.939526 245.341969 
L 233.632521 245.086385 
L 234.325517 245.341969 
L 239.869481 245.256774 
L 240.562476 245.057987 
L 241.255472 245.341969 
L 241.948467 245.029589 
L 243.334458 245.285172 
L 244.027454 244.632014 
L 244.72045 244.177644 
L 245.413445 244.745607 
L 246.106441 244.830802 
L 246.799436 244.348033 
L 247.492432 245.143182 
L 248.185427 245.341969 
L 249.571418 244.802403 
L 250.264414 244.206042 
L 250.957409 243.325698 
L 251.650405 244.944394 
L 252.3434 245.114783 
L 253.036396 244.802403 
L 253.729391 244.319634 
L 254.422387 244.092449 
L 255.115382 245.256774 
L 255.808378 242.928124 
L 256.501374 244.660413 
L 257.194369 241.224233 
L 257.887365 242.36016 
L 258.58036 239.690732 
L 259.273356 244.688811 
L 259.966351 244.830802 
L 260.659347 245.285172 
L 262.045338 245.341969 
L 262.738333 244.8592 
L 263.431329 245.086385 
L 264.124324 242.928124 
L 264.81732 243.978856 
L 265.510315 242.729337 
L 266.203311 244.319634 
L 266.896306 244.376431 
L 267.589302 243.893662 
L 268.282298 242.899726 
L 268.975293 244.575218 
L 269.668289 245.029589 
L 270.361284 245.341969 
L 271.05428 245.341969 
L 271.747275 242.98492 
L 272.440271 244.688811 
L 273.133266 220.152787 
L 273.826262 245.17158 
L 274.519257 244.54682 
L 275.905248 243.751671 
L 276.598244 243.439291 
L 277.291239 228.161073 
L 277.984235 231.171279 
L 278.67723 245.057987 
L 279.370226 245.057987 
L 280.063222 245.341969 
L 280.756217 245.341969 
L 281.449213 244.376431 
L 282.142208 244.887598 
L 282.835204 244.291236 
L 283.528199 242.757735 
L 284.221195 242.842929 
L 284.91419 240.457483 
L 285.607186 243.126911 
L 286.300181 242.558948 
L 286.993177 242.331762 
L 287.686172 244.433227 
L 288.379168 243.155309 
L 289.072163 240.372288 
L 289.765159 245.341969 
L 290.458154 245.341969 
L 291.15115 245.199978 
L 292.537141 243.382495 
L 293.230137 242.871327 
L 293.923132 241.678604 
L 294.616128 242.502151 
L 295.309123 245.17158 
L 296.002119 242.644142 
L 296.695114 235.118626 
L 297.38811 240.599473 
L 298.081105 244.802403 
L 298.774101 244.944394 
L 299.467096 243.467689 
L 300.160092 241.508215 
L 300.853087 245.029589 
L 301.546083 244.149245 
L 302.239078 245.114783 
L 302.932074 245.114783 
L 303.62507 243.865264 
L 304.318065 244.518422 
L 305.011061 244.972792 
L 306.397052 244.688811 
L 307.090047 242.98492 
L 307.783043 244.404829 
L 308.476038 245.341969 
L 309.169034 245.341969 
L 309.862029 244.802403 
L 310.555025 245.341969 
L 311.24802 244.262838 
L 311.941016 242.530549 
L 312.634011 244.603616 
L 313.327007 244.774005 
L 314.020002 245.114783 
L 314.712998 244.064051 
L 315.405994 244.717209 
L 316.098989 243.126911 
L 316.791985 244.461625 
L 317.48498 245.143182 
L 318.177976 244.291236 
L 318.870971 242.729337 
L 319.563967 244.887598 
L 320.949958 244.490023 
L 321.642953 245.256774 
L 322.335949 244.007255 
L 323.028944 245.057987 
L 323.72194 240.116704 
L 324.414935 242.303364 
L 325.107931 243.978856 
L 325.800926 243.694875 
L 326.493922 244.887598 
L 327.186917 244.944394 
L 327.879913 244.575218 
L 328.572909 245.114783 
L 329.265904 244.717209 
L 329.9589 245.256774 
L 330.651895 245.057987 
L 331.344891 243.524486 
L 332.037886 244.745607 
L 332.730882 243.325698 
L 333.423877 245.256774 
L 334.116873 244.23444 
L 334.809868 243.439291 
L 335.502864 244.660413 
L 336.195859 244.404829 
L 336.888855 245.199978 
L 337.58185 245.341969 
L 338.274846 244.262838 
L 338.967841 245.143182 
L 339.660837 245.17158 
L 340.353833 245.086385 
L 341.046828 244.717209 
L 341.739824 244.830802 
L 342.432819 244.632014 
L 343.125815 244.887598 
L 343.81881 244.717209 
L 344.511806 245.057987 
L 345.204801 244.54682 
L 345.897797 244.688811 
L 346.590792 243.950458 
L 347.283788 244.944394 
L 347.976783 245.341969 
L 348.669779 244.632014 
L 349.362774 244.972792 
L 350.05577 242.416957 
L 350.748765 244.575218 
L 351.441761 245.17158 
L 352.134757 236.055765 
L 352.827752 245.285172 
L 353.520748 244.915996 
L 354.213743 243.978856 
L 354.906739 239.151166 
L 355.599734 244.972792 
L 356.29273 240.96865 
L 356.985725 245.086385 
L 357.678721 245.086385 
L 358.371716 244.518422 
L 359.064712 241.763799 
L 359.757707 244.433227 
L 360.450703 243.808467 
L 361.143698 243.836865 
L 362.529689 232.846772 
L 363.222685 245.285172 
L 363.915681 244.802403 
L 365.301672 241.451419 
L 365.994667 239.09437 
L 366.687663 243.183707 
L 367.380658 244.461625 
L 368.073654 243.126911 
L 368.766649 244.830802 
L 370.15264 243.978856 
L 370.845636 243.60968 
L 371.538631 243.524486 
L 372.924622 244.944394 
L 373.617618 244.944394 
L 374.310613 244.120847 
L 375.003609 243.808467 
L 375.696605 243.723273 
L 376.3896 244.830802 
L 377.082596 244.887598 
L 377.775591 243.410893 
L 378.468587 244.774005 
L 379.161582 243.496087 
L 379.854578 245.256774 
L 380.547573 244.717209 
L 381.240569 244.774005 
L 381.933564 243.865264 
L 382.62656 244.944394 
L 383.319555 245.341969 
L 384.705546 245.029589 
L 385.398542 243.694875 
L 386.091537 244.575218 
L 386.784533 245.029589 
L 387.477529 244.972792 
L 388.170524 245.143182 
L 388.86352 244.376431 
L 389.556515 244.944394 
L 390.249511 235.374209 
L 390.942506 243.638078 
L 391.635502 244.688811 
L 392.328497 233.130753 
L 393.021493 236.992905 
L 393.714488 234.664255 
L 394.407484 241.224233 
L 395.100479 242.104577 
L 395.793475 243.723273 
L 396.48647 239.861121 
L 397.179466 245.17158 
L 397.872461 244.887598 
L 398.565457 244.23444 
L 399.258453 245.086385 
L 399.951448 244.035653 
L 400.644444 243.60968 
L 401.337439 243.836865 
L 402.030435 244.291236 
L 402.72343 241.7354 
L 403.416426 241.025446 
L 404.109421 243.836865 
L 404.802417 244.745607 
L 405.495412 244.433227 
L 406.188408 241.990984 
L 406.881403 242.928124 
L 407.574399 243.552884 
L 408.267394 244.8592 
L 408.96039 244.490023 
L 409.653385 244.717209 
L 410.346381 244.348033 
L 411.039377 245.341969 
L 411.732372 244.490023 
L 412.425368 244.915996 
L 413.118363 245.114783 
L 413.811359 245.001191 
L 414.504354 241.224233 
L 415.19735 245.341969 
L 415.890345 244.8592 
L 416.583341 244.8592 
L 417.276336 245.341969 
L 417.969332 243.865264 
L 418.662327 244.972792 
L 419.355323 245.341969 
L 420.048318 245.285172 
L 421.434309 244.632014 
L 422.820301 245.341969 
L 423.513296 245.341969 
L 424.206292 244.376431 
L 424.899287 245.313571 
L 425.592283 244.149245 
L 426.285278 245.341969 
L 429.05726 245.313571 
L 429.750256 245.341969 
L 430.443251 245.057987 
L 431.136247 245.313571 
L 432.522238 245.341969 
L 433.215233 241.224233 
L 433.908229 244.802403 
L 434.601225 245.341969 
L 435.29422 244.23444 
L 435.987216 245.341969 
L 437.373207 245.057987 
L 438.066202 245.313571 
L 438.759198 245.086385 
L 439.452193 245.114783 
L 440.145189 243.638078 
L 440.838184 245.341969 
L 441.53118 245.341969 
L 442.224175 242.331762 
L 442.917171 245.114783 
L 443.610166 245.285172 
L 444.303162 245.143182 
L 444.996157 244.660413 
L 445.689153 244.632014 
L 446.382148 245.029589 
L 447.075144 243.780069 
L 447.76814 245.086385 
L 449.154131 244.972792 
L 449.847126 244.348033 
L 450.540122 245.313571 
L 451.233117 245.057987 
L 451.926113 245.17158 
L 454.005099 245.086385 
L 455.39109 245.313571 
L 456.084086 241.934188 
L 456.777081 241.110641 
L 457.470077 245.256774 
L 458.163072 244.830802 
L 458.856068 244.915996 
L 459.549064 244.745607 
L 460.242059 245.341969 
L 460.935055 245.199978 
L 461.62805 244.774005 
L 462.321046 243.552884 
L 463.014041 244.887598 
L 463.707037 244.177644 
L 464.400032 244.688811 
L 465.093028 245.341969 
L 465.786023 244.915996 
L 466.479019 244.291236 
L 467.172014 245.17158 
L 467.86501 242.388559 
L 468.558005 244.603616 
L 469.251001 244.461625 
L 469.943996 242.445355 
L 470.636992 237.362081 
L 471.329988 237.70286 
L 472.022983 240.258695 
L 472.715979 244.23444 
L 473.408974 241.848993 
L 474.10197 240.883455 
L 474.794965 240.599473 
L 475.487961 239.207963 
L 476.180956 234.465468 
L 476.873952 235.998969 
L 477.566947 231.994826 
L 478.259943 224.866884 
L 478.952938 231.284872 
L 479.645934 235.289015 
L 480.338929 240.627872 
L 481.031925 236.226154 
L 481.72492 238.412814 
L 482.417916 236.226154 
L 483.110912 238.242425 
L 483.803907 232.165215 
L 484.496903 235.232218 
L 485.189898 234.749449 
L 485.882894 239.236361 
L 486.575889 231.710845 
L 487.268885 238.299221 
L 487.96188 230.603316 
L 488.654876 234.351875 
L 489.347871 236.595331 
L 490.040867 234.124689 
L 490.733862 221.941872 
L 491.426858 205.698116 
L 492.119853 211.207362 
L 492.812849 186.614542 
L 493.505844 211.917316 
L 494.19884 213.25203 
L 494.891836 195.133995 
L 495.584831 209.446675 
L 496.277827 190.050721 
L 496.970822 203.369465 
L 497.663818 156.796458 
L 498.356813 172.699436 
L 499.742804 224.270523 
L 500.4358 184.285891 
L 501.128795 233.727115 
L 501.821791 239.548741 
L 502.514786 227.394322 
L 503.207782 237.816452 
L 503.900777 240.798261 
L 504.593773 238.412814 
L 505.286768 236.76572 
L 505.979764 237.617665 
L 506.67276 240.713066 
L 507.365755 234.57906 
L 508.058751 232.56279 
L 508.751746 234.238282 
L 509.444742 238.554805 
L 510.830733 221.317112 
L 511.523728 216.205441 
L 512.216724 227.7351 
L 512.909719 230.120547 
L 513.602715 237.362081 
L 514.29571 228.587045 
L 514.988706 231.739243 
L 515.681701 238.895583 
L 516.374697 234.948237 
L 517.067692 237.788054 
L 517.760688 239.207963 
L 518.453684 223.645763 
L 519.146679 193.572095 
L 519.839675 217.057386 
L 520.53267 230.262538 
L 521.225666 220.493565 
L 521.918661 201.637177 
L 522.611657 229.694574 
L 523.304652 233.585124 
L 523.997648 231.682446 
L 524.690643 222.367845 
L 525.383639 221.856678 
L 526.076634 225.40645 
L 526.76963 214.50155 
L 527.462625 219.556425 
L 528.155621 214.18917 
L 528.848616 207.884775 
L 529.541612 172.216667 
L 530.234608 181.105296 
L 530.927603 215.523884 
L 531.620599 201.069213 
L 532.313594 196.497107 
L 533.00659 230.06375 
L 533.699585 225.605237 
L 534.392581 226.400386 
L 535.085576 214.757134 
L 535.778572 201.12601 
L 536.471567 211.832122 
L 537.164563 198.31459 
L 537.857558 231.767641 
L 538.550554 224.071735 
L 539.243549 218.619286 
L 539.936545 196.525505 
L 540.62954 180.537332 
L 541.322536 200.984019 
L 542.015532 202.659511 
L 542.708527 230.432927 
L 543.401523 230.148945 
L 544.094518 33.661969 
L 544.787514 103.975851 
L 545.480509 230.972492 
L 546.173505 215.268301 
L 546.8665 223.901346 
L 547.559496 240.997048 
L 548.252491 222.254252 
L 548.945487 200.132073 
L 549.638482 173.466187 
L 550.331478 211.008575 
L 551.024473 197.775025 
L 551.717469 194.73642 
L 552.410464 229.950158 
L 553.10346 198.484979 
L 553.796456 158.415154 
L 554.489451 129.846589 
L 555.875442 212.1729 
L 556.568438 186.33056 
L 557.261433 239.065972 
L 557.954429 223.21979 
L 558.647424 225.264459 
L 559.34042 223.191392 
L 560.033415 194.338846 
L 560.726411 227.42272 
L 561.419406 220.777547 
L 562.112402 237.475674 
L 562.805397 229.155009 
L 563.498393 216.858599 
L 564.191388 221.20352 
L 564.884384 157.137236 
L 565.577379 225.207662 
L 566.270375 216.886997 
L 566.963371 200.95562 
L 567.656366 228.331462 
L 569.042357 237.70286 
L 569.735353 204.618985 
L 570.428348 201.58038 
L 571.121344 212.201298 
L 571.814339 238.356018 
L 572.507335 195.332782 
L 573.20033 179.4866 
L 573.893326 214.785532 
L 574.586321 119.25407 
L 575.279317 206.209283 
L 576.665308 186.983718 
L 577.358303 216.461024 
L 578.051299 226.513978 
L 578.744295 210.412213 
L 580.130286 185.223031 
L 580.823281 216.603015 
L 581.516277 165.060327 
L 582.209272 192.038593 
L 582.902268 203.994225 
L 583.595263 115.846289 
L 584.288259 86.510973 
L 584.981254 196.639098 
L 585.67425 204.874569 
L 586.367245 224.753292 
L 587.060241 233.130753 
L 587.753236 187.494885 
L 588.446232 185.677402 
L 589.139227 213.053243 
L 589.832223 228.388258 
L 589.832223 228.388258 
" clip-path="url(#p35ab3ea285)" style="fill: none; stroke: #2a78d6; stroke-opacity: 0.45; stroke-width: 0.7; stroke-linecap: square"/>
   </g>
   <g id="line2d_36">
    <path d="M 82.559496 245.256774 
L 85.331478 245.32493 
L 116.516277 245.341969 
L 241.948467 245.244604 
L 244.027454 245.110726 
L 245.413445 244.911939 
L 247.492432 244.737493 
L 248.878423 244.810517 
L 249.571418 244.899769 
L 250.264414 244.822688 
L 250.957409 244.607673 
L 252.3434 244.688811 
L 254.422387 244.400772 
L 255.115382 244.550877 
L 256.501374 244.453512 
L 257.194369 243.897719 
L 257.887365 243.548827 
L 258.58036 242.887555 
L 259.273356 242.97275 
L 259.966351 242.911896 
L 260.659347 243.248618 
L 261.352342 243.345983 
L 262.045338 243.934231 
L 262.738333 244.291236 
L 263.431329 245.062044 
L 264.124324 244.810517 
L 264.81732 244.688811 
L 265.510315 244.323691 
L 267.589302 243.901776 
L 268.282298 243.589396 
L 271.05428 244.49408 
L 271.747275 244.295293 
L 272.440271 244.408886 
L 273.133266 241.159323 
L 273.826262 241.244518 
L 275.212253 241.001105 
L 275.905248 240.773919 
L 276.598244 240.838829 
L 277.291239 238.477724 
L 277.984235 240.051794 
L 279.370226 240.108591 
L 281.449213 240.644099 
L 282.142208 243.033603 
L 282.835204 244.907882 
L 284.221195 244.262838 
L 284.91419 243.565054 
L 286.993177 242.623858 
L 288.379168 242.700938 
L 289.072163 242.34799 
L 289.765159 243.045773 
L 291.844146 244.007255 
L 293.230137 243.816581 
L 293.923132 244.003198 
L 294.616128 243.597509 
L 295.309123 243.573168 
L 296.002119 243.208049 
L 296.695114 241.909846 
L 297.38811 241.512272 
L 298.081105 241.78814 
L 298.774101 242.254681 
L 299.467096 242.392615 
L 300.160092 241.869278 
L 300.853087 242.210056 
L 301.546083 243.500144 
L 302.239078 244.145188 
L 302.932074 244.189814 
L 303.62507 244.035653 
L 304.318065 244.185757 
L 305.011061 244.680697 
L 306.397052 244.733436 
L 307.090047 244.42917 
L 307.783043 244.327748 
L 309.169034 244.656356 
L 314.712998 244.384545 
L 316.098989 244.133018 
L 316.791985 244.408886 
L 317.48498 244.485967 
L 318.177976 244.417 
L 318.870971 244.076222 
L 319.563967 244.193871 
L 320.256962 244.189814 
L 321.642953 244.498137 
L 322.335949 244.335862 
L 323.028944 244.445398 
L 324.414935 243.702988 
L 326.493922 243.435234 
L 327.186917 243.569111 
L 327.879913 243.500144 
L 328.572909 244.214155 
L 329.265904 244.55899 
L 330.651895 244.936281 
L 331.344891 244.74155 
L 332.037886 244.713152 
L 332.730882 244.534649 
L 334.116873 244.485967 
L 334.809868 244.226326 
L 335.502864 244.16953 
L 337.58185 244.648242 
L 338.274846 244.506251 
L 338.967841 244.636071 
L 339.660837 244.883541 
L 341.046828 244.98902 
L 343.81881 244.863257 
L 345.897797 244.765891 
L 346.590792 244.640128 
L 349.362774 244.725323 
L 350.05577 244.421056 
L 350.748765 244.404829 
L 351.441761 244.579275 
L 352.134757 243.309471 
L 354.213743 243.199935 
L 354.906739 242.733393 
L 355.599734 242.79019 
L 356.29273 242.189771 
L 356.985725 243.47986 
L 358.371716 243.394665 
L 359.064712 243.078228 
L 359.757707 243.832809 
L 360.450703 243.666476 
L 361.143698 244.076222 
L 361.836694 243.053887 
L 362.529689 241.305371 
L 363.222685 241.414907 
L 363.915681 241.848993 
L 364.608676 241.678604 
L 365.301672 241.341883 
L 365.994667 240.664384 
L 366.687663 241.414907 
L 367.380658 243.074172 
L 368.073654 242.765849 
L 368.766649 242.769905 
L 369.459645 242.928124 
L 370.15264 243.289186 
L 370.845636 243.934231 
L 372.231627 243.950458 
L 372.924622 244.210099 
L 376.3896 244.372374 
L 377.082596 244.465682 
L 377.775591 244.246611 
L 379.161582 244.133018 
L 380.547573 244.48191 
L 381.240569 244.473796 
L 381.933564 244.327748 
L 382.62656 244.54682 
L 383.319555 244.627957 
L 384.012551 244.863257 
L 384.705546 244.830802 
L 385.398542 244.684754 
L 386.091537 244.656356 
L 386.784533 244.822688 
L 388.170524 244.798347 
L 389.556515 244.67664 
L 390.249511 243.487974 
L 391.635502 243.305414 
L 392.328497 241.613694 
L 393.021493 240.449369 
L 393.714488 239.061915 
L 394.407484 238.530464 
L 395.100479 239.491945 
L 395.793475 239.504115 
L 396.48647 238.814445 
L 397.179466 240.534563 
L 397.872461 241.662377 
L 398.565457 243.029546 
L 399.258453 243.581282 
L 399.951448 243.85715 
L 400.644444 243.840922 
L 401.337439 244.408886 
L 402.030435 244.283122 
L 403.416426 243.374381 
L 404.109421 243.195878 
L 405.495412 243.41495 
L 406.881403 242.956522 
L 407.574399 243.216162 
L 408.267394 243.763842 
L 409.653385 243.853093 
L 410.346381 243.840922 
L 411.039377 244.319634 
L 412.425368 244.737493 
L 413.811359 244.847029 
L 414.504354 244.348033 
L 415.19735 244.490023 
L 415.890345 244.421056 
L 417.276336 244.534649 
L 417.969332 244.356146 
L 418.662327 244.352089 
L 419.355323 244.940337 
L 422.127305 244.855143 
L 422.820301 245.066101 
L 423.513296 245.11884 
L 424.206292 244.980906 
L 424.899287 244.984963 
L 425.592283 244.87137 
L 426.978274 245.025532 
L 428.364265 245.005248 
L 429.05726 245.139125 
L 429.750256 245.143182 
L 430.443251 245.273002 
L 432.522238 245.289229 
L 433.215233 244.705038 
L 435.987216 244.518422 
L 437.373207 244.461625 
L 438.066202 245.045816 
L 439.452193 245.05393 
L 440.838184 244.968736 
L 441.53118 244.984963 
L 442.224175 244.595502 
L 444.303162 244.599559 
L 444.996157 244.745607 
L 446.382148 244.599559 
L 447.075144 244.80646 
L 451.233117 244.802403 
L 451.926113 245.001191 
L 454.005099 245.009304 
L 454.698095 245.131011 
L 455.39109 245.131011 
L 456.084086 244.684754 
L 456.777081 244.10462 
L 458.856068 244.080278 
L 460.242059 244.019425 
L 461.62805 245.009304 
L 462.321046 244.765891 
L 463.014041 244.774005 
L 464.400032 244.660413 
L 466.479019 244.550877 
L 467.172014 244.782119 
L 467.86501 244.425113 
L 469.251001 244.453512 
L 469.943996 244.03971 
L 471.329988 242.019382 
L 472.022983 241.317542 
L 472.715979 241.581239 
L 474.794965 240.412857 
L 475.487961 240.676554 
L 476.180956 240.21407 
L 476.873952 239.605537 
L 477.566947 237.857021 
L 478.259943 235.431006 
L 478.952938 234.059779 
L 479.645934 233.301142 
L 481.031925 233.755513 
L 481.72492 234.100348 
L 482.417916 234.704824 
L 483.110912 236.615615 
L 483.803907 236.741378 
L 484.496903 236.733265 
L 485.189898 235.89349 
L 485.882894 236.32352 
L 486.575889 235.366095 
L 487.268885 235.662248 
L 487.96188 234.570946 
L 489.347871 235.078057 
L 490.040867 234.988805 
L 490.733862 232.518164 
L 492.119853 224.931794 
L 492.812849 218.647684 
L 494.19884 212.10799 
L 494.891836 206.53789 
L 495.584831 204.752862 
L 496.277827 202.51752 
L 496.970822 201.397821 
L 497.663818 197.138094 
L 498.356813 191.53554 
L 499.049809 189.726171 
L 499.742804 193.888532 
L 500.4358 190.294134 
L 501.128795 196.533619 
L 501.821791 201.702087 
L 503.207782 221.089927 
L 503.900777 226.834472 
L 504.593773 228.854799 
L 505.286768 236.351918 
L 505.979764 236.907711 
L 506.67276 237.074043 
L 507.365755 238.100434 
L 508.058751 237.349911 
L 508.751746 236.412771 
L 509.444742 236.433055 
L 510.137737 235.422892 
L 510.830733 233.094241 
L 511.523728 229.593152 
L 512.216724 228.615443 
L 512.909719 228.266552 
L 513.602715 228.712809 
L 514.29571 227.288843 
L 514.988706 227.580938 
L 516.374697 232.769691 
L 517.760688 235.504029 
L 518.453684 233.544555 
L 519.146679 228.54242 
L 519.839675 226.445011 
L 520.53267 225.211719 
L 521.225666 223.146766 
L 521.918661 217.982355 
L 522.611657 216.6233 
L 523.304652 218.043208 
L 523.997648 223.487544 
L 524.690643 224.246181 
L 525.383639 223.045344 
L 526.076634 223.747185 
L 526.76963 225.584952 
L 527.462625 224.136645 
L 528.155621 221.365795 
L 528.848616 217.966128 
L 529.541612 210.801674 
L 530.234608 204.980048 
L 530.927603 203.568253 
L 531.620599 201.649347 
L 532.313594 198.355159 
L 533.699585 203.154451 
L 534.392581 210.894982 
L 535.085576 215.702387 
L 535.778572 213.645548 
L 536.471567 215.183106 
L 537.857558 215.68616 
L 538.550554 215.467088 
L 539.243549 214.355502 
L 540.62954 208.809744 
L 541.322536 207.260015 
L 542.015532 207.880718 
L 542.708527 207.690045 
L 543.401523 208.558218 
L 544.094518 182.135744 
L 544.787514 168.914365 
L 545.480509 176.119388 
L 546.173505 178.159999 
L 546.8665 181.194547 
L 547.559496 182.703707 
L 548.252491 181.575894 
L 548.945487 205.357338 
L 549.638482 215.284528 
L 551.024473 209.933501 
L 551.717469 205.767083 
L 552.410464 204.188956 
L 553.10346 200.793345 
L 555.182447 182.886267 
L 555.875442 184.943106 
L 556.568438 183.742269 
L 557.261433 185.044528 
L 557.954429 188.578073 
L 558.647424 198.127974 
L 559.34042 211.462945 
L 560.033415 214.797703 
L 560.726411 216.976248 
L 561.419406 221.897246 
L 562.112402 221.670061 
L 562.805397 222.517949 
L 563.498393 221.317112 
L 564.191388 221.033131 
L 564.884384 215.718615 
L 565.577379 215.402178 
L 566.270375 214.846385 
L 566.963371 209.629235 
L 567.656366 209.511585 
L 569.042357 214.160772 
L 569.735353 220.943879 
L 570.428348 217.568553 
L 571.121344 216.899168 
L 571.814339 222.242081 
L 572.507335 217.527984 
L 573.20033 209.896989 
L 573.893326 206.623085 
L 574.586321 194.428097 
L 575.279317 195.089369 
L 575.972312 192.898652 
L 576.665308 185.559752 
L 577.358303 188.578073 
L 578.051299 195.29627 
L 578.744295 194.67151 
L 579.43729 205.925301 
L 580.130286 202.927265 
L 580.823281 205.746798 
L 582.902268 195.908859 
L 583.595263 182.399441 
L 584.288259 166.468065 
L 584.981254 168.098931 
L 585.67425 166.423439 
L 586.367245 174.951006 
L 587.060241 180.821314 
L 587.753236 178.464266 
L 588.446232 188.440139 
L 589.139227 206.517606 
L 589.832223 211.0532 
L 589.832223 211.0532 
" clip-path="url(#p35ab3ea285)" style="fill: none; stroke: #eb6834; stroke-width: 2; stroke-linecap: square"/>
   </g>
   <g id="patch_3">
    <path d="M 57.195859 255.925969 
L 57.195859 23.077969 
" style="fill: none; stroke: #c3c2b7; stroke-linejoin: miter; stroke-linecap: square"/>
   </g>
   <g id="patch_4">
    <path d="M 57.195859 255.925969 
L 615.195859 255.925969 
" style="fill: none; stroke: #c3c2b7; stroke-linejoin: miter; stroke-linecap: square"/>
   </g>
   <g id="text_19">
    <!-- V6 · Trading activity over time (daily count + 7-day MA) -->
    <g style="fill: #0b0b0b" transform="translate(132.258359 17.077969) scale(0.13 -0.13)">
     <defs>
      <path id="DejaVuSans-Bold-39" d="M 31 4666 
L 1241 4666 
L 2478 1222 
L 3713 4666 
L 4922 4666 
L 3194 0 
L 1759 0 
L 31 4666 
z
" transform="scale(0.015625)"/>
      <path id="DejaVuSans-Bold-19" d="M 2316 2303 
Q 2000 2303 1842 2098 
Q 1684 1894 1684 1484 
Q 1684 1075 1842 870 
Q 2000 666 2316 666 
Q 2634 666 2792 870 
Q 2950 1075 2950 1484 
Q 2950 1894 2792 2098 
Q 2634 2303 2316 2303 
z
M 3803 4544 
L 3803 3681 
Q 3506 3822 3243 3889 
Q 2981 3956 2731 3956 
Q 2194 3956 1894 3657 
Q 1594 3359 1544 2772 
Q 1750 2925 1990 3001 
Q 2231 3078 2516 3078 
Q 3231 3078 3670 2659 
Q 4109 2241 4109 1563 
Q 4109 813 3618 361 
Q 3128 -91 2303 -91 
Q 1394 -91 895 523 
Q 397 1138 397 2266 
Q 397 3422 980 4083 
Q 1563 4744 2578 4744 
Q 2900 4744 3203 4694 
Q 3506 4644 3803 4544 
z
" transform="scale(0.015625)"/>
      <path id="DejaVuSans-Bold-3" transform="scale(0.015625)"/>
      <path id="DejaVuSans-Bold-79" d="M 653 2828 
L 1778 2828 
L 1778 1619 
L 653 1619 
L 653 2828 
z
" transform="scale(0.015625)"/>
      <path id="DejaVuSans-Bold-37" d="M 31 4666 
L 4331 4666 
L 4331 3756 
L 2784 3756 
L 2784 0 
L 1581 0 
L 1581 3756 
L 31 3756 
L 31 4666 
z
" transform="scale(0.015625)"/>
      <path id="DejaVuSans-Bold-55" d="M 3138 2547 
Q 2991 2616 2845 2648 
Q 2700 2681 2553 2681 
Q 2122 2681 1889 2404 
Q 1656 2128 1656 1613 
L 1656 0 
L 538 0 
L 538 3500 
L 1656 3500 
L 1656 2925 
Q 1872 3269 2151 3426 
Q 2431 3584 2822 3584 
Q 2878 3584 2943 3579 
Q 3009 3575 3134 3559 
L 3138 2547 
z
" transform="scale(0.015625)"/>
      <path id="DejaVuSans-Bold-44" d="M 2106 1575 
Q 1756 1575 1579 1456 
Q 1403 1338 1403 1106 
Q 1403 894 1545 773 
Q 1688 653 1941 653 
Q 2256 653 2472 879 
Q 2688 1106 2688 1447 
L 2688 1575 
L 2106 1575 
z
M 3816 1997 
L 3816 0 
L 2688 0 
L 2688 519 
Q 2463 200 2181 54 
Q 1900 -91 1497 -91 
Q 953 -91 614 226 
Q 275 544 275 1050 
Q 275 1666 698 1953 
Q 1122 2241 2028 2241 
L 2688 2241 
L 2688 2328 
Q 2688 2594 2478 2717 
Q 2269 2841 1825 2841 
Q 1466 2841 1156 2769 
Q 847 2697 581 2553 
L 581 3406 
Q 941 3494 1303 3539 
Q 1666 3584 2028 3584 
Q 2975 3584 3395 3211 
Q 3816 2838 3816 1997 
z
" transform="scale(0.015625)"/>
      <path id="DejaVuSans-Bold-47" d="M 2919 2988 
L 2919 4863 
L 4044 4863 
L 4044 0 
L 2919 0 
L 2919 506 
Q 2688 197 2409 53 
Q 2131 -91 1766 -91 
Q 1119 -91 703 423 
Q 288 938 288 1747 
Q 288 2556 703 3070 
Q 1119 3584 1766 3584 
Q 2128 3584 2408 3439 
Q 2688 3294 2919 2988 
z
M 2181 722 
Q 2541 722 2730 984 
Q 2919 1247 2919 1747 
Q 2919 2247 2730 2509 
Q 2541 2772 2181 2772 
Q 1825 2772 1636 2509 
Q 1447 2247 1447 1747 
Q 1447 1247 1636 984 
Q 1825 722 2181 722 
z
" transform="scale(0.015625)"/>
      <path id="DejaVuSans-Bold-4c" d="M 538 3500 
L 1656 3500 
L 1656 0 
L 538 0 
L 538 3500 
z
M 538 4863 
L 1656 4863 
L 1656 3950 
L 538 3950 
L 538 4863 
z
" transform="scale(0.015625)"/>
      <path id="DejaVuSans-Bold-51" d="M 4056 2131 
L 4056 0 
L 2931 0 
L 2931 347 
L 2931 1631 
Q 2931 2084 2911 2256 
Q 2891 2428 2841 2509 
Q 2775 2619 2662 2680 
Q 2550 2741 2406 2741 
Q 2056 2741 1856 2470 
Q 1656 2200 1656 1722 
L 1656 0 
L 538 0 
L 538 3500 
L 1656 3500 
L 1656 2988 
Q 1909 3294 2193 3439 
Q 2478 3584 2822 3584 
Q 3428 3584 3742 3212 
Q 4056 2841 4056 2131 
z
" transform="scale(0.015625)"/>
      <path id="DejaVuSans-Bold-4a" d="M 2919 594 
Q 2688 288 2409 144 
Q 2131 0 1766 0 
Q 1125 0 706 504 
Q 288 1009 288 1791 
Q 288 2575 706 3076 
Q 1125 3578 1766 3578 
Q 2131 3578 2409 3434 
Q 2688 3291 2919 2981 
L 2919 3500 
L 4044 3500 
L 4044 353 
Q 4044 -491 3511 -936 
Q 2978 -1381 1966 -1381 
Q 1638 -1381 1331 -1331 
Q 1025 -1281 716 -1178 
L 716 -306 
Q 1009 -475 1290 -558 
Q 1572 -641 1856 -641 
Q 2406 -641 2662 -400 
Q 2919 -159 2919 353 
L 2919 594 
z
M 2181 2772 
Q 1834 2772 1640 2515 
Q 1447 2259 1447 1791 
Q 1447 1309 1634 1061 
Q 1822 813 2181 813 
Q 2531 813 2725 1069 
Q 2919 1325 2919 1791 
Q 2919 2259 2725 2515 
Q 2531 2772 2181 2772 
z
" transform="scale(0.015625)"/>
      <path id="DejaVuSans-Bold-46" d="M 3366 3391 
L 3366 2478 
Q 3138 2634 2908 2709 
Q 2678 2784 2431 2784 
Q 1963 2784 1702 2511 
Q 1441 2238 1441 1747 
Q 1441 1256 1702 982 
Q 1963 709 2431 709 
Q 2694 709 2930 787 
Q 3166 866 3366 1019 
L 3366 103 
Q 3103 6 2833 -42 
Q 2563 -91 2291 -91 
Q 1344 -91 809 395 
Q 275 881 275 1747 
Q 275 2613 809 3098 
Q 1344 3584 2291 3584 
Q 2566 3584 2833 3536 
Q 3100 3488 3366 3391 
z
" transform="scale(0.015625)"/>
      <path id="DejaVuSans-Bold-57" d="M 1759 4494 
L 1759 3500 
L 2913 3500 
L 2913 2700 
L 1759 2700 
L 1759 1216 
Q 1759 972 1856 886 
Q 1953 800 2241 800 
L 2816 800 
L 2816 0 
L 1856 0 
Q 1194 0 917 276 
Q 641 553 641 1216 
L 641 2700 
L 84 2700 
L 84 3500 
L 641 3500 
L 641 4494 
L 1759 4494 
z
" transform="scale(0.015625)"/>
      <path id="DejaVuSans-Bold-59" d="M 97 3500 
L 1216 3500 
L 2088 1081 
L 2956 3500 
L 4078 3500 
L 2700 0 
L 1472 0 
L 97 3500 
z
" transform="scale(0.015625)"/>
      <path id="DejaVuSans-Bold-5c" d="M 78 3500 
L 1197 3500 
L 2138 1125 
L 2938 3500 
L 4056 3500 
L 2584 -331 
Q 2363 -916 2067 -1148 
Q 1772 -1381 1288 -1381 
L 641 -1381 
L 641 -647 
L 991 -647 
Q 1275 -647 1404 -556 
Q 1534 -466 1606 -231 
L 1638 -134 
L 78 3500 
z
" transform="scale(0.015625)"/>
      <path id="DejaVuSans-Bold-52" d="M 2203 2784 
Q 1831 2784 1636 2517 
Q 1441 2250 1441 1747 
Q 1441 1244 1636 976 
Q 1831 709 2203 709 
Q 2569 709 2762 976 
Q 2956 1244 2956 1747 
Q 2956 2250 2762 2517 
Q 2569 2784 2203 2784 
z
M 2203 3584 
Q 3106 3584 3614 3096 
Q 4122 2609 4122 1747 
Q 4122 884 3614 396 
Q 3106 -91 2203 -91 
Q 1297 -91 786 396 
Q 275 884 275 1747 
Q 275 2609 786 3096 
Q 1297 3584 2203 3584 
z
" transform="scale(0.015625)"/>
      <path id="DejaVuSans-Bold-48" d="M 4031 1759 
L 4031 1441 
L 1416 1441 
Q 1456 1047 1700 850 
Q 1944 653 2381 653 
Q 2734 653 3104 758 
Q 3475 863 3866 1075 
L 3866 213 
Q 3469 63 3072 -14 
Q 2675 -91 2278 -91 
Q 1328 -91 801 392 
Q 275 875 275 1747 
Q 275 2603 792 3093 
Q 1309 3584 2216 3584 
Q 3041 3584 3536 3087 
Q 4031 2591 4031 1759 
z
M 2881 2131 
Q 2881 2450 2695 2645 
Q 2509 2841 2209 2841 
Q 1884 2841 1681 2658 
Q 1478 2475 1428 2131 
L 2881 2131 
z
" transform="scale(0.015625)"/>
      <path id="DejaVuSans-Bold-50" d="M 3781 2919 
Q 3994 3244 4286 3414 
Q 4578 3584 4928 3584 
Q 5531 3584 5847 3212 
Q 6163 2841 6163 2131 
L 6163 0 
L 5038 0 
L 5038 1825 
Q 5041 1866 5042 1909 
Q 5044 1953 5044 2034 
Q 5044 2406 4934 2573 
Q 4825 2741 4581 2741 
Q 4263 2741 4089 2478 
Q 3916 2216 3909 1719 
L 3909 0 
L 2784 0 
L 2784 1825 
Q 2784 2406 2684 2573 
Q 2584 2741 2328 2741 
Q 2006 2741 1831 2477 
Q 1656 2213 1656 1722 
L 1656 0 
L 531 0 
L 531 3500 
L 1656 3500 
L 1656 2988 
Q 1863 3284 2130 3434 
Q 2397 3584 2719 3584 
Q 3081 3584 3359 3409 
Q 3638 3234 3781 2919 
z
" transform="scale(0.015625)"/>
      <path id="DejaVuSans-Bold-b" d="M 2413 -844 
L 1484 -844 
Q 1006 -72 778 623 
Q 550 1319 550 2003 
Q 550 2688 779 3389 
Q 1009 4091 1484 4856 
L 2413 4856 
Q 2013 4116 1813 3408 
Q 1613 2700 1613 2009 
Q 1613 1319 1811 609 
Q 2009 -100 2413 -844 
z
" transform="scale(0.015625)"/>
      <path id="DejaVuSans-Bold-4f" d="M 538 4863 
L 1656 4863 
L 1656 0 
L 538 0 
L 538 4863 
z
" transform="scale(0.015625)"/>
      <path id="DejaVuSans-Bold-58" d="M 500 1363 
L 500 3500 
L 1625 3500 
L 1625 3150 
Q 1625 2866 1622 2436 
Q 1619 2006 1619 1863 
Q 1619 1441 1641 1255 
Q 1663 1069 1716 984 
Q 1784 875 1895 815 
Q 2006 756 2150 756 
Q 2500 756 2700 1025 
Q 2900 1294 2900 1772 
L 2900 3500 
L 4019 3500 
L 4019 0 
L 2900 0 
L 2900 506 
Q 2647 200 2364 54 
Q 2081 -91 1741 -91 
Q 1134 -91 817 281 
Q 500 653 500 1363 
z
" transform="scale(0.015625)"/>
      <path id="DejaVuSans-Bold-e" d="M 3053 4013 
L 3053 2375 
L 4684 2375 
L 4684 1638 
L 3053 1638 
L 3053 0 
L 2309 0 
L 2309 1638 
L 678 1638 
L 678 2375 
L 2309 2375 
L 2309 4013 
L 3053 4013 
z
" transform="scale(0.015625)"/>
      <path id="DejaVuSans-Bold-1a" d="M 428 4666 
L 3944 4666 
L 3944 3988 
L 2125 0 
L 953 0 
L 2675 3781 
L 428 3781 
L 428 4666 
z
" transform="scale(0.015625)"/>
      <path id="DejaVuSans-Bold-10" d="M 347 2297 
L 2309 2297 
L 2309 1388 
L 347 1388 
L 347 2297 
z
" transform="scale(0.015625)"/>
      <path id="DejaVuSans-Bold-30" d="M 588 4666 
L 2119 4666 
L 3181 2169 
L 4250 4666 
L 5778 4666 
L 5778 0 
L 4641 0 
L 4641 3413 
L 3566 897 
L 2803 897 
L 1728 3413 
L 1728 0 
L 588 0 
L 588 4666 
z
" transform="scale(0.015625)"/>
      <path id="DejaVuSans-Bold-24" d="M 3419 850 
L 1538 850 
L 1241 0 
L 31 0 
L 1759 4666 
L 3194 4666 
L 4922 0 
L 3713 0 
L 3419 850 
z
M 1838 1716 
L 3116 1716 
L 2478 3572 
L 1838 1716 
z
" transform="scale(0.015625)"/>
      <path id="DejaVuSans-Bold-c" d="M 513 -844 
Q 913 -100 1113 609 
Q 1313 1319 1313 2009 
Q 1313 2700 1113 3408 
Q 913 4116 513 4856 
L 1441 4856 
Q 1916 4091 2145 3389 
Q 2375 2688 2375 2003 
Q 2375 1319 2147 623 
Q 1919 -72 1441 -844 
L 513 -844 
z
" transform="scale(0.015625)"/>
     </defs>
     <use xlink:href="#DejaVuSans-Bold-39"/>
     <use xlink:href="#DejaVuSans-Bold-19" transform="translate(77.390625 0)"/>
     <use xlink:href="#DejaVuSans-Bold-3" transform="translate(146.96875 0)"/>
     <use xlink:href="#DejaVuSans-Bold-79" transform="translate(181.78125 0)"/>
     <use xlink:href="#DejaVuSans-Bold-3" transform="translate(219.765625 0)"/>
     <use xlink:href="#DejaVuSans-Bold-37" transform="translate(254.578125 0)"/>
     <use xlink:href="#DejaVuSans-Bold-55" transform="translate(311.8125 0)"/>
     <use xlink:href="#DejaVuSans-Bold-44" transform="translate(361.125 0)"/>
     <use xlink:href="#DejaVuSans-Bold-47" transform="translate(428.609375 0)"/>
     <use xlink:href="#DejaVuSans-Bold-4c" transform="translate(500.1875 0)"/>
     <use xlink:href="#DejaVuSans-Bold-51" transform="translate(534.46875 0)"/>
     <use xlink:href="#DejaVuSans-Bold-4a" transform="translate(605.65625 0)"/>
     <use xlink:href="#DejaVuSans-Bold-3" transform="translate(677.234375 0)"/>
     <use xlink:href="#DejaVuSans-Bold-44" transform="translate(712.046875 0)"/>
     <use xlink:href="#DejaVuSans-Bold-46" transform="translate(779.53125 0)"/>
     <use xlink:href="#DejaVuSans-Bold-57" transform="translate(838.8125 0)"/>
     <use xlink:href="#DejaVuSans-Bold-4c" transform="translate(886.609375 0)"/>
     <use xlink:href="#DejaVuSans-Bold-59" transform="translate(920.890625 0)"/>
     <use xlink:href="#DejaVuSans-Bold-4c" transform="translate(986.078125 0)"/>
     <use xlink:href="#DejaVuSans-Bold-57" transform="translate(1020.359375 0)"/>
     <use xlink:href="#DejaVuSans-Bold-5c" transform="translate(1068.15625 0)"/>
     <use xlink:href="#DejaVuSans-Bold-3" transform="translate(1133.34375 0)"/>
     <use xlink:href="#DejaVuSans-Bold-52" transform="translate(1168.15625 0)"/>
     <use xlink:href="#DejaVuSans-Bold-59" transform="translate(1236.859375 0)"/>
     <use xlink:href="#DejaVuSans-Bold-48" transform="translate(1302.046875 0)"/>
     <use xlink:href="#DejaVuSans-Bold-55" transform="translate(1369.875 0)"/>
     <use xlink:href="#DejaVuSans-Bold-3" transform="translate(1419.1875 0)"/>
     <use xlink:href="#DejaVuSans-Bold-57" transform="translate(1454 0)"/>
     <use xlink:href="#DejaVuSans-Bold-4c" transform="translate(1501.796875 0)"/>
     <use xlink:href="#DejaVuSans-Bold-50" transform="translate(1536.078125 0)"/>
     <use xlink:href="#DejaVuSans-Bold-48" transform="translate(1640.28125 0)"/>
     <use xlink:href="#DejaVuSans-Bold-3" transform="translate(1708.109375 0)"/>
     <use xlink:href="#DejaVuSans-Bold-b" transform="translate(1742.921875 0)"/>
     <use xlink:href="#DejaVuSans-Bold-47" transform="translate(1788.625 0)"/>
     <use xlink:href="#DejaVuSans-Bold-44" transform="translate(1860.203125 0)"/>
     <use xlink:href="#DejaVuSans-Bold-4c" transform="translate(1927.6875 0)"/>
     <use xlink:href="#DejaVuSans-Bold-4f" transform="translate(1961.96875 0)"/>
     <use xlink:href="#DejaVuSans-Bold-5c" transform="translate(1996.25 0)"/>
     <use xlink:href="#DejaVuSans-Bold-3" transform="translate(2061.4375 0)"/>
     <use xlink:href="#DejaVuSans-Bold-46" transform="translate(2096.25 0)"/>
     <use xlink:href="#DejaVuSans-Bold-52" transform="translate(2155.53125 0)"/>
     <use xlink:href="#DejaVuSans-Bold-58" transform="translate(2224.234375 0)"/>
     <use xlink:href="#DejaVuSans-Bold-51" transform="translate(2295.421875 0)"/>
     <use xlink:href="#DejaVuSans-Bold-57" transform="translate(2366.609375 0)"/>
     <use xlink:href="#DejaVuSans-Bold-3" transform="translate(2414.40625 0)"/>
     <use xlink:href="#DejaVuSans-Bold-e" transform="translate(2449.21875 0)"/>
     <use xlink:href="#DejaVuSans-Bold-3" transform="translate(2533.015625 0)"/>
     <use xlink:href="#DejaVuSans-Bold-1a" transform="translate(2567.828125 0)"/>
     <use xlink:href="#DejaVuSans-Bold-10" transform="translate(2637.40625 0)"/>
     <use xlink:href="#DejaVuSans-Bold-47" transform="translate(2678.90625 0)"/>
     <use xlink:href="#DejaVuSans-Bold-44" transform="translate(2750.484375 0)"/>
     <use xlink:href="#DejaVuSans-Bold-5c" transform="translate(2814.890625 0)"/>
     <use xlink:href="#DejaVuSans-Bold-3" transform="translate(2880.078125 0)"/>
     <use xlink:href="#DejaVuSans-Bold-30" transform="translate(2914.890625 0)"/>
     <use xlink:href="#DejaVuSans-Bold-24" transform="translate(3014.40625 0)"/>
     <use xlink:href="#DejaVuSans-Bold-c" transform="translate(3091.796875 0)"/>
    </g>
   </g>
   <g id="legend_1">
    <g id="line2d_37">
     <path d="M 66.195859 36.176406 
L 76.195859 36.176406 
L 86.195859 36.176406 
" style="fill: none; stroke: #2a78d6; stroke-opacity: 0.45; stroke-width: 0.7; stroke-linecap: square"/>
    </g>
    <g id="text_20">
     <!-- Daily trade count -->
     <g transform="translate(94.195859 39.676406) scale(0.1 -0.1)">
      <defs>
       <path id="DejaVuSans-27" d="M 1259 4147 
L 1259 519 
L 2022 519 
Q 2988 519 3436 956 
Q 3884 1394 3884 2338 
Q 3884 3275 3436 3711 
Q 2988 4147 2022 4147 
L 1259 4147 
z
M 628 4666 
L 1925 4666 
Q 3281 4666 3915 4102 
Q 4550 3538 4550 2338 
Q 4550 1131 3912 565 
Q 3275 0 1925 0 
L 628 0 
L 628 4666 
z
" transform="scale(0.015625)"/>
       <path id="DejaVuSans-4c" d="M 603 3500 
L 1178 3500 
L 1178 0 
L 603 0 
L 603 3500 
z
M 603 4863 
L 1178 4863 
L 1178 4134 
L 603 4134 
L 603 4863 
z
" transform="scale(0.015625)"/>
       <path id="DejaVuSans-4f" d="M 603 4863 
L 1178 4863 
L 1178 0 
L 603 0 
L 603 4863 
z
" transform="scale(0.015625)"/>
       <path id="DejaVuSans-57" d="M 1172 4494 
L 1172 3500 
L 2356 3500 
L 2356 3053 
L 1172 3053 
L 1172 1153 
Q 1172 725 1289 603 
Q 1406 481 1766 481 
L 2356 481 
L 2356 0 
L 1766 0 
Q 1100 0 847 248 
Q 594 497 594 1153 
L 594 3053 
L 172 3053 
L 172 3500 
L 594 3500 
L 594 4494 
L 1172 4494 
z
" transform="scale(0.015625)"/>
       <path id="DejaVuSans-46" d="M 3122 3366 
L 3122 2828 
Q 2878 2963 2633 3030 
Q 2388 3097 2138 3097 
Q 1578 3097 1268 2742 
Q 959 2388 959 1747 
Q 959 1106 1268 751 
Q 1578 397 2138 397 
Q 2388 397 2633 464 
Q 2878 531 3122 666 
L 3122 134 
Q 2881 22 2623 -34 
Q 2366 -91 2075 -91 
Q 1284 -91 818 406 
Q 353 903 353 1747 
Q 353 2603 823 3093 
Q 1294 3584 2113 3584 
Q 2378 3584 2631 3529 
Q 2884 3475 3122 3366 
z
" transform="scale(0.015625)"/>
       <path id="DejaVuSans-52" d="M 1959 3097 
Q 1497 3097 1228 2736 
Q 959 2375 959 1747 
Q 959 1119 1226 758 
Q 1494 397 1959 397 
Q 2419 397 2687 759 
Q 2956 1122 2956 1747 
Q 2956 2369 2687 2733 
Q 2419 3097 1959 3097 
z
M 1959 3584 
Q 2709 3584 3137 3096 
Q 3566 2609 3566 1747 
Q 3566 888 3137 398 
Q 2709 -91 1959 -91 
Q 1206 -91 779 398 
Q 353 888 353 1747 
Q 353 2609 779 3096 
Q 1206 3584 1959 3584 
z
" transform="scale(0.015625)"/>
       <path id="DejaVuSans-58" d="M 544 1381 
L 544 3500 
L 1119 3500 
L 1119 1403 
Q 1119 906 1312 657 
Q 1506 409 1894 409 
Q 2359 409 2629 706 
Q 2900 1003 2900 1516 
L 2900 3500 
L 3475 3500 
L 3475 0 
L 2900 0 
L 2900 538 
Q 2691 219 2414 64 
Q 2138 -91 1772 -91 
Q 1169 -91 856 284 
Q 544 659 544 1381 
z
M 1991 3584 
L 1991 3584 
z
" transform="scale(0.015625)"/>
       <path id="DejaVuSans-51" d="M 3513 2113 
L 3513 0 
L 2938 0 
L 2938 2094 
Q 2938 2591 2744 2837 
Q 2550 3084 2163 3084 
Q 1697 3084 1428 2787 
Q 1159 2491 1159 1978 
L 1159 0 
L 581 0 
L 581 3500 
L 1159 3500 
L 1159 2956 
Q 1366 3272 1645 3428 
Q 1925 3584 2291 3584 
Q 2894 3584 3203 3211 
Q 3513 2838 3513 2113 
z
" transform="scale(0.015625)"/>
      </defs>
      <use xlink:href="#DejaVuSans-27"/>
      <use xlink:href="#DejaVuSans-44" transform="translate(77 0)"/>
      <use xlink:href="#DejaVuSans-4c" transform="translate(138.28125 0)"/>
      <use xlink:href="#DejaVuSans-4f" transform="translate(166.0625 0)"/>
      <use xlink:href="#DejaVuSans-5c" transform="translate(193.84375 0)"/>
      <use xlink:href="#DejaVuSans-3" transform="translate(253.03125 0)"/>
      <use xlink:href="#DejaVuSans-57" transform="translate(284.8125 0)"/>
      <use xlink:href="#DejaVuSans-55" transform="translate(324.015625 0)"/>
      <use xlink:href="#DejaVuSans-44" transform="translate(365.125 0)"/>
      <use xlink:href="#DejaVuSans-47" transform="translate(426.40625 0)"/>
      <use xlink:href="#DejaVuSans-48" transform="translate(489.890625 0)"/>
      <use xlink:href="#DejaVuSans-3" transform="translate(551.421875 0)"/>
      <use xlink:href="#DejaVuSans-46" transform="translate(583.203125 0)"/>
      <use xlink:href="#DejaVuSans-52" transform="translate(638.1875 0)"/>
      <use xlink:href="#DejaVuSans-58" transform="translate(699.375 0)"/>
      <use xlink:href="#DejaVuSans-51" transform="translate(762.75 0)"/>
      <use xlink:href="#DejaVuSans-57" transform="translate(826.125 0)"/>
     </g>
    </g>
    <g id="line2d_38">
     <path d="M 66.195859 51.177187 
L 76.195859 51.177187 
L 86.195859 51.177187 
" style="fill: none; stroke: #eb6834; stroke-width: 2; stroke-linecap: square"/>
    </g>
    <g id="text_21">
     <!-- 7-day moving average -->
     <g transform="translate(94.195859 54.677187) scale(0.1 -0.1)">
      <defs>
       <path id="DejaVuSans-50" d="M 3328 2828 
Q 3544 3216 3844 3400 
Q 4144 3584 4550 3584 
Q 5097 3584 5394 3201 
Q 5691 2819 5691 2113 
L 5691 0 
L 5113 0 
L 5113 2094 
Q 5113 2597 4934 2840 
Q 4756 3084 4391 3084 
Q 3944 3084 3684 2787 
Q 3425 2491 3425 1978 
L 3425 0 
L 2847 0 
L 2847 2094 
Q 2847 2600 2669 2842 
Q 2491 3084 2119 3084 
Q 1678 3084 1418 2786 
Q 1159 2488 1159 1978 
L 1159 0 
L 581 0 
L 581 3500 
L 1159 3500 
L 1159 2956 
Q 1356 3278 1631 3431 
Q 1906 3584 2284 3584 
Q 2666 3584 2933 3390 
Q 3200 3197 3328 2828 
z
" transform="scale(0.015625)"/>
       <path id="DejaVuSans-59" d="M 191 3500 
L 800 3500 
L 1894 563 
L 2988 3500 
L 3597 3500 
L 2284 0 
L 1503 0 
L 191 3500 
z
" transform="scale(0.015625)"/>
       <path id="DejaVuSans-4a" d="M 2906 1791 
Q 2906 2416 2648 2759 
Q 2391 3103 1925 3103 
Q 1463 3103 1205 2759 
Q 947 2416 947 1791 
Q 947 1169 1205 825 
Q 1463 481 1925 481 
Q 2391 481 2648 825 
Q 2906 1169 2906 1791 
z
M 3481 434 
Q 3481 -459 3084 -895 
Q 2688 -1331 1869 -1331 
Q 1566 -1331 1297 -1286 
Q 1028 -1241 775 -1147 
L 775 -588 
Q 1028 -725 1275 -790 
Q 1522 -856 1778 -856 
Q 2344 -856 2625 -561 
Q 2906 -266 2906 331 
L 2906 616 
Q 2728 306 2450 153 
Q 2172 0 1784 0 
Q 1141 0 747 490 
Q 353 981 353 1791 
Q 353 2603 747 3093 
Q 1141 3584 1784 3584 
Q 2172 3584 2450 3431 
Q 2728 3278 2906 2969 
L 2906 3500 
L 3481 3500 
L 3481 434 
z
" transform="scale(0.015625)"/>
      </defs>
      <use xlink:href="#DejaVuSans-1a"/>
      <use xlink:href="#DejaVuSans-10" transform="translate(63.625 0)"/>
      <use xlink:href="#DejaVuSans-47" transform="translate(99.703125 0)"/>
      <use xlink:href="#DejaVuSans-44" transform="translate(163.1875 0)"/>
      <use xlink:href="#DejaVuSans-5c" transform="translate(224.46875 0)"/>
      <use xlink:href="#DejaVuSans-3" transform="translate(283.65625 0)"/>
      <use xlink:href="#DejaVuSans-50" transform="translate(315.4375 0)"/>
      <use xlink:href="#DejaVuSans-52" transform="translate(412.84375 0)"/>
      <use xlink:href="#DejaVuSans-59" transform="translate(474.03125 0)"/>
      <use xlink:href="#DejaVuSans-4c" transform="translate(533.21875 0)"/>
      <use xlink:href="#DejaVuSans-51" transform="translate(561 0)"/>
      <use xlink:href="#DejaVuSans-4a" transform="translate(624.375 0)"/>
      <use xlink:href="#DejaVuSans-3" transform="translate(687.859375 0)"/>
      <use xlink:href="#DejaVuSans-44" transform="translate(719.640625 0)"/>
      <use xlink:href="#DejaVuSans-59" transform="translate(780.921875 0)"/>
      <use xlink:href="#DejaVuSans-48" transform="translate(840.109375 0)"/>
      <use xlink:href="#DejaVuSans-55" transform="translate(901.640625 0)"/>
      <use xlink:href="#DejaVuSans-44" transform="translate(942.75 0)"/>
      <use xlink:href="#DejaVuSans-4a" transform="translate(1004.03125 0)"/>
      <use xlink:href="#DejaVuSans-48" transform="translate(1067.515625 0)"/>
     </g>
    </g>
   </g>
  </g>
 </g>
 <defs>
  <clipPath id="p35ab3ea285">
   <rect x="57.195859" y="23.077969" width="558" height="232.848"/>
  </clipPath>
 </defs>
</svg>
